M48
;GenerationSoftware,Autodesk,EAGLE,9.1.1*%
;CreationDate,2018-07-20T09:13:10Z*%
FMAT,2
ICI,OFF
METRIC,TZ,000.000
T12C0.350
T11C0.800
T10C0.813
T9C1.000
T8C1.016
T7C1.100
T6C1.300
T5C1.400
T4C1.500
T3C2.000
T2C2.200
T1C3.000
%
G90
M71
T1
X170286Y104396
X153284Y34396
X170286Y90396
X153284Y62366
X153284Y48426
X170286Y48396
X170286Y34396
X170286Y76396
X170286Y62396
T2
X131886Y52396
X140686Y52396
X131886Y67396
X140686Y67396
T3
X170286Y20396
X170286Y6396
X153284Y6396
X153284Y20396
T4
X170286Y45016
X153284Y58986
X170286Y39316
X153284Y39316
X153284Y31016
X170286Y53316
X170286Y31016
X170286Y73016
X170286Y81316
X170286Y67316
X170286Y59016
X170286Y109316
X170286Y95316
X170286Y87016
X170286Y101016
X153284Y67286
X153284Y45046
X153284Y53346
T5
X49640Y101180
X54140Y101180
T6
X153284Y41926
X170286Y69896
X170286Y27896
X170286Y41896
X153284Y27896
X170286Y83896
X153284Y55866
X170286Y97896
X170286Y55896
T7
X153284Y9889
X170286Y12428
X170286Y1633
X170286Y9889
X170286Y14363
X170286Y25158
X153284Y12428
X170286Y16904
X153284Y25158
X153284Y16904
X153284Y1633
X153284Y14363
T8
X126060Y39580
X128600Y39580
X131140Y39580
X133680Y39580
X136220Y39580
X125730Y45920
X128270Y45920
X125730Y48460
X128270Y48460
X125730Y51000
X128270Y51000
X125730Y53540
X138760Y39580
X125730Y56080
X128270Y56080
X128270Y53540
T9
X133786Y59096
X136286Y59096
X138786Y59096
X133786Y74096
X136286Y74096
X138786Y74096
X145786Y104396
X140786Y89896
X143286Y89896
X145786Y89896
X140786Y104396
T10
X154554Y72396
X160516Y90396
X163056Y90396
X160516Y104396
X163056Y104396
X160516Y48396
X163056Y34396
X163056Y48396
X160516Y34396
X163056Y76396
X160516Y20396
X163056Y20396
X160516Y6396
X163056Y6396
X152014Y72396
X160516Y62396
X163056Y62396
X160516Y76396
T11
X124520Y22860
X128330Y2540
X124520Y25400
X124520Y27940
X124520Y30480
X139760Y2540
X139760Y7620
X139760Y10160
X139760Y12700
X139760Y15240
X139760Y17780
X139760Y20320
X139760Y22860
X139760Y25400
X139760Y27940
X128330Y33020
X130870Y33020
X128330Y21590
X133410Y33020
X135950Y33020
X138490Y33020
X128330Y19050
X139760Y30480
X130870Y2540
X124520Y2540
X124520Y5080
X124520Y7620
X124520Y10160
X139760Y5080
X125790Y33020
X124520Y12700
X124520Y15240
X124520Y17780
X124520Y20320
X133410Y2540
T12
X39726Y51460
X11709Y51333
X75463Y44653
X107823Y42697
X108052Y32207
X111201Y24359
X123165Y34011
X113360Y34341
X120294Y31039
X115570Y37313
X118415Y28600
X110922Y56769
X112116Y63170
X113894Y67945
X115011Y65913
X113716Y82880
X117373Y99238
X149301Y78918
X139040Y88570
X76225Y71095
X55093Y57988
X2819Y33807
X86944Y10490
X43205Y18948
X77902Y47066
X130683Y54966
X52857Y50597
X54432Y47600
X53975Y53289
X60757Y49174
X19558Y20422
X144882Y86157
X156870Y86157
X47752Y11786
X59334Y11786
X106680Y18491
X111963Y38405
X95301Y61976
X108915Y56083
X111963Y46126
X135738Y84328
X127203Y71323
X103835Y63602
X143459Y23978
X61773Y50800
X53975Y48692
X117450Y26822
X117043Y20930
X114808Y44907
X110947Y59131
X113589Y66040
X115011Y84531
X115011Y76276
X116027Y96520
X115621Y89814
X129845Y94285
X114808Y52832
X117043Y41859
X47142Y5893
X46939Y6909
X17882Y96520
X17882Y90018
X18085Y21742
X18085Y30277
X18085Y41046
X18085Y54458
X17678Y5690
X42062Y13208
X32106Y7518
X36982Y12395
X32106Y26416
X32106Y77622
X32106Y86157
X32106Y96520
X31902Y61976
X45923Y96520
X45923Y90018
X51003Y15240
X48971Y6299
X45923Y26416
X45923Y21133
X45923Y40437
X45720Y51410
X59944Y62992
X58725Y72949
X59944Y96520
X49378Y19507
X48158Y4267
X59944Y40437
X59538Y33731
X62179Y52629
X73965Y96520
X73965Y90018
X54051Y21336
X56490Y21336
X72746Y19710
X74168Y6502
X74168Y15646
X73965Y26416
X73762Y40437
X73965Y61976
X88189Y96520
X88189Y90221
X89408Y61570
X86766Y3048
X87986Y12395
X87986Y6502
X88189Y40437
X39954Y45999
X53238Y16459
X60960Y16459
X92659Y16459
X85954Y6502
X103226Y73152
X109728Y73152
X102210Y96520
X103022Y47752
X105258Y47752
X98349Y28448
X93675Y58318
X88392Y62179
X78638Y104851
X103226Y106477
X93675Y59538
X87782Y62992
X79451Y91643
X106477Y95098
X90830Y76810
X104038Y78435
X91237Y63398
X101803Y64211
X93878Y52019
X105054Y49581
X96317Y49581
X77419Y51613
X57912Y44704
X61773Y46939
X95301Y39421
X105258Y37998
X100584Y60757
X102210Y54458
X109931Y37795
X98349Y22758
X105258Y23368
X80061Y22149
X90424Y22149
X57099Y20523
X99771Y58115
X99771Y54864
X110947Y36373
X104648Y9754
X100381Y9754
X123952Y83312
X128219Y84531
X123139Y57912
X135331Y89611
X133502Y87782
X123342Y50800
X106070Y46533
X110541Y51003
X130658Y88595
X126390Y59131
X129845Y89814
X142037Y90627
X81483Y67259
X91643Y69291
X105461Y69291
X108102Y69291
X130454Y30480
X127203Y59741
X101803Y15646
X21336Y67259
X21336Y49378
X21336Y95098
X21336Y21336
X93066Y29261
X101803Y29261
X115291Y34087
X58115Y55474
X51613Y61976
X173533Y2845
X164795Y8738
X173330Y39624
X165811Y37592
X153416Y74981
X156058Y79248
X155651Y71323
X147320Y76200
X154838Y80061
X137566Y81077
X124968Y57506
X124968Y77622
X124968Y83312
X120701Y54051
X120498Y52832
X120498Y56693
X113995Y47549
X113589Y45517
X116637Y44094
X121717Y43485
X113995Y46533
X118262Y39827
X119685Y23774
X115824Y54661
X117043Y50190
X117450Y47346
X116637Y40234
X117653Y22555
X155042Y69901
X156464Y30886
X146507Y84328
X153416Y77013
X157886Y64008
X131470Y84531
X134315Y89611
X146507Y85344
X154330Y23673
X134315Y90627
X142240Y85344
X73762Y41453
X82296Y49987
X96520Y54254
X95301Y55880
X127203Y70307
X108915Y70104
X108915Y58318
X127635Y60960
X158115Y58420
X147955Y70485
X147320Y52070
X95936Y19482
X98984Y19558
X68580Y29083
X60833Y7925
X142900Y4724
X132715Y10668
X127229Y6452
X121641Y25679
X91618Y45771
X83769Y47523
X85115Y61595
X96418Y66548
X96291Y84861
X144450Y67234
X143485Y88392
X47777Y19456
X151486Y57328
X160503Y58445
X160477Y44171
X121844Y97841
X127864Y97841
X101244Y98857
X94132Y90932
X84557Y88544
X87274Y99416
X81483Y101244
X93294Y96444
X73152Y99238
X65684Y101143
X51664Y98527
X37516Y98730
X31344Y98908
X26213Y98806
X16967Y99365
X11582Y105410
X25552Y71780
X38862Y72085
X48285Y72009
X66929Y73025
X82194Y72923
X67869Y51740
X67081Y44602
X67335Y38837
X66548Y35916
X80899Y39243
X53721Y37516
X53188Y42799
X38811Y41529
X26924Y43713
X11963Y40716
X2819Y9779
X3200Y15265
X10439Y15977
X25248Y13868
X25578Y19253
X10084Y21539
X34315Y12675
X67005Y14148
X66523Y19025
X82525Y19228
X82448Y10490
X141122Y57302
X138227Y84861
X88189Y35154
X105512Y30988
X108483Y27762
X109880Y22682
X105766Y15494
X115443Y29261
X101727Y51435
X127051Y82169
X119456Y74625
X121412Y74854
X110947Y41961
X114173Y41351
X103175Y68326
X87249Y43586
X75463Y49149
X56566Y75794
X48311Y76276
X62382Y76302
X76175Y76378
X20269Y76352
X1702Y70155
X2692Y56820
X34239Y48463
X54051Y6274
X68478Y6629
X91389Y12319
X143510Y18923
X156312Y19075
X155600Y44577
X155372Y59868
X158293Y72568
X132461Y82829
X136525Y77826
X107163Y61747
X98196Y44679
X96418Y73939
X119304Y45542
X44069Y11862
X43993Y14884
X49200Y28905
X48362Y54407
X131597Y104826
X82017Y95326
X68580Y94107
X55677Y95580
X40615Y94209
X26340Y93777
X10414Y98679
X11532Y65354
X26340Y66040
X40284Y66218
X56794Y67158
X67386Y66980
X78486Y67945
X114046Y75057
X127356Y76708
X141097Y77724
X135534Y63170
X114249Y61620
X121514Y17475
X67183Y23393
X54737Y30328
M30