G04 EAGLE Gerber X2 export*
%TF.Part,Single*%
%TF.FileFunction,Soldermask,Bot,1*%
%TF.FilePolarity,Negative*%
%TF.GenerationSoftware,Autodesk,EAGLE,9.1.1*%
%TF.CreationDate,2018-07-20T09:13:18Z*%
G75*
%MOMM*%
%FSLAX34Y34*%
%LPD*%
%AMOC8*
5,1,8,0,0,1.08239X$1,22.5*%
G01*
%ADD10R,1.203200X1.303200*%
%ADD11R,1.303200X1.203200*%
%ADD12R,2.235200X0.863600*%
%ADD13R,0.863600X2.235200*%
%ADD14R,5.603200X6.403200*%
%ADD15R,1.203200X1.803200*%
%ADD16C,1.727200*%
%ADD17C,1.511200*%
%ADD18C,1.511200*%
%ADD19R,3.603200X6.243200*%
%ADD20R,0.903200X3.203200*%
%ADD21C,1.603200*%
%ADD22R,1.703200X0.603200*%
%ADD23R,1.003200X1.003200*%
%ADD24R,2.006200X1.803200*%
%ADD25P,2.254402X8X112.500000*%
%ADD26R,2.082800X2.082800*%
%ADD27P,3.700908X8X292.500000*%
%ADD28C,2.133600*%
%ADD29C,2.203200*%
%ADD30R,2.003200X1.903200*%
%ADD31P,2.969212X8X22.500000*%
%ADD32P,2.584314X8X22.500000*%
%ADD33C,3.203200*%
%ADD34P,1.649562X8X22.500000*%
%ADD35R,1.903200X2.003200*%
%ADD36C,1.879600*%
%ADD37C,0.959600*%


D10*
X501300Y499400D03*
X501300Y482400D03*
X408700Y138700D03*
X408700Y155700D03*
X1028700Y556800D03*
X1028700Y573800D03*
X1188700Y254900D03*
X1188700Y271900D03*
D11*
X545700Y845900D03*
X562700Y845900D03*
D12*
X981534Y619750D03*
X920066Y619750D03*
X981534Y607050D03*
X981534Y594350D03*
X920066Y607050D03*
X920066Y594350D03*
X981534Y581650D03*
X920066Y581650D03*
X981534Y568950D03*
X920066Y568950D03*
X981534Y556250D03*
X981534Y543550D03*
X920066Y556250D03*
X920066Y543550D03*
X981534Y530850D03*
X920066Y530850D03*
D13*
X487850Y179934D03*
X487850Y118466D03*
X500550Y179934D03*
X513250Y179934D03*
X500550Y118466D03*
X513250Y118466D03*
X525950Y179934D03*
X525950Y118466D03*
X538650Y179934D03*
X538650Y118466D03*
X551350Y179934D03*
X564050Y179934D03*
X551350Y118466D03*
X564050Y118466D03*
X576750Y179934D03*
X576750Y118466D03*
D14*
X971000Y81500D03*
D15*
X948200Y154500D03*
X993800Y154500D03*
D16*
X1387600Y388180D02*
X1387600Y403420D01*
X1362200Y403420D02*
X1362200Y388180D01*
X1336800Y388180D02*
X1336800Y403420D01*
X1311400Y403420D02*
X1311400Y388180D01*
X1286000Y388180D02*
X1286000Y403420D01*
X1260600Y403420D02*
X1260600Y388180D01*
D11*
X1011100Y591300D03*
X1028100Y591300D03*
D17*
X1384900Y336740D02*
X1384900Y323660D01*
X1359500Y323660D02*
X1359500Y336740D01*
X1334100Y336740D02*
X1334100Y323660D01*
X1308700Y323660D02*
X1308700Y336740D01*
X1283300Y336740D02*
X1283300Y323660D01*
X1257900Y323660D02*
X1257900Y336740D01*
X1391060Y304800D02*
X1404140Y304800D01*
X1404140Y279400D02*
X1391060Y279400D01*
X1391060Y254000D02*
X1404140Y254000D01*
X1404140Y228600D02*
X1391060Y228600D01*
X1391060Y203200D02*
X1404140Y203200D01*
X1404140Y177800D02*
X1391060Y177800D01*
X1391060Y152400D02*
X1404140Y152400D01*
X1404140Y127000D02*
X1391060Y127000D01*
X1391060Y101600D02*
X1404140Y101600D01*
X1404140Y76200D02*
X1391060Y76200D01*
X1391060Y50800D02*
X1404140Y50800D01*
X1404140Y25400D02*
X1391060Y25400D01*
X1251740Y304800D02*
X1238660Y304800D01*
X1238660Y279400D02*
X1251740Y279400D01*
X1251740Y254000D02*
X1238660Y254000D01*
X1238660Y228600D02*
X1251740Y228600D01*
X1251740Y203200D02*
X1238660Y203200D01*
X1238660Y177800D02*
X1251740Y177800D01*
X1251740Y152400D02*
X1238660Y152400D01*
X1238660Y127000D02*
X1251740Y127000D01*
X1251740Y101600D02*
X1238660Y101600D01*
X1238660Y76200D02*
X1251740Y76200D01*
X1251740Y50800D02*
X1238660Y50800D01*
X1238660Y25400D02*
X1251740Y25400D01*
X1283300Y31940D02*
X1283300Y18860D01*
X1308700Y18860D02*
X1308700Y31940D01*
X1334100Y31940D02*
X1334100Y18860D01*
D18*
X1283300Y215900D03*
X1283300Y190500D03*
D19*
X450900Y1006000D03*
X586900Y1006000D03*
D20*
X500150Y941800D03*
X512650Y941800D03*
X525150Y941800D03*
X537650Y941800D03*
D21*
X496400Y1011800D03*
X541400Y1011800D03*
D22*
X634850Y538650D03*
X634850Y532150D03*
X634850Y525650D03*
X634850Y519150D03*
X634850Y512650D03*
X634850Y506150D03*
X634850Y499650D03*
X634850Y493150D03*
X634850Y486650D03*
X634850Y480150D03*
X634850Y473650D03*
X634850Y467150D03*
X634850Y460650D03*
X634850Y454150D03*
X562350Y454150D03*
X562350Y460650D03*
X562350Y467150D03*
X562350Y473650D03*
X562350Y480150D03*
X562350Y486650D03*
X562350Y493150D03*
X562350Y499650D03*
X562350Y506150D03*
X562350Y512650D03*
X562350Y519150D03*
X562350Y525650D03*
X562350Y532150D03*
X562350Y538650D03*
D23*
X483500Y607900D03*
X468500Y607900D03*
X483500Y578700D03*
X468500Y578700D03*
D10*
X467300Y474200D03*
X467300Y457200D03*
X482900Y499400D03*
X482900Y482400D03*
D11*
X430200Y608300D03*
X447200Y608300D03*
X430200Y576400D03*
X447200Y576400D03*
D24*
X540900Y901020D03*
X540900Y872580D03*
D11*
X581800Y565600D03*
X598800Y565600D03*
D25*
X1257300Y459200D03*
X1282700Y459200D03*
X1257300Y484600D03*
X1282700Y484600D03*
X1257300Y510000D03*
X1282700Y510000D03*
X1257300Y535400D03*
X1282700Y535400D03*
X1257300Y560800D03*
X1282700Y560800D03*
D26*
X1337860Y590960D03*
X1362860Y590960D03*
X1387860Y590960D03*
D27*
X1318860Y523960D03*
X1406860Y523960D03*
D26*
X1337860Y740960D03*
X1362860Y740960D03*
X1387860Y740960D03*
D27*
X1318860Y673960D03*
X1406860Y673960D03*
D28*
X1702860Y169035D03*
X1702860Y251585D03*
X1702860Y143635D03*
D29*
X1702860Y203960D03*
D28*
X1702860Y98885D03*
X1702860Y16335D03*
X1702860Y124285D03*
D29*
X1702860Y63960D03*
D11*
X1744700Y248000D03*
X1727700Y248000D03*
X1744700Y17500D03*
X1727700Y17500D03*
D30*
X1644300Y240200D03*
X1603300Y240200D03*
X1644300Y101300D03*
X1603300Y101300D03*
D31*
X1702860Y450160D03*
X1702860Y533160D03*
D32*
X1702860Y418960D03*
D33*
X1702860Y483960D03*
D31*
X1702860Y310160D03*
X1702860Y393160D03*
D32*
X1702860Y278960D03*
D33*
X1702860Y343960D03*
D11*
X1744700Y537900D03*
X1727700Y537900D03*
X1744700Y385500D03*
X1727700Y385500D03*
D30*
X1644300Y530900D03*
X1603300Y530900D03*
X1644300Y388200D03*
X1603300Y388200D03*
D31*
X1702860Y730160D03*
X1702860Y813160D03*
D32*
X1702860Y698960D03*
D33*
X1702860Y763960D03*
D31*
X1702860Y590160D03*
X1702860Y673160D03*
D32*
X1702860Y558960D03*
D33*
X1702860Y623960D03*
D11*
X1744700Y812100D03*
X1727700Y812100D03*
X1744700Y672400D03*
X1727700Y672400D03*
D30*
X1644300Y805100D03*
X1603300Y805100D03*
X1644300Y662400D03*
X1603300Y662400D03*
D31*
X1702860Y1010160D03*
X1702860Y1093160D03*
D32*
X1702860Y978960D03*
D33*
X1702860Y1043960D03*
D31*
X1702860Y870160D03*
X1702860Y953160D03*
D32*
X1702860Y838960D03*
D33*
X1702860Y903960D03*
D11*
X1663438Y1093022D03*
X1680438Y1093022D03*
X1744700Y949900D03*
X1727700Y949900D03*
D30*
X1644300Y1081500D03*
X1603300Y1081500D03*
X1644300Y941800D03*
X1603300Y941800D03*
D11*
X1727700Y44100D03*
X1744700Y44100D03*
X1727700Y223800D03*
X1744700Y223800D03*
X1727700Y365400D03*
X1744700Y365400D03*
X1727700Y519700D03*
X1744700Y519700D03*
X1727700Y648600D03*
X1744700Y648600D03*
X1727700Y790200D03*
X1744700Y790200D03*
X1727700Y931800D03*
X1744700Y931800D03*
X1727954Y1089656D03*
X1744954Y1089656D03*
D13*
X1572550Y817066D03*
X1572550Y878534D03*
X1559850Y817066D03*
X1547150Y817066D03*
X1559850Y878534D03*
X1547150Y878534D03*
X1534450Y817066D03*
X1534450Y878534D03*
X1521750Y817066D03*
X1521750Y878534D03*
X1509050Y817066D03*
X1496350Y817066D03*
X1509050Y878534D03*
X1496350Y878534D03*
X1483650Y817066D03*
X1483650Y878534D03*
D12*
X1126666Y510250D03*
X1188134Y510250D03*
X1126666Y522950D03*
X1126666Y535650D03*
X1188134Y522950D03*
X1188134Y535650D03*
X1126666Y548350D03*
X1188134Y548350D03*
X1126666Y561050D03*
X1188134Y561050D03*
X1126666Y573750D03*
X1126666Y586450D03*
X1188134Y573750D03*
X1188134Y586450D03*
X1126666Y599150D03*
X1188134Y599150D03*
D34*
X1605160Y623960D03*
X1630560Y623960D03*
X1605160Y763960D03*
X1630560Y763960D03*
X1605160Y903960D03*
X1630560Y903960D03*
X1605160Y1043960D03*
X1630560Y1043960D03*
X1605160Y483960D03*
X1630560Y483960D03*
X1605160Y343960D03*
X1630560Y343960D03*
X1605160Y203960D03*
X1630560Y203960D03*
X1605160Y63960D03*
X1630560Y63960D03*
D11*
X1635700Y26100D03*
X1652700Y26100D03*
X1635700Y167700D03*
X1652700Y167700D03*
X1635700Y309300D03*
X1652700Y309300D03*
X1635700Y450900D03*
X1652700Y450900D03*
X1635700Y592500D03*
X1652700Y592500D03*
X1635700Y721400D03*
X1652700Y721400D03*
X1635700Y863000D03*
X1652700Y863000D03*
X1635700Y1004600D03*
X1652700Y1004600D03*
D28*
X1532840Y98885D03*
X1532840Y16335D03*
X1532840Y124285D03*
D29*
X1532840Y63960D03*
D11*
X1489000Y17400D03*
X1506000Y17400D03*
D35*
X1473300Y82400D03*
X1473300Y41400D03*
D28*
X1532840Y169035D03*
X1532840Y251585D03*
X1532840Y143635D03*
D29*
X1532840Y203960D03*
D31*
X1532840Y310160D03*
X1532840Y393160D03*
D32*
X1532840Y278960D03*
D33*
X1532840Y343960D03*
D11*
X1575500Y249300D03*
X1558500Y249300D03*
X1577400Y389000D03*
X1560400Y389000D03*
D30*
X1606700Y279300D03*
X1565700Y279300D03*
X1561800Y419200D03*
X1602800Y419200D03*
D31*
X1532840Y589860D03*
X1532840Y672860D03*
D32*
X1532840Y558660D03*
D33*
X1532840Y623660D03*
D31*
X1532840Y450460D03*
X1532840Y533460D03*
D32*
X1532840Y419260D03*
D33*
X1532840Y484260D03*
D11*
X1579300Y668400D03*
X1562300Y668400D03*
X1581200Y528700D03*
X1564200Y528700D03*
D30*
X1607000Y698400D03*
X1566000Y698400D03*
X1568900Y558100D03*
X1609900Y558100D03*
D11*
X1558500Y232500D03*
X1575500Y232500D03*
X1562300Y651600D03*
X1579300Y651600D03*
D13*
X1357750Y800666D03*
X1357750Y862134D03*
X1345050Y800666D03*
X1332350Y800666D03*
X1345050Y862134D03*
X1332350Y862134D03*
X1319650Y800666D03*
X1319650Y862134D03*
X1306950Y800666D03*
X1306950Y862134D03*
X1294250Y800666D03*
X1281550Y800666D03*
X1294250Y862134D03*
X1281550Y862134D03*
X1268850Y800666D03*
X1268850Y862134D03*
D34*
X1520140Y723960D03*
X1545540Y723960D03*
D11*
X1546000Y781600D03*
X1529000Y781600D03*
D36*
X1407860Y898960D03*
X1432860Y898960D03*
X1457860Y898960D03*
X1407860Y1043960D03*
X1457860Y1043960D03*
D11*
X1380100Y1054100D03*
X1363100Y1054100D03*
D37*
X1343152Y906272D03*
X1422400Y853440D03*
X737616Y414528D03*
X822960Y499872D03*
X965200Y542544D03*
X953008Y558800D03*
X1272032Y703072D03*
X1089152Y701040D03*
X1089152Y583184D03*
X1276350Y609600D03*
X1581150Y584200D03*
X1479550Y704850D03*
X1473200Y520700D03*
X959358Y194818D03*
X989838Y195580D03*
X685800Y290830D03*
X608330Y79248D03*
X1429004Y47244D03*
X1327150Y106680D03*
X1272286Y64516D03*
X1216406Y256794D03*
X916178Y457708D03*
X837692Y475234D03*
X851154Y615950D03*
X964184Y665480D03*
X962914Y848614D03*
X1444498Y672338D03*
X1434846Y883920D03*
X477774Y194564D03*
X1514856Y573278D03*
X1605026Y584454D03*
X1604772Y441706D03*
X1218438Y978408D03*
X1278636Y978408D03*
X1012444Y988568D03*
X941324Y909320D03*
X845566Y885444D03*
X872744Y994156D03*
X814832Y1012444D03*
X932942Y964438D03*
X731520Y992378D03*
X656844Y1011428D03*
X516636Y985266D03*
X375158Y987298D03*
X313436Y989076D03*
X262128Y988060D03*
X169672Y993648D03*
X115824Y1054100D03*
X255524Y717804D03*
X388620Y720852D03*
X482854Y720090D03*
X669290Y730250D03*
X821944Y729234D03*
X678688Y517398D03*
X670814Y446024D03*
X673354Y388366D03*
X665480Y359156D03*
X808990Y392430D03*
X537210Y375158D03*
X531876Y427990D03*
X388112Y415290D03*
X399542Y459994D03*
X269240Y437134D03*
X119634Y407162D03*
X28194Y97790D03*
X32004Y152654D03*
X104394Y159766D03*
X252476Y138684D03*
X255778Y192532D03*
X100838Y215392D03*
X343154Y126746D03*
X670052Y141478D03*
X665226Y190246D03*
X825246Y192278D03*
X824484Y104902D03*
X1411224Y573024D03*
X1382268Y848614D03*
X1055116Y309880D03*
X1084834Y277622D03*
X1098804Y226822D03*
X1057656Y154940D03*
X1154430Y292608D03*
X1017270Y514350D03*
X1270508Y821690D03*
X1194562Y746252D03*
X1214120Y748538D03*
X1109472Y419608D03*
X1141730Y413512D03*
X1031748Y683260D03*
X872490Y435864D03*
X754634Y491490D03*
X565658Y757936D03*
X483108Y762762D03*
X623824Y763016D03*
X761746Y763778D03*
X202692Y763524D03*
X17018Y701548D03*
X26924Y568198D03*
X342392Y484632D03*
X540512Y62738D03*
X684784Y66294D03*
X913892Y123190D03*
X1435100Y189230D03*
X1563116Y190754D03*
X1556004Y445770D03*
X1553718Y598678D03*
X1582928Y725678D03*
X1324610Y828294D03*
X1365250Y778256D03*
X1071626Y617474D03*
X981964Y446786D03*
X964184Y739394D03*
X1193038Y455422D03*
X440690Y118618D03*
X439928Y148844D03*
X491998Y289052D03*
X483616Y544068D03*
X1315974Y1048258D03*
X820166Y953262D03*
X685800Y941070D03*
X556768Y955802D03*
X406146Y942086D03*
X263398Y937768D03*
X104140Y986790D03*
X115316Y653542D03*
X263398Y660400D03*
X402844Y662178D03*
X567944Y671576D03*
X673862Y669798D03*
X784860Y679450D03*
X1140460Y750570D03*
X1273556Y767080D03*
X1410970Y777240D03*
X1355344Y631698D03*
X1142492Y616204D03*
X1215136Y174752D03*
X671830Y233934D03*
X547370Y303276D03*
X397256Y514604D03*
X117094Y513334D03*
X754634Y446532D03*
X1078230Y426974D03*
X1080516Y322072D03*
X1112012Y243586D03*
X1231646Y340106D03*
X1133602Y343408D03*
X1202944Y310388D03*
X1155700Y373126D03*
X1184148Y286004D03*
X1109218Y567690D03*
X1121156Y631698D03*
X1138936Y679450D03*
X1150112Y659130D03*
X1137158Y828802D03*
X1173734Y992378D03*
X1493012Y789178D03*
X1390396Y885698D03*
X762254Y710946D03*
X550926Y579882D03*
X28194Y338074D03*
X869442Y104902D03*
X432054Y189484D03*
X779018Y470662D03*
X1306830Y549656D03*
X528574Y505968D03*
X544322Y475996D03*
X539750Y532892D03*
X607568Y491744D03*
X195580Y204216D03*
X1448816Y861568D03*
X1568704Y861568D03*
X477520Y117856D03*
X593344Y117856D03*
X1066800Y184912D03*
X1119632Y384048D03*
X953008Y619760D03*
X1089152Y560832D03*
X1119632Y461264D03*
X1357376Y843280D03*
X1272032Y713232D03*
X1038352Y636016D03*
X1434592Y239776D03*
X617728Y508000D03*
X539750Y486918D03*
X1174496Y268224D03*
X1170432Y209296D03*
X1148080Y449072D03*
X1109472Y591312D03*
X1135888Y660400D03*
X1150112Y845312D03*
X1150112Y762762D03*
X1160272Y965200D03*
X1156208Y898144D03*
X1298448Y942848D03*
X1148080Y528320D03*
X1170432Y418592D03*
X471424Y58928D03*
X469392Y69088D03*
X178816Y965200D03*
X178816Y900176D03*
X180848Y217424D03*
X180848Y302768D03*
X180848Y410464D03*
X180848Y544576D03*
X176784Y56896D03*
X420624Y132080D03*
X321056Y75184D03*
X369824Y123952D03*
X321056Y264160D03*
X321056Y776224D03*
X321056Y861568D03*
X321056Y965200D03*
X319024Y619760D03*
X459232Y965200D03*
X459232Y900176D03*
X510032Y152400D03*
X489712Y62992D03*
X459232Y264160D03*
X459232Y211328D03*
X459232Y404368D03*
X457200Y514096D03*
X599440Y629920D03*
X587248Y729488D03*
X599440Y965200D03*
X493776Y195072D03*
X481584Y42672D03*
X599440Y404368D03*
X595376Y337312D03*
X621792Y526288D03*
X739648Y965200D03*
X739648Y900176D03*
X540512Y213360D03*
X564896Y213360D03*
X727456Y197104D03*
X741680Y65024D03*
X741680Y156464D03*
X739648Y264160D03*
X737616Y404368D03*
X739648Y619760D03*
X881888Y965200D03*
X881888Y902208D03*
X894080Y615696D03*
X867664Y30480D03*
X879856Y123952D03*
X879856Y65024D03*
X881888Y404368D03*
X881888Y351536D03*
X532384Y164592D03*
X609600Y164592D03*
X926592Y164592D03*
X859536Y65024D03*
X1032256Y731520D03*
X1097280Y731520D03*
X1022096Y965200D03*
X1030224Y477520D03*
X1052576Y477520D03*
X983488Y284480D03*
X936752Y583184D03*
X883920Y621792D03*
X786384Y1048512D03*
X1032256Y1064768D03*
X936752Y595376D03*
X877824Y629920D03*
X794512Y916432D03*
X1064768Y950976D03*
X908304Y768096D03*
X1040384Y784352D03*
X912368Y633984D03*
X1018032Y642112D03*
X938784Y520192D03*
X1050544Y495808D03*
X963168Y495808D03*
X774192Y516128D03*
X579120Y447040D03*
X617728Y469392D03*
X953008Y394208D03*
X1052576Y379984D03*
X1005840Y607568D03*
X1022096Y544576D03*
X1099312Y377952D03*
X983488Y227584D03*
X1052576Y233680D03*
X800608Y221488D03*
X904240Y221488D03*
X570992Y205232D03*
X997712Y581152D03*
X997712Y548640D03*
X1109472Y363728D03*
X1046480Y97536D03*
X1003808Y97536D03*
X1239520Y833120D03*
X1282192Y845312D03*
X1231392Y579120D03*
X1353312Y896112D03*
X1335024Y877824D03*
X1233424Y508000D03*
X1060704Y465328D03*
X1105408Y510032D03*
X1306576Y885952D03*
X1263904Y591312D03*
X1298448Y898144D03*
X1420368Y906272D03*
X814832Y672592D03*
X916432Y692912D03*
X1054608Y692912D03*
X1081024Y692912D03*
X1304544Y304800D03*
X1272032Y597408D03*
X1018032Y156464D03*
X213360Y672592D03*
X213360Y493776D03*
X213360Y950976D03*
X213360Y213360D03*
X930656Y292608D03*
X1018032Y292608D03*
X1152906Y340868D03*
X581152Y554736D03*
X516128Y619760D03*
X1735328Y28448D03*
X1647952Y87376D03*
X1733296Y396240D03*
X1658112Y375920D03*
X1534160Y749808D03*
X1560576Y792480D03*
X1556512Y713232D03*
X1473200Y762000D03*
X1548384Y800608D03*
X1375664Y810768D03*
X1249680Y575056D03*
X1249680Y776224D03*
X1249680Y833120D03*
X1207008Y540512D03*
X1204976Y528320D03*
X1204976Y566928D03*
X1139952Y475488D03*
X1135888Y455168D03*
X1166368Y440944D03*
X1217168Y434848D03*
X1139952Y465328D03*
X1182624Y398272D03*
X1196848Y237744D03*
X1158240Y546608D03*
X1170432Y501904D03*
X1174496Y473456D03*
X1166368Y402336D03*
X1176528Y225552D03*
X1550416Y699008D03*
X1564640Y308864D03*
X1465072Y843280D03*
X1534160Y770128D03*
X1578864Y640080D03*
X1314704Y845312D03*
X1343152Y896112D03*
X1465072Y853440D03*
X1543304Y236728D03*
M02*
