G04 EAGLE Gerber RS-274X export*
G75*
%MOMM*%
%FSLAX34Y34*%
%LPD*%
%IN*%
%IPPOS*%
%AMOC8*
5,1,8,0,0,1.08239X$1,22.5*%
G01*
%ADD10C,0.254000*%


D10*
X0Y0D02*
X1739700Y0D01*
X1739700Y1114300D01*
X0Y1114300D01*
X0Y0D01*
X803344Y1009000D02*
X804028Y1009067D01*
X804703Y1009202D01*
X805361Y1009401D01*
X805997Y1009664D01*
X806603Y1009989D01*
X807175Y1010371D01*
X807707Y1010807D01*
X808193Y1011293D01*
X808629Y1011825D01*
X809011Y1012397D01*
X809336Y1013004D01*
X809599Y1013639D01*
X809798Y1014297D01*
X809933Y1014972D01*
X810000Y1015656D01*
X810000Y1016344D01*
X809933Y1017028D01*
X809798Y1017703D01*
X809599Y1018361D01*
X809336Y1018997D01*
X809011Y1019603D01*
X808629Y1020175D01*
X808193Y1020707D01*
X807707Y1021193D01*
X807175Y1021629D01*
X806603Y1022011D01*
X805997Y1022336D01*
X805361Y1022599D01*
X804703Y1022798D01*
X804028Y1022933D01*
X803344Y1023000D01*
X802656Y1023000D01*
X801972Y1022933D01*
X801297Y1022798D01*
X800639Y1022599D01*
X800004Y1022336D01*
X799397Y1022011D01*
X798825Y1021629D01*
X798293Y1021193D01*
X797807Y1020707D01*
X797371Y1020175D01*
X796989Y1019603D01*
X796664Y1018997D01*
X796401Y1018361D01*
X796202Y1017703D01*
X796067Y1017028D01*
X796000Y1016344D01*
X796000Y1015656D01*
X796067Y1014972D01*
X796202Y1014297D01*
X796401Y1013639D01*
X796664Y1013004D01*
X796989Y1012397D01*
X797371Y1011825D01*
X797807Y1011293D01*
X798293Y1010807D01*
X798825Y1010371D01*
X799397Y1009989D01*
X800004Y1009664D01*
X800639Y1009401D01*
X801297Y1009202D01*
X801972Y1009067D01*
X802656Y1009000D01*
X803344Y1009000D01*
X848344Y1009000D02*
X849028Y1009067D01*
X849703Y1009202D01*
X850361Y1009401D01*
X850997Y1009664D01*
X851603Y1009989D01*
X852175Y1010371D01*
X852707Y1010807D01*
X853193Y1011293D01*
X853629Y1011825D01*
X854011Y1012397D01*
X854336Y1013004D01*
X854599Y1013639D01*
X854798Y1014297D01*
X854933Y1014972D01*
X855000Y1015656D01*
X855000Y1016344D01*
X854933Y1017028D01*
X854798Y1017703D01*
X854599Y1018361D01*
X854336Y1018997D01*
X854011Y1019603D01*
X853629Y1020175D01*
X853193Y1020707D01*
X852707Y1021193D01*
X852175Y1021629D01*
X851603Y1022011D01*
X850997Y1022336D01*
X850361Y1022599D01*
X849703Y1022798D01*
X849028Y1022933D01*
X848344Y1023000D01*
X847656Y1023000D01*
X846972Y1022933D01*
X846297Y1022798D01*
X845639Y1022599D01*
X845004Y1022336D01*
X844397Y1022011D01*
X843825Y1021629D01*
X843293Y1021193D01*
X842807Y1020707D01*
X842371Y1020175D01*
X841989Y1019603D01*
X841664Y1018997D01*
X841401Y1018361D01*
X841202Y1017703D01*
X841067Y1017028D01*
X841000Y1016344D01*
X841000Y1015656D01*
X841067Y1014972D01*
X841202Y1014297D01*
X841401Y1013639D01*
X841664Y1013004D01*
X841989Y1012397D01*
X842371Y1011825D01*
X842807Y1011293D01*
X843293Y1010807D01*
X843825Y1010371D01*
X844397Y1009989D01*
X845004Y1009664D01*
X845639Y1009401D01*
X846297Y1009202D01*
X846972Y1009067D01*
X847656Y1009000D01*
X848344Y1009000D01*
M02*
