G04 EAGLE Gerber RS-274X export*
G75*
%MOMM*%
%FSLAX34Y34*%
%LPD*%
%INSolderpaste Bottom*%
%IPPOS*%
%AMOC8*
5,1,8,0,0,1.08239X$1,22.5*%
G01*
%ADD10R,1.300000X1.300000*%
%ADD11R,2.000000X1.300000*%
%ADD12R,1.100000X1.000000*%
%ADD13R,1.000000X1.100000*%
%ADD14R,1.200000X0.700000*%
%ADD15R,2.032000X0.660400*%
%ADD16R,0.700000X1.000000*%
%ADD17R,0.660400X2.032000*%
%ADD18R,1.500000X0.400000*%
%ADD19R,0.800000X0.800000*%
%ADD20R,0.900000X0.350000*%
%ADD21R,2.000000X2.000000*%
%ADD22R,1.803000X1.600000*%
%ADD23R,3.400000X6.040000*%
%ADD24R,0.700000X3.000000*%
%ADD25R,1.600000X1.803000*%


D10*
X202000Y251900D03*
X179000Y251900D03*
D11*
X190500Y306900D03*
D12*
X414900Y597500D03*
X397900Y597500D03*
X1286900Y532800D03*
X1303900Y532800D03*
D13*
X483200Y105800D03*
X483200Y122800D03*
D12*
X1210700Y901100D03*
X1227700Y901100D03*
X880500Y253400D03*
X897500Y253400D03*
D13*
X813400Y867800D03*
X813400Y884800D03*
X661000Y778900D03*
X661000Y795900D03*
X737200Y931300D03*
X737200Y948300D03*
X635600Y778900D03*
X635600Y795900D03*
X318100Y461400D03*
X318100Y478400D03*
X534000Y474100D03*
X534000Y491100D03*
D12*
X880500Y393100D03*
X897500Y393100D03*
X1083700Y393100D03*
X1100700Y393100D03*
X1083700Y253400D03*
X1100700Y253400D03*
X1286900Y253400D03*
X1303900Y253400D03*
X1286900Y393100D03*
X1303900Y393100D03*
X880500Y532800D03*
X897500Y532800D03*
X1083700Y532800D03*
X1100700Y532800D03*
D14*
X870500Y558200D03*
X907500Y558200D03*
D15*
X858266Y425450D03*
X919734Y425450D03*
X858266Y438150D03*
X858266Y450850D03*
X919734Y438150D03*
X919734Y450850D03*
X858266Y463550D03*
X919734Y463550D03*
X858266Y476250D03*
X919734Y476250D03*
X858266Y488950D03*
X858266Y501650D03*
X919734Y488950D03*
X919734Y501650D03*
X858266Y514350D03*
X919734Y514350D03*
D16*
X495300Y493600D03*
X485800Y471600D03*
X504800Y471600D03*
D17*
X603250Y83566D03*
X603250Y145034D03*
X590550Y83566D03*
X577850Y83566D03*
X590550Y145034D03*
X577850Y145034D03*
X565150Y83566D03*
X565150Y145034D03*
X552450Y83566D03*
X552450Y145034D03*
X539750Y83566D03*
X527050Y83566D03*
X539750Y145034D03*
X527050Y145034D03*
X514350Y83566D03*
X514350Y145034D03*
D15*
X858266Y285750D03*
X919734Y285750D03*
X858266Y298450D03*
X858266Y311150D03*
X919734Y298450D03*
X919734Y311150D03*
X858266Y323850D03*
X919734Y323850D03*
X858266Y336550D03*
X919734Y336550D03*
X858266Y349250D03*
X858266Y361950D03*
X919734Y349250D03*
X919734Y361950D03*
X858266Y374650D03*
X919734Y374650D03*
X1264666Y425450D03*
X1326134Y425450D03*
X1264666Y438150D03*
X1264666Y450850D03*
X1326134Y438150D03*
X1326134Y450850D03*
X1264666Y463550D03*
X1326134Y463550D03*
X1264666Y476250D03*
X1326134Y476250D03*
X1264666Y488950D03*
X1264666Y501650D03*
X1326134Y488950D03*
X1326134Y501650D03*
X1264666Y514350D03*
X1326134Y514350D03*
X1264666Y285750D03*
X1326134Y285750D03*
X1264666Y298450D03*
X1264666Y311150D03*
X1326134Y298450D03*
X1326134Y311150D03*
X1264666Y323850D03*
X1326134Y323850D03*
X1264666Y336550D03*
X1326134Y336550D03*
X1264666Y349250D03*
X1264666Y361950D03*
X1326134Y349250D03*
X1326134Y361950D03*
X1264666Y374650D03*
X1326134Y374650D03*
X1061466Y425450D03*
X1122934Y425450D03*
X1061466Y438150D03*
X1061466Y450850D03*
X1122934Y438150D03*
X1122934Y450850D03*
X1061466Y463550D03*
X1122934Y463550D03*
X1061466Y476250D03*
X1122934Y476250D03*
X1061466Y488950D03*
X1061466Y501650D03*
X1122934Y488950D03*
X1122934Y501650D03*
X1061466Y514350D03*
X1122934Y514350D03*
X1061466Y285750D03*
X1122934Y285750D03*
X1061466Y298450D03*
X1061466Y311150D03*
X1122934Y298450D03*
X1122934Y311150D03*
X1061466Y323850D03*
X1122934Y323850D03*
X1061466Y336550D03*
X1122934Y336550D03*
X1061466Y349250D03*
X1061466Y361950D03*
X1122934Y349250D03*
X1122934Y361950D03*
X1061466Y374650D03*
X1122934Y374650D03*
D18*
X662250Y821350D03*
X662250Y827850D03*
X662250Y834350D03*
X662250Y840850D03*
X662250Y847350D03*
X662250Y853850D03*
X662250Y860350D03*
X662250Y866850D03*
X662250Y873350D03*
X662250Y879850D03*
X662250Y886350D03*
X662250Y892850D03*
X662250Y899350D03*
X662250Y905850D03*
X734750Y905850D03*
X734750Y899350D03*
X734750Y892850D03*
X734750Y886350D03*
X734750Y879850D03*
X734750Y873350D03*
X734750Y866850D03*
X734750Y860350D03*
X734750Y853850D03*
X734750Y847350D03*
X734750Y840850D03*
X734750Y834350D03*
X734750Y827850D03*
X734750Y821350D03*
D16*
X241300Y506300D03*
X231800Y484300D03*
X250800Y484300D03*
D13*
X635600Y105800D03*
X635600Y122800D03*
X697900Y1037200D03*
X697900Y1020200D03*
X672500Y1037200D03*
X672500Y1020200D03*
X610200Y778900D03*
X610200Y795900D03*
D12*
X280000Y436000D03*
X280000Y453000D03*
X241900Y436000D03*
X241900Y453000D03*
X534000Y436000D03*
X534000Y453000D03*
D13*
X788000Y309000D03*
X788000Y326000D03*
D12*
X280000Y486800D03*
X280000Y503800D03*
D13*
X1485300Y592700D03*
X1485300Y575700D03*
X1486500Y732400D03*
X1486500Y715400D03*
X1486500Y872100D03*
X1486500Y855100D03*
X1486500Y1011800D03*
X1486500Y994800D03*
X1486500Y453000D03*
X1486500Y436000D03*
X1486500Y313300D03*
X1486500Y296300D03*
X1486500Y173600D03*
X1486500Y156600D03*
X1486500Y33900D03*
X1486500Y16900D03*
D19*
X678300Y990600D03*
X693300Y990600D03*
D10*
X125800Y251900D03*
X102800Y251900D03*
D11*
X114300Y306900D03*
D19*
X678300Y965200D03*
X693300Y965200D03*
D15*
X375666Y641350D03*
X437134Y641350D03*
X375666Y654050D03*
X375666Y666750D03*
X437134Y654050D03*
X437134Y666750D03*
X375666Y679450D03*
X437134Y679450D03*
D20*
X1063450Y561450D03*
X1063450Y567950D03*
X1063450Y574450D03*
X1063450Y580950D03*
X1063450Y587450D03*
X1063450Y593950D03*
X1063450Y600450D03*
X1063450Y606950D03*
X1120950Y606950D03*
X1120950Y600450D03*
X1120950Y593950D03*
X1120950Y587450D03*
X1120950Y580950D03*
X1120950Y574450D03*
X1120950Y567950D03*
X1120950Y561450D03*
D21*
X1154900Y57000D03*
X1154900Y207000D03*
X1054900Y207000D03*
X1054900Y57000D03*
X1002500Y57000D03*
X1002500Y207000D03*
X902500Y207000D03*
X902500Y57000D03*
D22*
X863000Y904720D03*
X863000Y876280D03*
D10*
X278200Y251900D03*
X255200Y251900D03*
D11*
X266700Y306900D03*
D10*
X354400Y251900D03*
X331400Y251900D03*
D11*
X342900Y306900D03*
D23*
X757500Y1010200D03*
X893500Y1010200D03*
D24*
X806750Y946000D03*
X819250Y946000D03*
X831750Y946000D03*
X844250Y946000D03*
D25*
X1233420Y215900D03*
X1204980Y215900D03*
M02*
