G04 EAGLE Gerber RS-274X export*
G75*
%MOMM*%
%FSLAX34Y34*%
%LPD*%
%INSoldermask Top*%
%IPPOS*%
%AMOC8*
5,1,8,0,0,1.08239X$1,22.5*%
G01*
%ADD10R,1.203200X1.303200*%
%ADD11C,1.853200*%
%ADD12R,1.053200X1.203200*%
%ADD13P,1.649562X8X22.500000*%
%ADD14R,2.503200X1.803200*%
%ADD15C,1.727200*%
%ADD16C,3.505200*%
%ADD17C,1.511200*%
%ADD18C,1.511200*%
%ADD19P,2.254402X8X112.500000*%
%ADD20C,1.603200*%


D10*
X105070Y994630D03*
X105070Y1011630D03*
X1085070Y994630D03*
X1085070Y1011630D03*
X105070Y714630D03*
X105070Y731630D03*
X1085070Y714630D03*
X1085070Y731630D03*
X105070Y434630D03*
X105070Y451630D03*
X1085070Y434630D03*
X1085070Y451630D03*
X1085070Y154630D03*
X1085070Y171630D03*
X105070Y154630D03*
X105070Y171630D03*
X1199670Y269230D03*
X1199670Y286230D03*
X1199670Y969230D03*
X1199670Y986230D03*
D11*
X1392840Y433960D03*
X1392840Y518960D03*
X1392840Y548960D03*
X1392840Y293960D03*
X1392840Y378960D03*
X1392840Y408960D03*
D12*
G36*
X17038Y1074920D02*
X24485Y1067473D01*
X15978Y1058966D01*
X8531Y1066413D01*
X17038Y1074920D01*
G37*
G36*
X41787Y1099669D02*
X49234Y1092222D01*
X40727Y1083715D01*
X33280Y1091162D01*
X41787Y1099669D01*
G37*
G36*
X29413Y1062545D02*
X36860Y1055098D01*
X28353Y1046591D01*
X20906Y1054038D01*
X29413Y1062545D01*
G37*
G36*
X54162Y1087294D02*
X61609Y1079847D01*
X53102Y1071340D01*
X45655Y1078787D01*
X54162Y1087294D01*
G37*
G36*
X893102Y931340D02*
X885655Y938787D01*
X894162Y947294D01*
X901609Y939847D01*
X893102Y931340D01*
G37*
G36*
X868353Y906591D02*
X860906Y914038D01*
X869413Y922545D01*
X876860Y915098D01*
X868353Y906591D01*
G37*
G36*
X880727Y943715D02*
X873280Y951162D01*
X881787Y959669D01*
X889234Y952222D01*
X880727Y943715D01*
G37*
G36*
X855978Y918966D02*
X848531Y926413D01*
X857038Y934920D01*
X864485Y927473D01*
X855978Y918966D01*
G37*
G36*
X753102Y931340D02*
X745655Y938787D01*
X754162Y947294D01*
X761609Y939847D01*
X753102Y931340D01*
G37*
G36*
X728353Y906591D02*
X720906Y914038D01*
X729413Y922545D01*
X736860Y915098D01*
X728353Y906591D01*
G37*
G36*
X740727Y943715D02*
X733280Y951162D01*
X741787Y959669D01*
X749234Y952222D01*
X740727Y943715D01*
G37*
G36*
X715978Y918966D02*
X708531Y926413D01*
X717038Y934920D01*
X724485Y927473D01*
X715978Y918966D01*
G37*
G36*
X613102Y931340D02*
X605655Y938787D01*
X614162Y947294D01*
X621609Y939847D01*
X613102Y931340D01*
G37*
G36*
X588353Y906591D02*
X580906Y914038D01*
X589413Y922545D01*
X596860Y915098D01*
X588353Y906591D01*
G37*
G36*
X600727Y943715D02*
X593280Y951162D01*
X601787Y959669D01*
X609234Y952222D01*
X600727Y943715D01*
G37*
G36*
X575978Y918966D02*
X568531Y926413D01*
X577038Y934920D01*
X584485Y927473D01*
X575978Y918966D01*
G37*
G36*
X473102Y931340D02*
X465655Y938787D01*
X474162Y947294D01*
X481609Y939847D01*
X473102Y931340D01*
G37*
G36*
X448353Y906591D02*
X440906Y914038D01*
X449413Y922545D01*
X456860Y915098D01*
X448353Y906591D01*
G37*
G36*
X460727Y943715D02*
X453280Y951162D01*
X461787Y959669D01*
X469234Y952222D01*
X460727Y943715D01*
G37*
G36*
X435978Y918966D02*
X428531Y926413D01*
X437038Y934920D01*
X444485Y927473D01*
X435978Y918966D01*
G37*
G36*
X333102Y931340D02*
X325655Y938787D01*
X334162Y947294D01*
X341609Y939847D01*
X333102Y931340D01*
G37*
G36*
X308353Y906591D02*
X300906Y914038D01*
X309413Y922545D01*
X316860Y915098D01*
X308353Y906591D01*
G37*
G36*
X320727Y943715D02*
X313280Y951162D01*
X321787Y959669D01*
X329234Y952222D01*
X320727Y943715D01*
G37*
G36*
X295978Y918966D02*
X288531Y926413D01*
X297038Y934920D01*
X304485Y927473D01*
X295978Y918966D01*
G37*
G36*
X193102Y931340D02*
X185655Y938787D01*
X194162Y947294D01*
X201609Y939847D01*
X193102Y931340D01*
G37*
G36*
X168353Y906591D02*
X160906Y914038D01*
X169413Y922545D01*
X176860Y915098D01*
X168353Y906591D01*
G37*
G36*
X180727Y943715D02*
X173280Y951162D01*
X181787Y959669D01*
X189234Y952222D01*
X180727Y943715D01*
G37*
G36*
X155978Y918966D02*
X148531Y926413D01*
X157038Y934920D01*
X164485Y927473D01*
X155978Y918966D01*
G37*
G36*
X53102Y931340D02*
X45655Y938787D01*
X54162Y947294D01*
X61609Y939847D01*
X53102Y931340D01*
G37*
G36*
X28353Y906591D02*
X20906Y914038D01*
X29413Y922545D01*
X36860Y915098D01*
X28353Y906591D01*
G37*
G36*
X40727Y943715D02*
X33280Y951162D01*
X41787Y959669D01*
X49234Y952222D01*
X40727Y943715D01*
G37*
G36*
X15978Y918966D02*
X8531Y926413D01*
X17038Y934920D01*
X24485Y927473D01*
X15978Y918966D01*
G37*
G36*
X17038Y794920D02*
X24485Y787473D01*
X15978Y778966D01*
X8531Y786413D01*
X17038Y794920D01*
G37*
G36*
X41787Y819669D02*
X49234Y812222D01*
X40727Y803715D01*
X33280Y811162D01*
X41787Y819669D01*
G37*
G36*
X29413Y782545D02*
X36860Y775098D01*
X28353Y766591D01*
X20906Y774038D01*
X29413Y782545D01*
G37*
G36*
X54162Y807294D02*
X61609Y799847D01*
X53102Y791340D01*
X45655Y798787D01*
X54162Y807294D01*
G37*
G36*
X157038Y794920D02*
X164485Y787473D01*
X155978Y778966D01*
X148531Y786413D01*
X157038Y794920D01*
G37*
G36*
X181787Y819669D02*
X189234Y812222D01*
X180727Y803715D01*
X173280Y811162D01*
X181787Y819669D01*
G37*
G36*
X169413Y782545D02*
X176860Y775098D01*
X168353Y766591D01*
X160906Y774038D01*
X169413Y782545D01*
G37*
G36*
X194162Y807294D02*
X201609Y799847D01*
X193102Y791340D01*
X185655Y798787D01*
X194162Y807294D01*
G37*
G36*
X297038Y794920D02*
X304485Y787473D01*
X295978Y778966D01*
X288531Y786413D01*
X297038Y794920D01*
G37*
G36*
X321787Y819669D02*
X329234Y812222D01*
X320727Y803715D01*
X313280Y811162D01*
X321787Y819669D01*
G37*
G36*
X309413Y782545D02*
X316860Y775098D01*
X308353Y766591D01*
X300906Y774038D01*
X309413Y782545D01*
G37*
G36*
X334162Y807294D02*
X341609Y799847D01*
X333102Y791340D01*
X325655Y798787D01*
X334162Y807294D01*
G37*
G36*
X157038Y1074920D02*
X164485Y1067473D01*
X155978Y1058966D01*
X148531Y1066413D01*
X157038Y1074920D01*
G37*
G36*
X181787Y1099669D02*
X189234Y1092222D01*
X180727Y1083715D01*
X173280Y1091162D01*
X181787Y1099669D01*
G37*
G36*
X169413Y1062545D02*
X176860Y1055098D01*
X168353Y1046591D01*
X160906Y1054038D01*
X169413Y1062545D01*
G37*
G36*
X194162Y1087294D02*
X201609Y1079847D01*
X193102Y1071340D01*
X185655Y1078787D01*
X194162Y1087294D01*
G37*
G36*
X437038Y794920D02*
X444485Y787473D01*
X435978Y778966D01*
X428531Y786413D01*
X437038Y794920D01*
G37*
G36*
X461787Y819669D02*
X469234Y812222D01*
X460727Y803715D01*
X453280Y811162D01*
X461787Y819669D01*
G37*
G36*
X449413Y782545D02*
X456860Y775098D01*
X448353Y766591D01*
X440906Y774038D01*
X449413Y782545D01*
G37*
G36*
X474162Y807294D02*
X481609Y799847D01*
X473102Y791340D01*
X465655Y798787D01*
X474162Y807294D01*
G37*
G36*
X577038Y794920D02*
X584485Y787473D01*
X575978Y778966D01*
X568531Y786413D01*
X577038Y794920D01*
G37*
G36*
X601787Y819669D02*
X609234Y812222D01*
X600727Y803715D01*
X593280Y811162D01*
X601787Y819669D01*
G37*
G36*
X589413Y782545D02*
X596860Y775098D01*
X588353Y766591D01*
X580906Y774038D01*
X589413Y782545D01*
G37*
G36*
X614162Y807294D02*
X621609Y799847D01*
X613102Y791340D01*
X605655Y798787D01*
X614162Y807294D01*
G37*
G36*
X717038Y794920D02*
X724485Y787473D01*
X715978Y778966D01*
X708531Y786413D01*
X717038Y794920D01*
G37*
G36*
X741787Y819669D02*
X749234Y812222D01*
X740727Y803715D01*
X733280Y811162D01*
X741787Y819669D01*
G37*
G36*
X729413Y782545D02*
X736860Y775098D01*
X728353Y766591D01*
X720906Y774038D01*
X729413Y782545D01*
G37*
G36*
X754162Y807294D02*
X761609Y799847D01*
X753102Y791340D01*
X745655Y798787D01*
X754162Y807294D01*
G37*
G36*
X857038Y794920D02*
X864485Y787473D01*
X855978Y778966D01*
X848531Y786413D01*
X857038Y794920D01*
G37*
G36*
X881787Y819669D02*
X889234Y812222D01*
X880727Y803715D01*
X873280Y811162D01*
X881787Y819669D01*
G37*
G36*
X869413Y782545D02*
X876860Y775098D01*
X868353Y766591D01*
X860906Y774038D01*
X869413Y782545D01*
G37*
G36*
X894162Y807294D02*
X901609Y799847D01*
X893102Y791340D01*
X885655Y798787D01*
X894162Y807294D01*
G37*
G36*
X997038Y794920D02*
X1004485Y787473D01*
X995978Y778966D01*
X988531Y786413D01*
X997038Y794920D01*
G37*
G36*
X1021787Y819669D02*
X1029234Y812222D01*
X1020727Y803715D01*
X1013280Y811162D01*
X1021787Y819669D01*
G37*
G36*
X1009413Y782545D02*
X1016860Y775098D01*
X1008353Y766591D01*
X1000906Y774038D01*
X1009413Y782545D01*
G37*
G36*
X1034162Y807294D02*
X1041609Y799847D01*
X1033102Y791340D01*
X1025655Y798787D01*
X1034162Y807294D01*
G37*
G36*
X1033102Y651340D02*
X1025655Y658787D01*
X1034162Y667294D01*
X1041609Y659847D01*
X1033102Y651340D01*
G37*
G36*
X1008353Y626591D02*
X1000906Y634038D01*
X1009413Y642545D01*
X1016860Y635098D01*
X1008353Y626591D01*
G37*
G36*
X1020727Y663715D02*
X1013280Y671162D01*
X1021787Y679669D01*
X1029234Y672222D01*
X1020727Y663715D01*
G37*
G36*
X995978Y638966D02*
X988531Y646413D01*
X997038Y654920D01*
X1004485Y647473D01*
X995978Y638966D01*
G37*
G36*
X893102Y651340D02*
X885655Y658787D01*
X894162Y667294D01*
X901609Y659847D01*
X893102Y651340D01*
G37*
G36*
X868353Y626591D02*
X860906Y634038D01*
X869413Y642545D01*
X876860Y635098D01*
X868353Y626591D01*
G37*
G36*
X880727Y663715D02*
X873280Y671162D01*
X881787Y679669D01*
X889234Y672222D01*
X880727Y663715D01*
G37*
G36*
X855978Y638966D02*
X848531Y646413D01*
X857038Y654920D01*
X864485Y647473D01*
X855978Y638966D01*
G37*
G36*
X753102Y651340D02*
X745655Y658787D01*
X754162Y667294D01*
X761609Y659847D01*
X753102Y651340D01*
G37*
G36*
X728353Y626591D02*
X720906Y634038D01*
X729413Y642545D01*
X736860Y635098D01*
X728353Y626591D01*
G37*
G36*
X740727Y663715D02*
X733280Y671162D01*
X741787Y679669D01*
X749234Y672222D01*
X740727Y663715D01*
G37*
G36*
X715978Y638966D02*
X708531Y646413D01*
X717038Y654920D01*
X724485Y647473D01*
X715978Y638966D01*
G37*
G36*
X613102Y651340D02*
X605655Y658787D01*
X614162Y667294D01*
X621609Y659847D01*
X613102Y651340D01*
G37*
G36*
X588353Y626591D02*
X580906Y634038D01*
X589413Y642545D01*
X596860Y635098D01*
X588353Y626591D01*
G37*
G36*
X600727Y663715D02*
X593280Y671162D01*
X601787Y679669D01*
X609234Y672222D01*
X600727Y663715D01*
G37*
G36*
X575978Y638966D02*
X568531Y646413D01*
X577038Y654920D01*
X584485Y647473D01*
X575978Y638966D01*
G37*
G36*
X473102Y651340D02*
X465655Y658787D01*
X474162Y667294D01*
X481609Y659847D01*
X473102Y651340D01*
G37*
G36*
X448353Y626591D02*
X440906Y634038D01*
X449413Y642545D01*
X456860Y635098D01*
X448353Y626591D01*
G37*
G36*
X460727Y663715D02*
X453280Y671162D01*
X461787Y679669D01*
X469234Y672222D01*
X460727Y663715D01*
G37*
G36*
X435978Y638966D02*
X428531Y646413D01*
X437038Y654920D01*
X444485Y647473D01*
X435978Y638966D01*
G37*
G36*
X297038Y1074920D02*
X304485Y1067473D01*
X295978Y1058966D01*
X288531Y1066413D01*
X297038Y1074920D01*
G37*
G36*
X321787Y1099669D02*
X329234Y1092222D01*
X320727Y1083715D01*
X313280Y1091162D01*
X321787Y1099669D01*
G37*
G36*
X309413Y1062545D02*
X316860Y1055098D01*
X308353Y1046591D01*
X300906Y1054038D01*
X309413Y1062545D01*
G37*
G36*
X334162Y1087294D02*
X341609Y1079847D01*
X333102Y1071340D01*
X325655Y1078787D01*
X334162Y1087294D01*
G37*
G36*
X333102Y651340D02*
X325655Y658787D01*
X334162Y667294D01*
X341609Y659847D01*
X333102Y651340D01*
G37*
G36*
X308353Y626591D02*
X300906Y634038D01*
X309413Y642545D01*
X316860Y635098D01*
X308353Y626591D01*
G37*
G36*
X320727Y663715D02*
X313280Y671162D01*
X321787Y679669D01*
X329234Y672222D01*
X320727Y663715D01*
G37*
G36*
X295978Y638966D02*
X288531Y646413D01*
X297038Y654920D01*
X304485Y647473D01*
X295978Y638966D01*
G37*
G36*
X193102Y651340D02*
X185655Y658787D01*
X194162Y667294D01*
X201609Y659847D01*
X193102Y651340D01*
G37*
G36*
X168353Y626591D02*
X160906Y634038D01*
X169413Y642545D01*
X176860Y635098D01*
X168353Y626591D01*
G37*
G36*
X180727Y663715D02*
X173280Y671162D01*
X181787Y679669D01*
X189234Y672222D01*
X180727Y663715D01*
G37*
G36*
X155978Y638966D02*
X148531Y646413D01*
X157038Y654920D01*
X164485Y647473D01*
X155978Y638966D01*
G37*
G36*
X53102Y651340D02*
X45655Y658787D01*
X54162Y667294D01*
X61609Y659847D01*
X53102Y651340D01*
G37*
G36*
X28353Y626591D02*
X20906Y634038D01*
X29413Y642545D01*
X36860Y635098D01*
X28353Y626591D01*
G37*
G36*
X40727Y663715D02*
X33280Y671162D01*
X41787Y679669D01*
X49234Y672222D01*
X40727Y663715D01*
G37*
G36*
X15978Y638966D02*
X8531Y646413D01*
X17038Y654920D01*
X24485Y647473D01*
X15978Y638966D01*
G37*
G36*
X17038Y514920D02*
X24485Y507473D01*
X15978Y498966D01*
X8531Y506413D01*
X17038Y514920D01*
G37*
G36*
X41787Y539669D02*
X49234Y532222D01*
X40727Y523715D01*
X33280Y531162D01*
X41787Y539669D01*
G37*
G36*
X29413Y502545D02*
X36860Y495098D01*
X28353Y486591D01*
X20906Y494038D01*
X29413Y502545D01*
G37*
G36*
X54162Y527294D02*
X61609Y519847D01*
X53102Y511340D01*
X45655Y518787D01*
X54162Y527294D01*
G37*
G36*
X157038Y514920D02*
X164485Y507473D01*
X155978Y498966D01*
X148531Y506413D01*
X157038Y514920D01*
G37*
G36*
X181787Y539669D02*
X189234Y532222D01*
X180727Y523715D01*
X173280Y531162D01*
X181787Y539669D01*
G37*
G36*
X169413Y502545D02*
X176860Y495098D01*
X168353Y486591D01*
X160906Y494038D01*
X169413Y502545D01*
G37*
G36*
X194162Y527294D02*
X201609Y519847D01*
X193102Y511340D01*
X185655Y518787D01*
X194162Y527294D01*
G37*
G36*
X297038Y514920D02*
X304485Y507473D01*
X295978Y498966D01*
X288531Y506413D01*
X297038Y514920D01*
G37*
G36*
X321787Y539669D02*
X329234Y532222D01*
X320727Y523715D01*
X313280Y531162D01*
X321787Y539669D01*
G37*
G36*
X309413Y502545D02*
X316860Y495098D01*
X308353Y486591D01*
X300906Y494038D01*
X309413Y502545D01*
G37*
G36*
X334162Y527294D02*
X341609Y519847D01*
X333102Y511340D01*
X325655Y518787D01*
X334162Y527294D01*
G37*
G36*
X437038Y514920D02*
X444485Y507473D01*
X435978Y498966D01*
X428531Y506413D01*
X437038Y514920D01*
G37*
G36*
X461787Y539669D02*
X469234Y532222D01*
X460727Y523715D01*
X453280Y531162D01*
X461787Y539669D01*
G37*
G36*
X449413Y502545D02*
X456860Y495098D01*
X448353Y486591D01*
X440906Y494038D01*
X449413Y502545D01*
G37*
G36*
X474162Y527294D02*
X481609Y519847D01*
X473102Y511340D01*
X465655Y518787D01*
X474162Y527294D01*
G37*
G36*
X577038Y514920D02*
X584485Y507473D01*
X575978Y498966D01*
X568531Y506413D01*
X577038Y514920D01*
G37*
G36*
X601787Y539669D02*
X609234Y532222D01*
X600727Y523715D01*
X593280Y531162D01*
X601787Y539669D01*
G37*
G36*
X589413Y502545D02*
X596860Y495098D01*
X588353Y486591D01*
X580906Y494038D01*
X589413Y502545D01*
G37*
G36*
X614162Y527294D02*
X621609Y519847D01*
X613102Y511340D01*
X605655Y518787D01*
X614162Y527294D01*
G37*
G36*
X717038Y514920D02*
X724485Y507473D01*
X715978Y498966D01*
X708531Y506413D01*
X717038Y514920D01*
G37*
G36*
X741787Y539669D02*
X749234Y532222D01*
X740727Y523715D01*
X733280Y531162D01*
X741787Y539669D01*
G37*
G36*
X729413Y502545D02*
X736860Y495098D01*
X728353Y486591D01*
X720906Y494038D01*
X729413Y502545D01*
G37*
G36*
X754162Y527294D02*
X761609Y519847D01*
X753102Y511340D01*
X745655Y518787D01*
X754162Y527294D01*
G37*
G36*
X857038Y514920D02*
X864485Y507473D01*
X855978Y498966D01*
X848531Y506413D01*
X857038Y514920D01*
G37*
G36*
X881787Y539669D02*
X889234Y532222D01*
X880727Y523715D01*
X873280Y531162D01*
X881787Y539669D01*
G37*
G36*
X869413Y502545D02*
X876860Y495098D01*
X868353Y486591D01*
X860906Y494038D01*
X869413Y502545D01*
G37*
G36*
X894162Y527294D02*
X901609Y519847D01*
X893102Y511340D01*
X885655Y518787D01*
X894162Y527294D01*
G37*
G36*
X437038Y1074920D02*
X444485Y1067473D01*
X435978Y1058966D01*
X428531Y1066413D01*
X437038Y1074920D01*
G37*
G36*
X461787Y1099669D02*
X469234Y1092222D01*
X460727Y1083715D01*
X453280Y1091162D01*
X461787Y1099669D01*
G37*
G36*
X449413Y1062545D02*
X456860Y1055098D01*
X448353Y1046591D01*
X440906Y1054038D01*
X449413Y1062545D01*
G37*
G36*
X474162Y1087294D02*
X481609Y1079847D01*
X473102Y1071340D01*
X465655Y1078787D01*
X474162Y1087294D01*
G37*
G36*
X997038Y514920D02*
X1004485Y507473D01*
X995978Y498966D01*
X988531Y506413D01*
X997038Y514920D01*
G37*
G36*
X1021787Y539669D02*
X1029234Y532222D01*
X1020727Y523715D01*
X1013280Y531162D01*
X1021787Y539669D01*
G37*
G36*
X1009413Y502545D02*
X1016860Y495098D01*
X1008353Y486591D01*
X1000906Y494038D01*
X1009413Y502545D01*
G37*
G36*
X1034162Y527294D02*
X1041609Y519847D01*
X1033102Y511340D01*
X1025655Y518787D01*
X1034162Y527294D01*
G37*
G36*
X1033102Y371340D02*
X1025655Y378787D01*
X1034162Y387294D01*
X1041609Y379847D01*
X1033102Y371340D01*
G37*
G36*
X1008353Y346591D02*
X1000906Y354038D01*
X1009413Y362545D01*
X1016860Y355098D01*
X1008353Y346591D01*
G37*
G36*
X1020727Y383715D02*
X1013280Y391162D01*
X1021787Y399669D01*
X1029234Y392222D01*
X1020727Y383715D01*
G37*
G36*
X995978Y358966D02*
X988531Y366413D01*
X997038Y374920D01*
X1004485Y367473D01*
X995978Y358966D01*
G37*
G36*
X893102Y371340D02*
X885655Y378787D01*
X894162Y387294D01*
X901609Y379847D01*
X893102Y371340D01*
G37*
G36*
X868353Y346591D02*
X860906Y354038D01*
X869413Y362545D01*
X876860Y355098D01*
X868353Y346591D01*
G37*
G36*
X880727Y383715D02*
X873280Y391162D01*
X881787Y399669D01*
X889234Y392222D01*
X880727Y383715D01*
G37*
G36*
X855978Y358966D02*
X848531Y366413D01*
X857038Y374920D01*
X864485Y367473D01*
X855978Y358966D01*
G37*
G36*
X753102Y371340D02*
X745655Y378787D01*
X754162Y387294D01*
X761609Y379847D01*
X753102Y371340D01*
G37*
G36*
X728353Y346591D02*
X720906Y354038D01*
X729413Y362545D01*
X736860Y355098D01*
X728353Y346591D01*
G37*
G36*
X740727Y383715D02*
X733280Y391162D01*
X741787Y399669D01*
X749234Y392222D01*
X740727Y383715D01*
G37*
G36*
X715978Y358966D02*
X708531Y366413D01*
X717038Y374920D01*
X724485Y367473D01*
X715978Y358966D01*
G37*
G36*
X613102Y371340D02*
X605655Y378787D01*
X614162Y387294D01*
X621609Y379847D01*
X613102Y371340D01*
G37*
G36*
X588353Y346591D02*
X580906Y354038D01*
X589413Y362545D01*
X596860Y355098D01*
X588353Y346591D01*
G37*
G36*
X600727Y383715D02*
X593280Y391162D01*
X601787Y399669D01*
X609234Y392222D01*
X600727Y383715D01*
G37*
G36*
X575978Y358966D02*
X568531Y366413D01*
X577038Y374920D01*
X584485Y367473D01*
X575978Y358966D01*
G37*
G36*
X473102Y371340D02*
X465655Y378787D01*
X474162Y387294D01*
X481609Y379847D01*
X473102Y371340D01*
G37*
G36*
X448353Y346591D02*
X440906Y354038D01*
X449413Y362545D01*
X456860Y355098D01*
X448353Y346591D01*
G37*
G36*
X460727Y383715D02*
X453280Y391162D01*
X461787Y399669D01*
X469234Y392222D01*
X460727Y383715D01*
G37*
G36*
X435978Y358966D02*
X428531Y366413D01*
X437038Y374920D01*
X444485Y367473D01*
X435978Y358966D01*
G37*
G36*
X333102Y371340D02*
X325655Y378787D01*
X334162Y387294D01*
X341609Y379847D01*
X333102Y371340D01*
G37*
G36*
X308353Y346591D02*
X300906Y354038D01*
X309413Y362545D01*
X316860Y355098D01*
X308353Y346591D01*
G37*
G36*
X320727Y383715D02*
X313280Y391162D01*
X321787Y399669D01*
X329234Y392222D01*
X320727Y383715D01*
G37*
G36*
X295978Y358966D02*
X288531Y366413D01*
X297038Y374920D01*
X304485Y367473D01*
X295978Y358966D01*
G37*
G36*
X193102Y371340D02*
X185655Y378787D01*
X194162Y387294D01*
X201609Y379847D01*
X193102Y371340D01*
G37*
G36*
X168353Y346591D02*
X160906Y354038D01*
X169413Y362545D01*
X176860Y355098D01*
X168353Y346591D01*
G37*
G36*
X180727Y383715D02*
X173280Y391162D01*
X181787Y399669D01*
X189234Y392222D01*
X180727Y383715D01*
G37*
G36*
X155978Y358966D02*
X148531Y366413D01*
X157038Y374920D01*
X164485Y367473D01*
X155978Y358966D01*
G37*
G36*
X53102Y371340D02*
X45655Y378787D01*
X54162Y387294D01*
X61609Y379847D01*
X53102Y371340D01*
G37*
G36*
X28353Y346591D02*
X20906Y354038D01*
X29413Y362545D01*
X36860Y355098D01*
X28353Y346591D01*
G37*
G36*
X40727Y383715D02*
X33280Y391162D01*
X41787Y399669D01*
X49234Y392222D01*
X40727Y383715D01*
G37*
G36*
X15978Y358966D02*
X8531Y366413D01*
X17038Y374920D01*
X24485Y367473D01*
X15978Y358966D01*
G37*
G36*
X17038Y234920D02*
X24485Y227473D01*
X15978Y218966D01*
X8531Y226413D01*
X17038Y234920D01*
G37*
G36*
X41787Y259669D02*
X49234Y252222D01*
X40727Y243715D01*
X33280Y251162D01*
X41787Y259669D01*
G37*
G36*
X29413Y222545D02*
X36860Y215098D01*
X28353Y206591D01*
X20906Y214038D01*
X29413Y222545D01*
G37*
G36*
X54162Y247294D02*
X61609Y239847D01*
X53102Y231340D01*
X45655Y238787D01*
X54162Y247294D01*
G37*
G36*
X577038Y1074920D02*
X584485Y1067473D01*
X575978Y1058966D01*
X568531Y1066413D01*
X577038Y1074920D01*
G37*
G36*
X601787Y1099669D02*
X609234Y1092222D01*
X600727Y1083715D01*
X593280Y1091162D01*
X601787Y1099669D01*
G37*
G36*
X589413Y1062545D02*
X596860Y1055098D01*
X588353Y1046591D01*
X580906Y1054038D01*
X589413Y1062545D01*
G37*
G36*
X614162Y1087294D02*
X621609Y1079847D01*
X613102Y1071340D01*
X605655Y1078787D01*
X614162Y1087294D01*
G37*
G36*
X157038Y234920D02*
X164485Y227473D01*
X155978Y218966D01*
X148531Y226413D01*
X157038Y234920D01*
G37*
G36*
X181787Y259669D02*
X189234Y252222D01*
X180727Y243715D01*
X173280Y251162D01*
X181787Y259669D01*
G37*
G36*
X169413Y222545D02*
X176860Y215098D01*
X168353Y206591D01*
X160906Y214038D01*
X169413Y222545D01*
G37*
G36*
X194162Y247294D02*
X201609Y239847D01*
X193102Y231340D01*
X185655Y238787D01*
X194162Y247294D01*
G37*
G36*
X297038Y234920D02*
X304485Y227473D01*
X295978Y218966D01*
X288531Y226413D01*
X297038Y234920D01*
G37*
G36*
X321787Y259669D02*
X329234Y252222D01*
X320727Y243715D01*
X313280Y251162D01*
X321787Y259669D01*
G37*
G36*
X309413Y222545D02*
X316860Y215098D01*
X308353Y206591D01*
X300906Y214038D01*
X309413Y222545D01*
G37*
G36*
X334162Y247294D02*
X341609Y239847D01*
X333102Y231340D01*
X325655Y238787D01*
X334162Y247294D01*
G37*
G36*
X437038Y234920D02*
X444485Y227473D01*
X435978Y218966D01*
X428531Y226413D01*
X437038Y234920D01*
G37*
G36*
X461787Y259669D02*
X469234Y252222D01*
X460727Y243715D01*
X453280Y251162D01*
X461787Y259669D01*
G37*
G36*
X449413Y222545D02*
X456860Y215098D01*
X448353Y206591D01*
X440906Y214038D01*
X449413Y222545D01*
G37*
G36*
X474162Y247294D02*
X481609Y239847D01*
X473102Y231340D01*
X465655Y238787D01*
X474162Y247294D01*
G37*
G36*
X577038Y234920D02*
X584485Y227473D01*
X575978Y218966D01*
X568531Y226413D01*
X577038Y234920D01*
G37*
G36*
X601787Y259669D02*
X609234Y252222D01*
X600727Y243715D01*
X593280Y251162D01*
X601787Y259669D01*
G37*
G36*
X589413Y222545D02*
X596860Y215098D01*
X588353Y206591D01*
X580906Y214038D01*
X589413Y222545D01*
G37*
G36*
X614162Y247294D02*
X621609Y239847D01*
X613102Y231340D01*
X605655Y238787D01*
X614162Y247294D01*
G37*
G36*
X717038Y234920D02*
X724485Y227473D01*
X715978Y218966D01*
X708531Y226413D01*
X717038Y234920D01*
G37*
G36*
X741787Y259669D02*
X749234Y252222D01*
X740727Y243715D01*
X733280Y251162D01*
X741787Y259669D01*
G37*
G36*
X729413Y222545D02*
X736860Y215098D01*
X728353Y206591D01*
X720906Y214038D01*
X729413Y222545D01*
G37*
G36*
X754162Y247294D02*
X761609Y239847D01*
X753102Y231340D01*
X745655Y238787D01*
X754162Y247294D01*
G37*
G36*
X857038Y234920D02*
X864485Y227473D01*
X855978Y218966D01*
X848531Y226413D01*
X857038Y234920D01*
G37*
G36*
X881787Y259669D02*
X889234Y252222D01*
X880727Y243715D01*
X873280Y251162D01*
X881787Y259669D01*
G37*
G36*
X869413Y222545D02*
X876860Y215098D01*
X868353Y206591D01*
X860906Y214038D01*
X869413Y222545D01*
G37*
G36*
X894162Y247294D02*
X901609Y239847D01*
X893102Y231340D01*
X885655Y238787D01*
X894162Y247294D01*
G37*
G36*
X997038Y234920D02*
X1004485Y227473D01*
X995978Y218966D01*
X988531Y226413D01*
X997038Y234920D01*
G37*
G36*
X1021787Y259669D02*
X1029234Y252222D01*
X1020727Y243715D01*
X1013280Y251162D01*
X1021787Y259669D01*
G37*
G36*
X1009413Y222545D02*
X1016860Y215098D01*
X1008353Y206591D01*
X1000906Y214038D01*
X1009413Y222545D01*
G37*
G36*
X1034162Y247294D02*
X1041609Y239847D01*
X1033102Y231340D01*
X1025655Y238787D01*
X1034162Y247294D01*
G37*
G36*
X1033102Y91340D02*
X1025655Y98787D01*
X1034162Y107294D01*
X1041609Y99847D01*
X1033102Y91340D01*
G37*
G36*
X1008353Y66591D02*
X1000906Y74038D01*
X1009413Y82545D01*
X1016860Y75098D01*
X1008353Y66591D01*
G37*
G36*
X1020727Y103715D02*
X1013280Y111162D01*
X1021787Y119669D01*
X1029234Y112222D01*
X1020727Y103715D01*
G37*
G36*
X995978Y78966D02*
X988531Y86413D01*
X997038Y94920D01*
X1004485Y87473D01*
X995978Y78966D01*
G37*
G36*
X893102Y91340D02*
X885655Y98787D01*
X894162Y107294D01*
X901609Y99847D01*
X893102Y91340D01*
G37*
G36*
X868353Y66591D02*
X860906Y74038D01*
X869413Y82545D01*
X876860Y75098D01*
X868353Y66591D01*
G37*
G36*
X880727Y103715D02*
X873280Y111162D01*
X881787Y119669D01*
X889234Y112222D01*
X880727Y103715D01*
G37*
G36*
X855978Y78966D02*
X848531Y86413D01*
X857038Y94920D01*
X864485Y87473D01*
X855978Y78966D01*
G37*
G36*
X753102Y91340D02*
X745655Y98787D01*
X754162Y107294D01*
X761609Y99847D01*
X753102Y91340D01*
G37*
G36*
X728353Y66591D02*
X720906Y74038D01*
X729413Y82545D01*
X736860Y75098D01*
X728353Y66591D01*
G37*
G36*
X740727Y103715D02*
X733280Y111162D01*
X741787Y119669D01*
X749234Y112222D01*
X740727Y103715D01*
G37*
G36*
X715978Y78966D02*
X708531Y86413D01*
X717038Y94920D01*
X724485Y87473D01*
X715978Y78966D01*
G37*
G36*
X717038Y1074920D02*
X724485Y1067473D01*
X715978Y1058966D01*
X708531Y1066413D01*
X717038Y1074920D01*
G37*
G36*
X741787Y1099669D02*
X749234Y1092222D01*
X740727Y1083715D01*
X733280Y1091162D01*
X741787Y1099669D01*
G37*
G36*
X729413Y1062545D02*
X736860Y1055098D01*
X728353Y1046591D01*
X720906Y1054038D01*
X729413Y1062545D01*
G37*
G36*
X754162Y1087294D02*
X761609Y1079847D01*
X753102Y1071340D01*
X745655Y1078787D01*
X754162Y1087294D01*
G37*
G36*
X613102Y91340D02*
X605655Y98787D01*
X614162Y107294D01*
X621609Y99847D01*
X613102Y91340D01*
G37*
G36*
X588353Y66591D02*
X580906Y74038D01*
X589413Y82545D01*
X596860Y75098D01*
X588353Y66591D01*
G37*
G36*
X600727Y103715D02*
X593280Y111162D01*
X601787Y119669D01*
X609234Y112222D01*
X600727Y103715D01*
G37*
G36*
X575978Y78966D02*
X568531Y86413D01*
X577038Y94920D01*
X584485Y87473D01*
X575978Y78966D01*
G37*
G36*
X473102Y91340D02*
X465655Y98787D01*
X474162Y107294D01*
X481609Y99847D01*
X473102Y91340D01*
G37*
G36*
X448353Y66591D02*
X440906Y74038D01*
X449413Y82545D01*
X456860Y75098D01*
X448353Y66591D01*
G37*
G36*
X460727Y103715D02*
X453280Y111162D01*
X461787Y119669D01*
X469234Y112222D01*
X460727Y103715D01*
G37*
G36*
X435978Y78966D02*
X428531Y86413D01*
X437038Y94920D01*
X444485Y87473D01*
X435978Y78966D01*
G37*
G36*
X333102Y91340D02*
X325655Y98787D01*
X334162Y107294D01*
X341609Y99847D01*
X333102Y91340D01*
G37*
G36*
X308353Y66591D02*
X300906Y74038D01*
X309413Y82545D01*
X316860Y75098D01*
X308353Y66591D01*
G37*
G36*
X320727Y103715D02*
X313280Y111162D01*
X321787Y119669D01*
X329234Y112222D01*
X320727Y103715D01*
G37*
G36*
X295978Y78966D02*
X288531Y86413D01*
X297038Y94920D01*
X304485Y87473D01*
X295978Y78966D01*
G37*
G36*
X193102Y91340D02*
X185655Y98787D01*
X194162Y107294D01*
X201609Y99847D01*
X193102Y91340D01*
G37*
G36*
X168353Y66591D02*
X160906Y74038D01*
X169413Y82545D01*
X176860Y75098D01*
X168353Y66591D01*
G37*
G36*
X180727Y103715D02*
X173280Y111162D01*
X181787Y119669D01*
X189234Y112222D01*
X180727Y103715D01*
G37*
G36*
X155978Y78966D02*
X148531Y86413D01*
X157038Y94920D01*
X164485Y87473D01*
X155978Y78966D01*
G37*
G36*
X53102Y91340D02*
X45655Y98787D01*
X54162Y107294D01*
X61609Y99847D01*
X53102Y91340D01*
G37*
G36*
X28353Y66591D02*
X20906Y74038D01*
X29413Y82545D01*
X36860Y75098D01*
X28353Y66591D01*
G37*
G36*
X40727Y103715D02*
X33280Y111162D01*
X41787Y119669D01*
X49234Y112222D01*
X40727Y103715D01*
G37*
G36*
X15978Y78966D02*
X8531Y86413D01*
X17038Y94920D01*
X24485Y87473D01*
X15978Y78966D01*
G37*
G36*
X1173102Y91340D02*
X1165655Y98787D01*
X1174162Y107294D01*
X1181609Y99847D01*
X1173102Y91340D01*
G37*
G36*
X1148353Y66591D02*
X1140906Y74038D01*
X1149413Y82545D01*
X1156860Y75098D01*
X1148353Y66591D01*
G37*
G36*
X1160727Y103715D02*
X1153280Y111162D01*
X1161787Y119669D01*
X1169234Y112222D01*
X1160727Y103715D01*
G37*
G36*
X1135978Y78966D02*
X1128531Y86413D01*
X1137038Y94920D01*
X1144485Y87473D01*
X1135978Y78966D01*
G37*
G36*
X1173102Y231340D02*
X1165655Y238787D01*
X1174162Y247294D01*
X1181609Y239847D01*
X1173102Y231340D01*
G37*
G36*
X1148353Y206591D02*
X1140906Y214038D01*
X1149413Y222545D01*
X1156860Y215098D01*
X1148353Y206591D01*
G37*
G36*
X1160727Y243715D02*
X1153280Y251162D01*
X1161787Y259669D01*
X1169234Y252222D01*
X1160727Y243715D01*
G37*
G36*
X1135978Y218966D02*
X1128531Y226413D01*
X1137038Y234920D01*
X1144485Y227473D01*
X1135978Y218966D01*
G37*
G36*
X1173102Y371340D02*
X1165655Y378787D01*
X1174162Y387294D01*
X1181609Y379847D01*
X1173102Y371340D01*
G37*
G36*
X1148353Y346591D02*
X1140906Y354038D01*
X1149413Y362545D01*
X1156860Y355098D01*
X1148353Y346591D01*
G37*
G36*
X1160727Y383715D02*
X1153280Y391162D01*
X1161787Y399669D01*
X1169234Y392222D01*
X1160727Y383715D01*
G37*
G36*
X1135978Y358966D02*
X1128531Y366413D01*
X1137038Y374920D01*
X1144485Y367473D01*
X1135978Y358966D01*
G37*
G36*
X1173102Y511340D02*
X1165655Y518787D01*
X1174162Y527294D01*
X1181609Y519847D01*
X1173102Y511340D01*
G37*
G36*
X1148353Y486591D02*
X1140906Y494038D01*
X1149413Y502545D01*
X1156860Y495098D01*
X1148353Y486591D01*
G37*
G36*
X1160727Y523715D02*
X1153280Y531162D01*
X1161787Y539669D01*
X1169234Y532222D01*
X1160727Y523715D01*
G37*
G36*
X1135978Y498966D02*
X1128531Y506413D01*
X1137038Y514920D01*
X1144485Y507473D01*
X1135978Y498966D01*
G37*
G36*
X1173102Y651340D02*
X1165655Y658787D01*
X1174162Y667294D01*
X1181609Y659847D01*
X1173102Y651340D01*
G37*
G36*
X1148353Y626591D02*
X1140906Y634038D01*
X1149413Y642545D01*
X1156860Y635098D01*
X1148353Y626591D01*
G37*
G36*
X1160727Y663715D02*
X1153280Y671162D01*
X1161787Y679669D01*
X1169234Y672222D01*
X1160727Y663715D01*
G37*
G36*
X1135978Y638966D02*
X1128531Y646413D01*
X1137038Y654920D01*
X1144485Y647473D01*
X1135978Y638966D01*
G37*
G36*
X857038Y1074920D02*
X864485Y1067473D01*
X855978Y1058966D01*
X848531Y1066413D01*
X857038Y1074920D01*
G37*
G36*
X881787Y1099669D02*
X889234Y1092222D01*
X880727Y1083715D01*
X873280Y1091162D01*
X881787Y1099669D01*
G37*
G36*
X869413Y1062545D02*
X876860Y1055098D01*
X868353Y1046591D01*
X860906Y1054038D01*
X869413Y1062545D01*
G37*
G36*
X894162Y1087294D02*
X901609Y1079847D01*
X893102Y1071340D01*
X885655Y1078787D01*
X894162Y1087294D01*
G37*
G36*
X1173102Y791340D02*
X1165655Y798787D01*
X1174162Y807294D01*
X1181609Y799847D01*
X1173102Y791340D01*
G37*
G36*
X1148353Y766591D02*
X1140906Y774038D01*
X1149413Y782545D01*
X1156860Y775098D01*
X1148353Y766591D01*
G37*
G36*
X1160727Y803715D02*
X1153280Y811162D01*
X1161787Y819669D01*
X1169234Y812222D01*
X1160727Y803715D01*
G37*
G36*
X1135978Y778966D02*
X1128531Y786413D01*
X1137038Y794920D01*
X1144485Y787473D01*
X1135978Y778966D01*
G37*
G36*
X1173102Y931340D02*
X1165655Y938787D01*
X1174162Y947294D01*
X1181609Y939847D01*
X1173102Y931340D01*
G37*
G36*
X1148353Y906591D02*
X1140906Y914038D01*
X1149413Y922545D01*
X1156860Y915098D01*
X1148353Y906591D01*
G37*
G36*
X1160727Y943715D02*
X1153280Y951162D01*
X1161787Y959669D01*
X1169234Y952222D01*
X1160727Y943715D01*
G37*
G36*
X1135978Y918966D02*
X1128531Y926413D01*
X1137038Y934920D01*
X1144485Y927473D01*
X1135978Y918966D01*
G37*
G36*
X1137038Y1074920D02*
X1144485Y1067473D01*
X1135978Y1058966D01*
X1128531Y1066413D01*
X1137038Y1074920D01*
G37*
G36*
X1161787Y1099669D02*
X1169234Y1092222D01*
X1160727Y1083715D01*
X1153280Y1091162D01*
X1161787Y1099669D01*
G37*
G36*
X1149413Y1062545D02*
X1156860Y1055098D01*
X1148353Y1046591D01*
X1140906Y1054038D01*
X1149413Y1062545D01*
G37*
G36*
X1174162Y1087294D02*
X1181609Y1079847D01*
X1173102Y1071340D01*
X1165655Y1078787D01*
X1174162Y1087294D01*
G37*
D13*
X1465160Y1043960D03*
X1490560Y1043960D03*
X1465160Y903960D03*
X1490560Y903960D03*
X1465160Y763960D03*
X1490560Y763960D03*
X1465160Y623960D03*
X1490560Y623960D03*
X1465160Y483960D03*
X1490560Y483960D03*
X1465160Y343960D03*
X1490560Y343960D03*
X1465160Y203960D03*
X1490560Y203960D03*
D12*
G36*
X997038Y1074920D02*
X1004485Y1067473D01*
X995978Y1058966D01*
X988531Y1066413D01*
X997038Y1074920D01*
G37*
G36*
X1021787Y1099669D02*
X1029234Y1092222D01*
X1020727Y1083715D01*
X1013280Y1091162D01*
X1021787Y1099669D01*
G37*
G36*
X1009413Y1062545D02*
X1016860Y1055098D01*
X1008353Y1046591D01*
X1000906Y1054038D01*
X1009413Y1062545D01*
G37*
G36*
X1034162Y1087294D02*
X1041609Y1079847D01*
X1033102Y1071340D01*
X1025655Y1078787D01*
X1034162Y1087294D01*
G37*
D13*
X1465160Y63960D03*
X1490560Y63960D03*
D12*
G36*
X1033102Y931340D02*
X1025655Y938787D01*
X1034162Y947294D01*
X1041609Y939847D01*
X1033102Y931340D01*
G37*
G36*
X1008353Y906591D02*
X1000906Y914038D01*
X1009413Y922545D01*
X1016860Y915098D01*
X1008353Y906591D01*
G37*
G36*
X1020727Y943715D02*
X1013280Y951162D01*
X1021787Y959669D01*
X1029234Y952222D01*
X1020727Y943715D01*
G37*
G36*
X995978Y918966D02*
X988531Y926413D01*
X997038Y934920D01*
X1004485Y927473D01*
X995978Y918966D01*
G37*
D11*
X1392840Y153960D03*
X1392840Y238960D03*
X1392840Y268960D03*
X1392840Y13960D03*
X1392840Y98960D03*
X1392840Y128960D03*
D14*
G36*
X100359Y1068708D02*
X82660Y1051009D01*
X69909Y1063760D01*
X87608Y1081459D01*
X100359Y1068708D01*
G37*
G36*
X55811Y1024160D02*
X38112Y1006461D01*
X25361Y1019212D01*
X43060Y1036911D01*
X55811Y1024160D01*
G37*
G36*
X240359Y928708D02*
X222660Y911009D01*
X209909Y923760D01*
X227608Y941459D01*
X240359Y928708D01*
G37*
G36*
X195811Y884160D02*
X178112Y866461D01*
X165361Y879212D01*
X183060Y896911D01*
X195811Y884160D01*
G37*
G36*
X380359Y928708D02*
X362660Y911009D01*
X349909Y923760D01*
X367608Y941459D01*
X380359Y928708D01*
G37*
G36*
X335811Y884160D02*
X318112Y866461D01*
X305361Y879212D01*
X323060Y896911D01*
X335811Y884160D01*
G37*
G36*
X520359Y928708D02*
X502660Y911009D01*
X489909Y923760D01*
X507608Y941459D01*
X520359Y928708D01*
G37*
G36*
X475811Y884160D02*
X458112Y866461D01*
X445361Y879212D01*
X463060Y896911D01*
X475811Y884160D01*
G37*
G36*
X660359Y928708D02*
X642660Y911009D01*
X629909Y923760D01*
X647608Y941459D01*
X660359Y928708D01*
G37*
G36*
X615811Y884160D02*
X598112Y866461D01*
X585361Y879212D01*
X603060Y896911D01*
X615811Y884160D01*
G37*
G36*
X800359Y928708D02*
X782660Y911009D01*
X769909Y923760D01*
X787608Y941459D01*
X800359Y928708D01*
G37*
G36*
X755811Y884160D02*
X738112Y866461D01*
X725361Y879212D01*
X743060Y896911D01*
X755811Y884160D01*
G37*
G36*
X940359Y928708D02*
X922660Y911009D01*
X909909Y923760D01*
X927608Y941459D01*
X940359Y928708D01*
G37*
G36*
X895811Y884160D02*
X878112Y866461D01*
X865361Y879212D01*
X883060Y896911D01*
X895811Y884160D01*
G37*
G36*
X1080359Y928708D02*
X1062660Y911009D01*
X1049909Y923760D01*
X1067608Y941459D01*
X1080359Y928708D01*
G37*
G36*
X1035811Y884160D02*
X1018112Y866461D01*
X1005361Y879212D01*
X1023060Y896911D01*
X1035811Y884160D01*
G37*
G36*
X100359Y788708D02*
X82660Y771009D01*
X69909Y783760D01*
X87608Y801459D01*
X100359Y788708D01*
G37*
G36*
X55811Y744160D02*
X38112Y726461D01*
X25361Y739212D01*
X43060Y756911D01*
X55811Y744160D01*
G37*
G36*
X240359Y788708D02*
X222660Y771009D01*
X209909Y783760D01*
X227608Y801459D01*
X240359Y788708D01*
G37*
G36*
X195811Y744160D02*
X178112Y726461D01*
X165361Y739212D01*
X183060Y756911D01*
X195811Y744160D01*
G37*
G36*
X380359Y788708D02*
X362660Y771009D01*
X349909Y783760D01*
X367608Y801459D01*
X380359Y788708D01*
G37*
G36*
X335811Y744160D02*
X318112Y726461D01*
X305361Y739212D01*
X323060Y756911D01*
X335811Y744160D01*
G37*
G36*
X240359Y1068708D02*
X222660Y1051009D01*
X209909Y1063760D01*
X227608Y1081459D01*
X240359Y1068708D01*
G37*
G36*
X195811Y1024160D02*
X178112Y1006461D01*
X165361Y1019212D01*
X183060Y1036911D01*
X195811Y1024160D01*
G37*
G36*
X520359Y788708D02*
X502660Y771009D01*
X489909Y783760D01*
X507608Y801459D01*
X520359Y788708D01*
G37*
G36*
X475811Y744160D02*
X458112Y726461D01*
X445361Y739212D01*
X463060Y756911D01*
X475811Y744160D01*
G37*
G36*
X660359Y788708D02*
X642660Y771009D01*
X629909Y783760D01*
X647608Y801459D01*
X660359Y788708D01*
G37*
G36*
X615811Y744160D02*
X598112Y726461D01*
X585361Y739212D01*
X603060Y756911D01*
X615811Y744160D01*
G37*
G36*
X800359Y788708D02*
X782660Y771009D01*
X769909Y783760D01*
X787608Y801459D01*
X800359Y788708D01*
G37*
G36*
X755811Y744160D02*
X738112Y726461D01*
X725361Y739212D01*
X743060Y756911D01*
X755811Y744160D01*
G37*
G36*
X940359Y788708D02*
X922660Y771009D01*
X909909Y783760D01*
X927608Y801459D01*
X940359Y788708D01*
G37*
G36*
X895811Y744160D02*
X878112Y726461D01*
X865361Y739212D01*
X883060Y756911D01*
X895811Y744160D01*
G37*
G36*
X1080359Y788708D02*
X1062660Y771009D01*
X1049909Y783760D01*
X1067608Y801459D01*
X1080359Y788708D01*
G37*
G36*
X1035811Y744160D02*
X1018112Y726461D01*
X1005361Y739212D01*
X1023060Y756911D01*
X1035811Y744160D01*
G37*
G36*
X100359Y648708D02*
X82660Y631009D01*
X69909Y643760D01*
X87608Y661459D01*
X100359Y648708D01*
G37*
G36*
X55811Y604160D02*
X38112Y586461D01*
X25361Y599212D01*
X43060Y616911D01*
X55811Y604160D01*
G37*
G36*
X240359Y648708D02*
X222660Y631009D01*
X209909Y643760D01*
X227608Y661459D01*
X240359Y648708D01*
G37*
G36*
X195811Y604160D02*
X178112Y586461D01*
X165361Y599212D01*
X183060Y616911D01*
X195811Y604160D01*
G37*
G36*
X380359Y648708D02*
X362660Y631009D01*
X349909Y643760D01*
X367608Y661459D01*
X380359Y648708D01*
G37*
G36*
X335811Y604160D02*
X318112Y586461D01*
X305361Y599212D01*
X323060Y616911D01*
X335811Y604160D01*
G37*
G36*
X520359Y648708D02*
X502660Y631009D01*
X489909Y643760D01*
X507608Y661459D01*
X520359Y648708D01*
G37*
G36*
X475811Y604160D02*
X458112Y586461D01*
X445361Y599212D01*
X463060Y616911D01*
X475811Y604160D01*
G37*
G36*
X660359Y648708D02*
X642660Y631009D01*
X629909Y643760D01*
X647608Y661459D01*
X660359Y648708D01*
G37*
G36*
X615811Y604160D02*
X598112Y586461D01*
X585361Y599212D01*
X603060Y616911D01*
X615811Y604160D01*
G37*
G36*
X380359Y1068708D02*
X362660Y1051009D01*
X349909Y1063760D01*
X367608Y1081459D01*
X380359Y1068708D01*
G37*
G36*
X335811Y1024160D02*
X318112Y1006461D01*
X305361Y1019212D01*
X323060Y1036911D01*
X335811Y1024160D01*
G37*
G36*
X800359Y648708D02*
X782660Y631009D01*
X769909Y643760D01*
X787608Y661459D01*
X800359Y648708D01*
G37*
G36*
X755811Y604160D02*
X738112Y586461D01*
X725361Y599212D01*
X743060Y616911D01*
X755811Y604160D01*
G37*
G36*
X940359Y648708D02*
X922660Y631009D01*
X909909Y643760D01*
X927608Y661459D01*
X940359Y648708D01*
G37*
G36*
X895811Y604160D02*
X878112Y586461D01*
X865361Y599212D01*
X883060Y616911D01*
X895811Y604160D01*
G37*
G36*
X1080359Y648708D02*
X1062660Y631009D01*
X1049909Y643760D01*
X1067608Y661459D01*
X1080359Y648708D01*
G37*
G36*
X1035811Y604160D02*
X1018112Y586461D01*
X1005361Y599212D01*
X1023060Y616911D01*
X1035811Y604160D01*
G37*
G36*
X100359Y508708D02*
X82660Y491009D01*
X69909Y503760D01*
X87608Y521459D01*
X100359Y508708D01*
G37*
G36*
X55811Y464160D02*
X38112Y446461D01*
X25361Y459212D01*
X43060Y476911D01*
X55811Y464160D01*
G37*
G36*
X240359Y508708D02*
X222660Y491009D01*
X209909Y503760D01*
X227608Y521459D01*
X240359Y508708D01*
G37*
G36*
X195811Y464160D02*
X178112Y446461D01*
X165361Y459212D01*
X183060Y476911D01*
X195811Y464160D01*
G37*
G36*
X380359Y508708D02*
X362660Y491009D01*
X349909Y503760D01*
X367608Y521459D01*
X380359Y508708D01*
G37*
G36*
X335811Y464160D02*
X318112Y446461D01*
X305361Y459212D01*
X323060Y476911D01*
X335811Y464160D01*
G37*
G36*
X520359Y508708D02*
X502660Y491009D01*
X489909Y503760D01*
X507608Y521459D01*
X520359Y508708D01*
G37*
G36*
X475811Y464160D02*
X458112Y446461D01*
X445361Y459212D01*
X463060Y476911D01*
X475811Y464160D01*
G37*
G36*
X660359Y508708D02*
X642660Y491009D01*
X629909Y503760D01*
X647608Y521459D01*
X660359Y508708D01*
G37*
G36*
X615811Y464160D02*
X598112Y446461D01*
X585361Y459212D01*
X603060Y476911D01*
X615811Y464160D01*
G37*
G36*
X800359Y508708D02*
X782660Y491009D01*
X769909Y503760D01*
X787608Y521459D01*
X800359Y508708D01*
G37*
G36*
X755811Y464160D02*
X738112Y446461D01*
X725361Y459212D01*
X743060Y476911D01*
X755811Y464160D01*
G37*
G36*
X940359Y508708D02*
X922660Y491009D01*
X909909Y503760D01*
X927608Y521459D01*
X940359Y508708D01*
G37*
G36*
X895811Y464160D02*
X878112Y446461D01*
X865361Y459212D01*
X883060Y476911D01*
X895811Y464160D01*
G37*
G36*
X520359Y1068708D02*
X502660Y1051009D01*
X489909Y1063760D01*
X507608Y1081459D01*
X520359Y1068708D01*
G37*
G36*
X475811Y1024160D02*
X458112Y1006461D01*
X445361Y1019212D01*
X463060Y1036911D01*
X475811Y1024160D01*
G37*
G36*
X1080359Y508708D02*
X1062660Y491009D01*
X1049909Y503760D01*
X1067608Y521459D01*
X1080359Y508708D01*
G37*
G36*
X1035811Y464160D02*
X1018112Y446461D01*
X1005361Y459212D01*
X1023060Y476911D01*
X1035811Y464160D01*
G37*
G36*
X100359Y368708D02*
X82660Y351009D01*
X69909Y363760D01*
X87608Y381459D01*
X100359Y368708D01*
G37*
G36*
X55811Y324160D02*
X38112Y306461D01*
X25361Y319212D01*
X43060Y336911D01*
X55811Y324160D01*
G37*
G36*
X240359Y368708D02*
X222660Y351009D01*
X209909Y363760D01*
X227608Y381459D01*
X240359Y368708D01*
G37*
G36*
X195811Y324160D02*
X178112Y306461D01*
X165361Y319212D01*
X183060Y336911D01*
X195811Y324160D01*
G37*
G36*
X380359Y368708D02*
X362660Y351009D01*
X349909Y363760D01*
X367608Y381459D01*
X380359Y368708D01*
G37*
G36*
X335811Y324160D02*
X318112Y306461D01*
X305361Y319212D01*
X323060Y336911D01*
X335811Y324160D01*
G37*
G36*
X520359Y368708D02*
X502660Y351009D01*
X489909Y363760D01*
X507608Y381459D01*
X520359Y368708D01*
G37*
G36*
X475811Y324160D02*
X458112Y306461D01*
X445361Y319212D01*
X463060Y336911D01*
X475811Y324160D01*
G37*
G36*
X660359Y368708D02*
X642660Y351009D01*
X629909Y363760D01*
X647608Y381459D01*
X660359Y368708D01*
G37*
G36*
X615811Y324160D02*
X598112Y306461D01*
X585361Y319212D01*
X603060Y336911D01*
X615811Y324160D01*
G37*
G36*
X800359Y368708D02*
X782660Y351009D01*
X769909Y363760D01*
X787608Y381459D01*
X800359Y368708D01*
G37*
G36*
X755811Y324160D02*
X738112Y306461D01*
X725361Y319212D01*
X743060Y336911D01*
X755811Y324160D01*
G37*
G36*
X940359Y368708D02*
X922660Y351009D01*
X909909Y363760D01*
X927608Y381459D01*
X940359Y368708D01*
G37*
G36*
X895811Y324160D02*
X878112Y306461D01*
X865361Y319212D01*
X883060Y336911D01*
X895811Y324160D01*
G37*
G36*
X1080359Y368708D02*
X1062660Y351009D01*
X1049909Y363760D01*
X1067608Y381459D01*
X1080359Y368708D01*
G37*
G36*
X1035811Y324160D02*
X1018112Y306461D01*
X1005361Y319212D01*
X1023060Y336911D01*
X1035811Y324160D01*
G37*
G36*
X100359Y228708D02*
X82660Y211009D01*
X69909Y223760D01*
X87608Y241459D01*
X100359Y228708D01*
G37*
G36*
X55811Y184160D02*
X38112Y166461D01*
X25361Y179212D01*
X43060Y196911D01*
X55811Y184160D01*
G37*
G36*
X660359Y1068708D02*
X642660Y1051009D01*
X629909Y1063760D01*
X647608Y1081459D01*
X660359Y1068708D01*
G37*
G36*
X615811Y1024160D02*
X598112Y1006461D01*
X585361Y1019212D01*
X603060Y1036911D01*
X615811Y1024160D01*
G37*
G36*
X240359Y228708D02*
X222660Y211009D01*
X209909Y223760D01*
X227608Y241459D01*
X240359Y228708D01*
G37*
G36*
X195811Y184160D02*
X178112Y166461D01*
X165361Y179212D01*
X183060Y196911D01*
X195811Y184160D01*
G37*
G36*
X380359Y228708D02*
X362660Y211009D01*
X349909Y223760D01*
X367608Y241459D01*
X380359Y228708D01*
G37*
G36*
X335811Y184160D02*
X318112Y166461D01*
X305361Y179212D01*
X323060Y196911D01*
X335811Y184160D01*
G37*
G36*
X520359Y228708D02*
X502660Y211009D01*
X489909Y223760D01*
X507608Y241459D01*
X520359Y228708D01*
G37*
G36*
X475811Y184160D02*
X458112Y166461D01*
X445361Y179212D01*
X463060Y196911D01*
X475811Y184160D01*
G37*
G36*
X660359Y228708D02*
X642660Y211009D01*
X629909Y223760D01*
X647608Y241459D01*
X660359Y228708D01*
G37*
G36*
X615811Y184160D02*
X598112Y166461D01*
X585361Y179212D01*
X603060Y196911D01*
X615811Y184160D01*
G37*
G36*
X800359Y228708D02*
X782660Y211009D01*
X769909Y223760D01*
X787608Y241459D01*
X800359Y228708D01*
G37*
G36*
X755811Y184160D02*
X738112Y166461D01*
X725361Y179212D01*
X743060Y196911D01*
X755811Y184160D01*
G37*
G36*
X940359Y228708D02*
X922660Y211009D01*
X909909Y223760D01*
X927608Y241459D01*
X940359Y228708D01*
G37*
G36*
X895811Y184160D02*
X878112Y166461D01*
X865361Y179212D01*
X883060Y196911D01*
X895811Y184160D01*
G37*
G36*
X1080359Y228708D02*
X1062660Y211009D01*
X1049909Y223760D01*
X1067608Y241459D01*
X1080359Y228708D01*
G37*
G36*
X1035811Y184160D02*
X1018112Y166461D01*
X1005361Y179212D01*
X1023060Y196911D01*
X1035811Y184160D01*
G37*
G36*
X100359Y88708D02*
X82660Y71009D01*
X69909Y83760D01*
X87608Y101459D01*
X100359Y88708D01*
G37*
G36*
X55811Y44160D02*
X38112Y26461D01*
X25361Y39212D01*
X43060Y56911D01*
X55811Y44160D01*
G37*
G36*
X240359Y88708D02*
X222660Y71009D01*
X209909Y83760D01*
X227608Y101459D01*
X240359Y88708D01*
G37*
G36*
X195811Y44160D02*
X178112Y26461D01*
X165361Y39212D01*
X183060Y56911D01*
X195811Y44160D01*
G37*
G36*
X380359Y88708D02*
X362660Y71009D01*
X349909Y83760D01*
X367608Y101459D01*
X380359Y88708D01*
G37*
G36*
X335811Y44160D02*
X318112Y26461D01*
X305361Y39212D01*
X323060Y56911D01*
X335811Y44160D01*
G37*
G36*
X800359Y1068708D02*
X782660Y1051009D01*
X769909Y1063760D01*
X787608Y1081459D01*
X800359Y1068708D01*
G37*
G36*
X755811Y1024160D02*
X738112Y1006461D01*
X725361Y1019212D01*
X743060Y1036911D01*
X755811Y1024160D01*
G37*
G36*
X520359Y88708D02*
X502660Y71009D01*
X489909Y83760D01*
X507608Y101459D01*
X520359Y88708D01*
G37*
G36*
X475811Y44160D02*
X458112Y26461D01*
X445361Y39212D01*
X463060Y56911D01*
X475811Y44160D01*
G37*
G36*
X660359Y88708D02*
X642660Y71009D01*
X629909Y83760D01*
X647608Y101459D01*
X660359Y88708D01*
G37*
G36*
X615811Y44160D02*
X598112Y26461D01*
X585361Y39212D01*
X603060Y56911D01*
X615811Y44160D01*
G37*
G36*
X800359Y88708D02*
X782660Y71009D01*
X769909Y83760D01*
X787608Y101459D01*
X800359Y88708D01*
G37*
G36*
X755811Y44160D02*
X738112Y26461D01*
X725361Y39212D01*
X743060Y56911D01*
X755811Y44160D01*
G37*
G36*
X940359Y88708D02*
X922660Y71009D01*
X909909Y83760D01*
X927608Y101459D01*
X940359Y88708D01*
G37*
G36*
X895811Y44160D02*
X878112Y26461D01*
X865361Y39212D01*
X883060Y56911D01*
X895811Y44160D01*
G37*
G36*
X1080359Y88708D02*
X1062660Y71009D01*
X1049909Y83760D01*
X1067608Y101459D01*
X1080359Y88708D01*
G37*
G36*
X1035811Y44160D02*
X1018112Y26461D01*
X1005361Y39212D01*
X1023060Y56911D01*
X1035811Y44160D01*
G37*
G36*
X1220359Y88708D02*
X1202660Y71009D01*
X1189909Y83760D01*
X1207608Y101459D01*
X1220359Y88708D01*
G37*
G36*
X1175811Y44160D02*
X1158112Y26461D01*
X1145361Y39212D01*
X1163060Y56911D01*
X1175811Y44160D01*
G37*
G36*
X1220359Y228708D02*
X1202660Y211009D01*
X1189909Y223760D01*
X1207608Y241459D01*
X1220359Y228708D01*
G37*
G36*
X1175811Y184160D02*
X1158112Y166461D01*
X1145361Y179212D01*
X1163060Y196911D01*
X1175811Y184160D01*
G37*
G36*
X1220359Y368708D02*
X1202660Y351009D01*
X1189909Y363760D01*
X1207608Y381459D01*
X1220359Y368708D01*
G37*
G36*
X1175811Y324160D02*
X1158112Y306461D01*
X1145361Y319212D01*
X1163060Y336911D01*
X1175811Y324160D01*
G37*
G36*
X1220359Y508708D02*
X1202660Y491009D01*
X1189909Y503760D01*
X1207608Y521459D01*
X1220359Y508708D01*
G37*
G36*
X1175811Y464160D02*
X1158112Y446461D01*
X1145361Y459212D01*
X1163060Y476911D01*
X1175811Y464160D01*
G37*
G36*
X1220359Y648708D02*
X1202660Y631009D01*
X1189909Y643760D01*
X1207608Y661459D01*
X1220359Y648708D01*
G37*
G36*
X1175811Y604160D02*
X1158112Y586461D01*
X1145361Y599212D01*
X1163060Y616911D01*
X1175811Y604160D01*
G37*
G36*
X940359Y1068708D02*
X922660Y1051009D01*
X909909Y1063760D01*
X927608Y1081459D01*
X940359Y1068708D01*
G37*
G36*
X895811Y1024160D02*
X878112Y1006461D01*
X865361Y1019212D01*
X883060Y1036911D01*
X895811Y1024160D01*
G37*
G36*
X1220359Y788708D02*
X1202660Y771009D01*
X1189909Y783760D01*
X1207608Y801459D01*
X1220359Y788708D01*
G37*
G36*
X1175811Y744160D02*
X1158112Y726461D01*
X1145361Y739212D01*
X1163060Y756911D01*
X1175811Y744160D01*
G37*
G36*
X1220359Y928708D02*
X1202660Y911009D01*
X1189909Y923760D01*
X1207608Y941459D01*
X1220359Y928708D01*
G37*
G36*
X1175811Y884160D02*
X1158112Y866461D01*
X1145361Y879212D01*
X1163060Y896911D01*
X1175811Y884160D01*
G37*
G36*
X1220359Y1068708D02*
X1202660Y1051009D01*
X1189909Y1063760D01*
X1207608Y1081459D01*
X1220359Y1068708D01*
G37*
G36*
X1175811Y1024160D02*
X1158112Y1006461D01*
X1145361Y1019212D01*
X1163060Y1036911D01*
X1175811Y1024160D01*
G37*
D15*
X1426230Y1017200D03*
X1281450Y1042600D03*
D16*
X1351300Y1083240D03*
X1351300Y951160D03*
D15*
X1281450Y991800D03*
X1426230Y1042600D03*
X1426230Y991800D03*
D14*
G36*
X1080359Y1068708D02*
X1062660Y1051009D01*
X1049909Y1063760D01*
X1067608Y1081459D01*
X1080359Y1068708D01*
G37*
G36*
X1035811Y1024160D02*
X1018112Y1006461D01*
X1005361Y1019212D01*
X1023060Y1036911D01*
X1035811Y1024160D01*
G37*
G36*
X100359Y928708D02*
X82660Y911009D01*
X69909Y923760D01*
X87608Y941459D01*
X100359Y928708D01*
G37*
G36*
X55811Y884160D02*
X38112Y866461D01*
X25361Y879212D01*
X43060Y896911D01*
X55811Y884160D01*
G37*
D11*
X1562860Y1093960D03*
X1562860Y1008960D03*
X1562860Y978960D03*
X1672860Y953960D03*
X1672860Y868960D03*
X1672860Y838960D03*
X1672860Y813960D03*
X1672860Y728960D03*
X1672860Y698960D03*
X1672860Y673960D03*
X1672860Y588960D03*
X1672860Y558960D03*
X1672860Y533960D03*
X1672860Y448960D03*
X1672860Y418960D03*
X1672860Y393960D03*
X1672860Y308960D03*
X1672860Y278960D03*
X1672860Y253960D03*
X1672860Y168960D03*
X1672860Y138960D03*
X1672860Y13960D03*
X1672860Y98960D03*
X1672860Y128960D03*
X1562860Y953960D03*
X1562860Y868960D03*
X1562860Y838960D03*
X1562860Y813960D03*
X1562860Y728960D03*
X1562860Y698960D03*
X1562860Y673960D03*
X1562860Y588960D03*
X1562860Y558960D03*
X1562860Y533960D03*
X1562860Y448960D03*
X1562860Y418960D03*
X1562860Y393960D03*
X1562860Y308960D03*
X1562860Y278960D03*
X1562860Y253960D03*
X1562860Y168960D03*
X1562860Y138960D03*
X1562860Y13960D03*
X1562860Y98960D03*
X1562860Y128960D03*
X1672860Y1093960D03*
X1672860Y1008960D03*
X1672860Y978960D03*
D17*
X1273300Y884040D02*
X1273300Y870960D01*
X1298700Y870960D02*
X1298700Y884040D01*
X1324100Y884040D02*
X1324100Y870960D01*
X1349500Y870960D02*
X1349500Y884040D01*
X1374900Y884040D02*
X1374900Y870960D01*
X1400300Y870960D02*
X1400300Y884040D01*
X1406460Y852100D02*
X1419540Y852100D01*
X1419540Y826700D02*
X1406460Y826700D01*
X1406460Y801300D02*
X1419540Y801300D01*
X1419540Y775900D02*
X1406460Y775900D01*
X1406460Y750500D02*
X1419540Y750500D01*
X1419540Y725100D02*
X1406460Y725100D01*
X1406460Y699700D02*
X1419540Y699700D01*
X1419540Y674300D02*
X1406460Y674300D01*
X1406460Y648900D02*
X1419540Y648900D01*
X1419540Y623500D02*
X1406460Y623500D01*
X1406460Y598100D02*
X1419540Y598100D01*
X1419540Y572700D02*
X1406460Y572700D01*
X1267140Y852100D02*
X1254060Y852100D01*
X1254060Y826700D02*
X1267140Y826700D01*
X1267140Y801300D02*
X1254060Y801300D01*
X1254060Y775900D02*
X1267140Y775900D01*
X1267140Y674300D02*
X1254060Y674300D01*
X1254060Y699700D02*
X1267140Y699700D01*
X1267140Y725100D02*
X1254060Y725100D01*
X1254060Y750500D02*
X1267140Y750500D01*
X1267140Y648900D02*
X1254060Y648900D01*
X1254060Y623500D02*
X1267140Y623500D01*
X1267140Y598100D02*
X1254060Y598100D01*
X1254060Y572700D02*
X1267140Y572700D01*
X1298700Y579240D02*
X1298700Y566160D01*
X1324100Y566160D02*
X1324100Y579240D01*
X1349500Y579240D02*
X1349500Y566160D01*
D18*
X1298700Y763200D03*
X1298700Y737800D03*
D19*
X1282700Y63500D03*
X1308100Y63500D03*
X1282700Y88900D03*
X1308100Y88900D03*
X1282700Y114300D03*
X1308100Y114300D03*
X1282700Y139700D03*
X1308100Y139700D03*
X1282700Y165100D03*
X1308100Y165100D03*
D20*
X803000Y1016000D03*
X848000Y1016000D03*
M02*
