G04 EAGLE Gerber RS-274X export*
G75*
%MOMM*%
%FSLAX34Y34*%
%LPD*%
%INSolderpaste Top*%
%IPPOS*%
%AMOC8*
5,1,8,0,0,1.08239X$1,22.5*%
G01*
%ADD10R,1.000000X1.100000*%
%ADD11R,0.850000X1.000000*%
%ADD12R,2.300000X1.600000*%


D10*
X105070Y994630D03*
X105070Y1011630D03*
X1085070Y994630D03*
X1085070Y1011630D03*
X105070Y714630D03*
X105070Y731630D03*
X1085070Y714630D03*
X1085070Y731630D03*
X105070Y434630D03*
X105070Y451630D03*
X1085070Y434630D03*
X1085070Y451630D03*
X1085070Y154630D03*
X1085070Y171630D03*
X105070Y154630D03*
X105070Y171630D03*
X1199670Y269230D03*
X1199670Y286230D03*
X1199670Y969230D03*
X1199670Y986230D03*
D11*
G36*
X17038Y1073483D02*
X23048Y1067473D01*
X15978Y1060403D01*
X9968Y1066413D01*
X17038Y1073483D01*
G37*
G36*
X41787Y1098232D02*
X47797Y1092222D01*
X40727Y1085152D01*
X34717Y1091162D01*
X41787Y1098232D01*
G37*
G36*
X29413Y1061108D02*
X35423Y1055098D01*
X28353Y1048028D01*
X22343Y1054038D01*
X29413Y1061108D01*
G37*
G36*
X54162Y1085857D02*
X60172Y1079847D01*
X53102Y1072777D01*
X47092Y1078787D01*
X54162Y1085857D01*
G37*
G36*
X893102Y932777D02*
X887092Y938787D01*
X894162Y945857D01*
X900172Y939847D01*
X893102Y932777D01*
G37*
G36*
X868353Y908028D02*
X862343Y914038D01*
X869413Y921108D01*
X875423Y915098D01*
X868353Y908028D01*
G37*
G36*
X880727Y945152D02*
X874717Y951162D01*
X881787Y958232D01*
X887797Y952222D01*
X880727Y945152D01*
G37*
G36*
X855978Y920403D02*
X849968Y926413D01*
X857038Y933483D01*
X863048Y927473D01*
X855978Y920403D01*
G37*
G36*
X753102Y932777D02*
X747092Y938787D01*
X754162Y945857D01*
X760172Y939847D01*
X753102Y932777D01*
G37*
G36*
X728353Y908028D02*
X722343Y914038D01*
X729413Y921108D01*
X735423Y915098D01*
X728353Y908028D01*
G37*
G36*
X740727Y945152D02*
X734717Y951162D01*
X741787Y958232D01*
X747797Y952222D01*
X740727Y945152D01*
G37*
G36*
X715978Y920403D02*
X709968Y926413D01*
X717038Y933483D01*
X723048Y927473D01*
X715978Y920403D01*
G37*
G36*
X613102Y932777D02*
X607092Y938787D01*
X614162Y945857D01*
X620172Y939847D01*
X613102Y932777D01*
G37*
G36*
X588353Y908028D02*
X582343Y914038D01*
X589413Y921108D01*
X595423Y915098D01*
X588353Y908028D01*
G37*
G36*
X600727Y945152D02*
X594717Y951162D01*
X601787Y958232D01*
X607797Y952222D01*
X600727Y945152D01*
G37*
G36*
X575978Y920403D02*
X569968Y926413D01*
X577038Y933483D01*
X583048Y927473D01*
X575978Y920403D01*
G37*
G36*
X473102Y932777D02*
X467092Y938787D01*
X474162Y945857D01*
X480172Y939847D01*
X473102Y932777D01*
G37*
G36*
X448353Y908028D02*
X442343Y914038D01*
X449413Y921108D01*
X455423Y915098D01*
X448353Y908028D01*
G37*
G36*
X460727Y945152D02*
X454717Y951162D01*
X461787Y958232D01*
X467797Y952222D01*
X460727Y945152D01*
G37*
G36*
X435978Y920403D02*
X429968Y926413D01*
X437038Y933483D01*
X443048Y927473D01*
X435978Y920403D01*
G37*
G36*
X333102Y932777D02*
X327092Y938787D01*
X334162Y945857D01*
X340172Y939847D01*
X333102Y932777D01*
G37*
G36*
X308353Y908028D02*
X302343Y914038D01*
X309413Y921108D01*
X315423Y915098D01*
X308353Y908028D01*
G37*
G36*
X320727Y945152D02*
X314717Y951162D01*
X321787Y958232D01*
X327797Y952222D01*
X320727Y945152D01*
G37*
G36*
X295978Y920403D02*
X289968Y926413D01*
X297038Y933483D01*
X303048Y927473D01*
X295978Y920403D01*
G37*
G36*
X193102Y932777D02*
X187092Y938787D01*
X194162Y945857D01*
X200172Y939847D01*
X193102Y932777D01*
G37*
G36*
X168353Y908028D02*
X162343Y914038D01*
X169413Y921108D01*
X175423Y915098D01*
X168353Y908028D01*
G37*
G36*
X180727Y945152D02*
X174717Y951162D01*
X181787Y958232D01*
X187797Y952222D01*
X180727Y945152D01*
G37*
G36*
X155978Y920403D02*
X149968Y926413D01*
X157038Y933483D01*
X163048Y927473D01*
X155978Y920403D01*
G37*
G36*
X53102Y932777D02*
X47092Y938787D01*
X54162Y945857D01*
X60172Y939847D01*
X53102Y932777D01*
G37*
G36*
X28353Y908028D02*
X22343Y914038D01*
X29413Y921108D01*
X35423Y915098D01*
X28353Y908028D01*
G37*
G36*
X40727Y945152D02*
X34717Y951162D01*
X41787Y958232D01*
X47797Y952222D01*
X40727Y945152D01*
G37*
G36*
X15978Y920403D02*
X9968Y926413D01*
X17038Y933483D01*
X23048Y927473D01*
X15978Y920403D01*
G37*
G36*
X17038Y793483D02*
X23048Y787473D01*
X15978Y780403D01*
X9968Y786413D01*
X17038Y793483D01*
G37*
G36*
X41787Y818232D02*
X47797Y812222D01*
X40727Y805152D01*
X34717Y811162D01*
X41787Y818232D01*
G37*
G36*
X29413Y781108D02*
X35423Y775098D01*
X28353Y768028D01*
X22343Y774038D01*
X29413Y781108D01*
G37*
G36*
X54162Y805857D02*
X60172Y799847D01*
X53102Y792777D01*
X47092Y798787D01*
X54162Y805857D01*
G37*
G36*
X157038Y793483D02*
X163048Y787473D01*
X155978Y780403D01*
X149968Y786413D01*
X157038Y793483D01*
G37*
G36*
X181787Y818232D02*
X187797Y812222D01*
X180727Y805152D01*
X174717Y811162D01*
X181787Y818232D01*
G37*
G36*
X169413Y781108D02*
X175423Y775098D01*
X168353Y768028D01*
X162343Y774038D01*
X169413Y781108D01*
G37*
G36*
X194162Y805857D02*
X200172Y799847D01*
X193102Y792777D01*
X187092Y798787D01*
X194162Y805857D01*
G37*
G36*
X297038Y793483D02*
X303048Y787473D01*
X295978Y780403D01*
X289968Y786413D01*
X297038Y793483D01*
G37*
G36*
X321787Y818232D02*
X327797Y812222D01*
X320727Y805152D01*
X314717Y811162D01*
X321787Y818232D01*
G37*
G36*
X309413Y781108D02*
X315423Y775098D01*
X308353Y768028D01*
X302343Y774038D01*
X309413Y781108D01*
G37*
G36*
X334162Y805857D02*
X340172Y799847D01*
X333102Y792777D01*
X327092Y798787D01*
X334162Y805857D01*
G37*
G36*
X157038Y1073483D02*
X163048Y1067473D01*
X155978Y1060403D01*
X149968Y1066413D01*
X157038Y1073483D01*
G37*
G36*
X181787Y1098232D02*
X187797Y1092222D01*
X180727Y1085152D01*
X174717Y1091162D01*
X181787Y1098232D01*
G37*
G36*
X169413Y1061108D02*
X175423Y1055098D01*
X168353Y1048028D01*
X162343Y1054038D01*
X169413Y1061108D01*
G37*
G36*
X194162Y1085857D02*
X200172Y1079847D01*
X193102Y1072777D01*
X187092Y1078787D01*
X194162Y1085857D01*
G37*
G36*
X437038Y793483D02*
X443048Y787473D01*
X435978Y780403D01*
X429968Y786413D01*
X437038Y793483D01*
G37*
G36*
X461787Y818232D02*
X467797Y812222D01*
X460727Y805152D01*
X454717Y811162D01*
X461787Y818232D01*
G37*
G36*
X449413Y781108D02*
X455423Y775098D01*
X448353Y768028D01*
X442343Y774038D01*
X449413Y781108D01*
G37*
G36*
X474162Y805857D02*
X480172Y799847D01*
X473102Y792777D01*
X467092Y798787D01*
X474162Y805857D01*
G37*
G36*
X577038Y793483D02*
X583048Y787473D01*
X575978Y780403D01*
X569968Y786413D01*
X577038Y793483D01*
G37*
G36*
X601787Y818232D02*
X607797Y812222D01*
X600727Y805152D01*
X594717Y811162D01*
X601787Y818232D01*
G37*
G36*
X589413Y781108D02*
X595423Y775098D01*
X588353Y768028D01*
X582343Y774038D01*
X589413Y781108D01*
G37*
G36*
X614162Y805857D02*
X620172Y799847D01*
X613102Y792777D01*
X607092Y798787D01*
X614162Y805857D01*
G37*
G36*
X717038Y793483D02*
X723048Y787473D01*
X715978Y780403D01*
X709968Y786413D01*
X717038Y793483D01*
G37*
G36*
X741787Y818232D02*
X747797Y812222D01*
X740727Y805152D01*
X734717Y811162D01*
X741787Y818232D01*
G37*
G36*
X729413Y781108D02*
X735423Y775098D01*
X728353Y768028D01*
X722343Y774038D01*
X729413Y781108D01*
G37*
G36*
X754162Y805857D02*
X760172Y799847D01*
X753102Y792777D01*
X747092Y798787D01*
X754162Y805857D01*
G37*
G36*
X857038Y793483D02*
X863048Y787473D01*
X855978Y780403D01*
X849968Y786413D01*
X857038Y793483D01*
G37*
G36*
X881787Y818232D02*
X887797Y812222D01*
X880727Y805152D01*
X874717Y811162D01*
X881787Y818232D01*
G37*
G36*
X869413Y781108D02*
X875423Y775098D01*
X868353Y768028D01*
X862343Y774038D01*
X869413Y781108D01*
G37*
G36*
X894162Y805857D02*
X900172Y799847D01*
X893102Y792777D01*
X887092Y798787D01*
X894162Y805857D01*
G37*
G36*
X997038Y793483D02*
X1003048Y787473D01*
X995978Y780403D01*
X989968Y786413D01*
X997038Y793483D01*
G37*
G36*
X1021787Y818232D02*
X1027797Y812222D01*
X1020727Y805152D01*
X1014717Y811162D01*
X1021787Y818232D01*
G37*
G36*
X1009413Y781108D02*
X1015423Y775098D01*
X1008353Y768028D01*
X1002343Y774038D01*
X1009413Y781108D01*
G37*
G36*
X1034162Y805857D02*
X1040172Y799847D01*
X1033102Y792777D01*
X1027092Y798787D01*
X1034162Y805857D01*
G37*
G36*
X1033102Y652777D02*
X1027092Y658787D01*
X1034162Y665857D01*
X1040172Y659847D01*
X1033102Y652777D01*
G37*
G36*
X1008353Y628028D02*
X1002343Y634038D01*
X1009413Y641108D01*
X1015423Y635098D01*
X1008353Y628028D01*
G37*
G36*
X1020727Y665152D02*
X1014717Y671162D01*
X1021787Y678232D01*
X1027797Y672222D01*
X1020727Y665152D01*
G37*
G36*
X995978Y640403D02*
X989968Y646413D01*
X997038Y653483D01*
X1003048Y647473D01*
X995978Y640403D01*
G37*
G36*
X893102Y652777D02*
X887092Y658787D01*
X894162Y665857D01*
X900172Y659847D01*
X893102Y652777D01*
G37*
G36*
X868353Y628028D02*
X862343Y634038D01*
X869413Y641108D01*
X875423Y635098D01*
X868353Y628028D01*
G37*
G36*
X880727Y665152D02*
X874717Y671162D01*
X881787Y678232D01*
X887797Y672222D01*
X880727Y665152D01*
G37*
G36*
X855978Y640403D02*
X849968Y646413D01*
X857038Y653483D01*
X863048Y647473D01*
X855978Y640403D01*
G37*
G36*
X753102Y652777D02*
X747092Y658787D01*
X754162Y665857D01*
X760172Y659847D01*
X753102Y652777D01*
G37*
G36*
X728353Y628028D02*
X722343Y634038D01*
X729413Y641108D01*
X735423Y635098D01*
X728353Y628028D01*
G37*
G36*
X740727Y665152D02*
X734717Y671162D01*
X741787Y678232D01*
X747797Y672222D01*
X740727Y665152D01*
G37*
G36*
X715978Y640403D02*
X709968Y646413D01*
X717038Y653483D01*
X723048Y647473D01*
X715978Y640403D01*
G37*
G36*
X613102Y652777D02*
X607092Y658787D01*
X614162Y665857D01*
X620172Y659847D01*
X613102Y652777D01*
G37*
G36*
X588353Y628028D02*
X582343Y634038D01*
X589413Y641108D01*
X595423Y635098D01*
X588353Y628028D01*
G37*
G36*
X600727Y665152D02*
X594717Y671162D01*
X601787Y678232D01*
X607797Y672222D01*
X600727Y665152D01*
G37*
G36*
X575978Y640403D02*
X569968Y646413D01*
X577038Y653483D01*
X583048Y647473D01*
X575978Y640403D01*
G37*
G36*
X473102Y652777D02*
X467092Y658787D01*
X474162Y665857D01*
X480172Y659847D01*
X473102Y652777D01*
G37*
G36*
X448353Y628028D02*
X442343Y634038D01*
X449413Y641108D01*
X455423Y635098D01*
X448353Y628028D01*
G37*
G36*
X460727Y665152D02*
X454717Y671162D01*
X461787Y678232D01*
X467797Y672222D01*
X460727Y665152D01*
G37*
G36*
X435978Y640403D02*
X429968Y646413D01*
X437038Y653483D01*
X443048Y647473D01*
X435978Y640403D01*
G37*
G36*
X297038Y1073483D02*
X303048Y1067473D01*
X295978Y1060403D01*
X289968Y1066413D01*
X297038Y1073483D01*
G37*
G36*
X321787Y1098232D02*
X327797Y1092222D01*
X320727Y1085152D01*
X314717Y1091162D01*
X321787Y1098232D01*
G37*
G36*
X309413Y1061108D02*
X315423Y1055098D01*
X308353Y1048028D01*
X302343Y1054038D01*
X309413Y1061108D01*
G37*
G36*
X334162Y1085857D02*
X340172Y1079847D01*
X333102Y1072777D01*
X327092Y1078787D01*
X334162Y1085857D01*
G37*
G36*
X333102Y652777D02*
X327092Y658787D01*
X334162Y665857D01*
X340172Y659847D01*
X333102Y652777D01*
G37*
G36*
X308353Y628028D02*
X302343Y634038D01*
X309413Y641108D01*
X315423Y635098D01*
X308353Y628028D01*
G37*
G36*
X320727Y665152D02*
X314717Y671162D01*
X321787Y678232D01*
X327797Y672222D01*
X320727Y665152D01*
G37*
G36*
X295978Y640403D02*
X289968Y646413D01*
X297038Y653483D01*
X303048Y647473D01*
X295978Y640403D01*
G37*
G36*
X193102Y652777D02*
X187092Y658787D01*
X194162Y665857D01*
X200172Y659847D01*
X193102Y652777D01*
G37*
G36*
X168353Y628028D02*
X162343Y634038D01*
X169413Y641108D01*
X175423Y635098D01*
X168353Y628028D01*
G37*
G36*
X180727Y665152D02*
X174717Y671162D01*
X181787Y678232D01*
X187797Y672222D01*
X180727Y665152D01*
G37*
G36*
X155978Y640403D02*
X149968Y646413D01*
X157038Y653483D01*
X163048Y647473D01*
X155978Y640403D01*
G37*
G36*
X53102Y652777D02*
X47092Y658787D01*
X54162Y665857D01*
X60172Y659847D01*
X53102Y652777D01*
G37*
G36*
X28353Y628028D02*
X22343Y634038D01*
X29413Y641108D01*
X35423Y635098D01*
X28353Y628028D01*
G37*
G36*
X40727Y665152D02*
X34717Y671162D01*
X41787Y678232D01*
X47797Y672222D01*
X40727Y665152D01*
G37*
G36*
X15978Y640403D02*
X9968Y646413D01*
X17038Y653483D01*
X23048Y647473D01*
X15978Y640403D01*
G37*
G36*
X17038Y513483D02*
X23048Y507473D01*
X15978Y500403D01*
X9968Y506413D01*
X17038Y513483D01*
G37*
G36*
X41787Y538232D02*
X47797Y532222D01*
X40727Y525152D01*
X34717Y531162D01*
X41787Y538232D01*
G37*
G36*
X29413Y501108D02*
X35423Y495098D01*
X28353Y488028D01*
X22343Y494038D01*
X29413Y501108D01*
G37*
G36*
X54162Y525857D02*
X60172Y519847D01*
X53102Y512777D01*
X47092Y518787D01*
X54162Y525857D01*
G37*
G36*
X157038Y513483D02*
X163048Y507473D01*
X155978Y500403D01*
X149968Y506413D01*
X157038Y513483D01*
G37*
G36*
X181787Y538232D02*
X187797Y532222D01*
X180727Y525152D01*
X174717Y531162D01*
X181787Y538232D01*
G37*
G36*
X169413Y501108D02*
X175423Y495098D01*
X168353Y488028D01*
X162343Y494038D01*
X169413Y501108D01*
G37*
G36*
X194162Y525857D02*
X200172Y519847D01*
X193102Y512777D01*
X187092Y518787D01*
X194162Y525857D01*
G37*
G36*
X297038Y513483D02*
X303048Y507473D01*
X295978Y500403D01*
X289968Y506413D01*
X297038Y513483D01*
G37*
G36*
X321787Y538232D02*
X327797Y532222D01*
X320727Y525152D01*
X314717Y531162D01*
X321787Y538232D01*
G37*
G36*
X309413Y501108D02*
X315423Y495098D01*
X308353Y488028D01*
X302343Y494038D01*
X309413Y501108D01*
G37*
G36*
X334162Y525857D02*
X340172Y519847D01*
X333102Y512777D01*
X327092Y518787D01*
X334162Y525857D01*
G37*
G36*
X437038Y513483D02*
X443048Y507473D01*
X435978Y500403D01*
X429968Y506413D01*
X437038Y513483D01*
G37*
G36*
X461787Y538232D02*
X467797Y532222D01*
X460727Y525152D01*
X454717Y531162D01*
X461787Y538232D01*
G37*
G36*
X449413Y501108D02*
X455423Y495098D01*
X448353Y488028D01*
X442343Y494038D01*
X449413Y501108D01*
G37*
G36*
X474162Y525857D02*
X480172Y519847D01*
X473102Y512777D01*
X467092Y518787D01*
X474162Y525857D01*
G37*
G36*
X577038Y513483D02*
X583048Y507473D01*
X575978Y500403D01*
X569968Y506413D01*
X577038Y513483D01*
G37*
G36*
X601787Y538232D02*
X607797Y532222D01*
X600727Y525152D01*
X594717Y531162D01*
X601787Y538232D01*
G37*
G36*
X589413Y501108D02*
X595423Y495098D01*
X588353Y488028D01*
X582343Y494038D01*
X589413Y501108D01*
G37*
G36*
X614162Y525857D02*
X620172Y519847D01*
X613102Y512777D01*
X607092Y518787D01*
X614162Y525857D01*
G37*
G36*
X717038Y513483D02*
X723048Y507473D01*
X715978Y500403D01*
X709968Y506413D01*
X717038Y513483D01*
G37*
G36*
X741787Y538232D02*
X747797Y532222D01*
X740727Y525152D01*
X734717Y531162D01*
X741787Y538232D01*
G37*
G36*
X729413Y501108D02*
X735423Y495098D01*
X728353Y488028D01*
X722343Y494038D01*
X729413Y501108D01*
G37*
G36*
X754162Y525857D02*
X760172Y519847D01*
X753102Y512777D01*
X747092Y518787D01*
X754162Y525857D01*
G37*
G36*
X857038Y513483D02*
X863048Y507473D01*
X855978Y500403D01*
X849968Y506413D01*
X857038Y513483D01*
G37*
G36*
X881787Y538232D02*
X887797Y532222D01*
X880727Y525152D01*
X874717Y531162D01*
X881787Y538232D01*
G37*
G36*
X869413Y501108D02*
X875423Y495098D01*
X868353Y488028D01*
X862343Y494038D01*
X869413Y501108D01*
G37*
G36*
X894162Y525857D02*
X900172Y519847D01*
X893102Y512777D01*
X887092Y518787D01*
X894162Y525857D01*
G37*
G36*
X437038Y1073483D02*
X443048Y1067473D01*
X435978Y1060403D01*
X429968Y1066413D01*
X437038Y1073483D01*
G37*
G36*
X461787Y1098232D02*
X467797Y1092222D01*
X460727Y1085152D01*
X454717Y1091162D01*
X461787Y1098232D01*
G37*
G36*
X449413Y1061108D02*
X455423Y1055098D01*
X448353Y1048028D01*
X442343Y1054038D01*
X449413Y1061108D01*
G37*
G36*
X474162Y1085857D02*
X480172Y1079847D01*
X473102Y1072777D01*
X467092Y1078787D01*
X474162Y1085857D01*
G37*
G36*
X997038Y513483D02*
X1003048Y507473D01*
X995978Y500403D01*
X989968Y506413D01*
X997038Y513483D01*
G37*
G36*
X1021787Y538232D02*
X1027797Y532222D01*
X1020727Y525152D01*
X1014717Y531162D01*
X1021787Y538232D01*
G37*
G36*
X1009413Y501108D02*
X1015423Y495098D01*
X1008353Y488028D01*
X1002343Y494038D01*
X1009413Y501108D01*
G37*
G36*
X1034162Y525857D02*
X1040172Y519847D01*
X1033102Y512777D01*
X1027092Y518787D01*
X1034162Y525857D01*
G37*
G36*
X1033102Y372777D02*
X1027092Y378787D01*
X1034162Y385857D01*
X1040172Y379847D01*
X1033102Y372777D01*
G37*
G36*
X1008353Y348028D02*
X1002343Y354038D01*
X1009413Y361108D01*
X1015423Y355098D01*
X1008353Y348028D01*
G37*
G36*
X1020727Y385152D02*
X1014717Y391162D01*
X1021787Y398232D01*
X1027797Y392222D01*
X1020727Y385152D01*
G37*
G36*
X995978Y360403D02*
X989968Y366413D01*
X997038Y373483D01*
X1003048Y367473D01*
X995978Y360403D01*
G37*
G36*
X893102Y372777D02*
X887092Y378787D01*
X894162Y385857D01*
X900172Y379847D01*
X893102Y372777D01*
G37*
G36*
X868353Y348028D02*
X862343Y354038D01*
X869413Y361108D01*
X875423Y355098D01*
X868353Y348028D01*
G37*
G36*
X880727Y385152D02*
X874717Y391162D01*
X881787Y398232D01*
X887797Y392222D01*
X880727Y385152D01*
G37*
G36*
X855978Y360403D02*
X849968Y366413D01*
X857038Y373483D01*
X863048Y367473D01*
X855978Y360403D01*
G37*
G36*
X753102Y372777D02*
X747092Y378787D01*
X754162Y385857D01*
X760172Y379847D01*
X753102Y372777D01*
G37*
G36*
X728353Y348028D02*
X722343Y354038D01*
X729413Y361108D01*
X735423Y355098D01*
X728353Y348028D01*
G37*
G36*
X740727Y385152D02*
X734717Y391162D01*
X741787Y398232D01*
X747797Y392222D01*
X740727Y385152D01*
G37*
G36*
X715978Y360403D02*
X709968Y366413D01*
X717038Y373483D01*
X723048Y367473D01*
X715978Y360403D01*
G37*
G36*
X613102Y372777D02*
X607092Y378787D01*
X614162Y385857D01*
X620172Y379847D01*
X613102Y372777D01*
G37*
G36*
X588353Y348028D02*
X582343Y354038D01*
X589413Y361108D01*
X595423Y355098D01*
X588353Y348028D01*
G37*
G36*
X600727Y385152D02*
X594717Y391162D01*
X601787Y398232D01*
X607797Y392222D01*
X600727Y385152D01*
G37*
G36*
X575978Y360403D02*
X569968Y366413D01*
X577038Y373483D01*
X583048Y367473D01*
X575978Y360403D01*
G37*
G36*
X473102Y372777D02*
X467092Y378787D01*
X474162Y385857D01*
X480172Y379847D01*
X473102Y372777D01*
G37*
G36*
X448353Y348028D02*
X442343Y354038D01*
X449413Y361108D01*
X455423Y355098D01*
X448353Y348028D01*
G37*
G36*
X460727Y385152D02*
X454717Y391162D01*
X461787Y398232D01*
X467797Y392222D01*
X460727Y385152D01*
G37*
G36*
X435978Y360403D02*
X429968Y366413D01*
X437038Y373483D01*
X443048Y367473D01*
X435978Y360403D01*
G37*
G36*
X333102Y372777D02*
X327092Y378787D01*
X334162Y385857D01*
X340172Y379847D01*
X333102Y372777D01*
G37*
G36*
X308353Y348028D02*
X302343Y354038D01*
X309413Y361108D01*
X315423Y355098D01*
X308353Y348028D01*
G37*
G36*
X320727Y385152D02*
X314717Y391162D01*
X321787Y398232D01*
X327797Y392222D01*
X320727Y385152D01*
G37*
G36*
X295978Y360403D02*
X289968Y366413D01*
X297038Y373483D01*
X303048Y367473D01*
X295978Y360403D01*
G37*
G36*
X193102Y372777D02*
X187092Y378787D01*
X194162Y385857D01*
X200172Y379847D01*
X193102Y372777D01*
G37*
G36*
X168353Y348028D02*
X162343Y354038D01*
X169413Y361108D01*
X175423Y355098D01*
X168353Y348028D01*
G37*
G36*
X180727Y385152D02*
X174717Y391162D01*
X181787Y398232D01*
X187797Y392222D01*
X180727Y385152D01*
G37*
G36*
X155978Y360403D02*
X149968Y366413D01*
X157038Y373483D01*
X163048Y367473D01*
X155978Y360403D01*
G37*
G36*
X53102Y372777D02*
X47092Y378787D01*
X54162Y385857D01*
X60172Y379847D01*
X53102Y372777D01*
G37*
G36*
X28353Y348028D02*
X22343Y354038D01*
X29413Y361108D01*
X35423Y355098D01*
X28353Y348028D01*
G37*
G36*
X40727Y385152D02*
X34717Y391162D01*
X41787Y398232D01*
X47797Y392222D01*
X40727Y385152D01*
G37*
G36*
X15978Y360403D02*
X9968Y366413D01*
X17038Y373483D01*
X23048Y367473D01*
X15978Y360403D01*
G37*
G36*
X17038Y233483D02*
X23048Y227473D01*
X15978Y220403D01*
X9968Y226413D01*
X17038Y233483D01*
G37*
G36*
X41787Y258232D02*
X47797Y252222D01*
X40727Y245152D01*
X34717Y251162D01*
X41787Y258232D01*
G37*
G36*
X29413Y221108D02*
X35423Y215098D01*
X28353Y208028D01*
X22343Y214038D01*
X29413Y221108D01*
G37*
G36*
X54162Y245857D02*
X60172Y239847D01*
X53102Y232777D01*
X47092Y238787D01*
X54162Y245857D01*
G37*
G36*
X577038Y1073483D02*
X583048Y1067473D01*
X575978Y1060403D01*
X569968Y1066413D01*
X577038Y1073483D01*
G37*
G36*
X601787Y1098232D02*
X607797Y1092222D01*
X600727Y1085152D01*
X594717Y1091162D01*
X601787Y1098232D01*
G37*
G36*
X589413Y1061108D02*
X595423Y1055098D01*
X588353Y1048028D01*
X582343Y1054038D01*
X589413Y1061108D01*
G37*
G36*
X614162Y1085857D02*
X620172Y1079847D01*
X613102Y1072777D01*
X607092Y1078787D01*
X614162Y1085857D01*
G37*
G36*
X157038Y233483D02*
X163048Y227473D01*
X155978Y220403D01*
X149968Y226413D01*
X157038Y233483D01*
G37*
G36*
X181787Y258232D02*
X187797Y252222D01*
X180727Y245152D01*
X174717Y251162D01*
X181787Y258232D01*
G37*
G36*
X169413Y221108D02*
X175423Y215098D01*
X168353Y208028D01*
X162343Y214038D01*
X169413Y221108D01*
G37*
G36*
X194162Y245857D02*
X200172Y239847D01*
X193102Y232777D01*
X187092Y238787D01*
X194162Y245857D01*
G37*
G36*
X297038Y233483D02*
X303048Y227473D01*
X295978Y220403D01*
X289968Y226413D01*
X297038Y233483D01*
G37*
G36*
X321787Y258232D02*
X327797Y252222D01*
X320727Y245152D01*
X314717Y251162D01*
X321787Y258232D01*
G37*
G36*
X309413Y221108D02*
X315423Y215098D01*
X308353Y208028D01*
X302343Y214038D01*
X309413Y221108D01*
G37*
G36*
X334162Y245857D02*
X340172Y239847D01*
X333102Y232777D01*
X327092Y238787D01*
X334162Y245857D01*
G37*
G36*
X437038Y233483D02*
X443048Y227473D01*
X435978Y220403D01*
X429968Y226413D01*
X437038Y233483D01*
G37*
G36*
X461787Y258232D02*
X467797Y252222D01*
X460727Y245152D01*
X454717Y251162D01*
X461787Y258232D01*
G37*
G36*
X449413Y221108D02*
X455423Y215098D01*
X448353Y208028D01*
X442343Y214038D01*
X449413Y221108D01*
G37*
G36*
X474162Y245857D02*
X480172Y239847D01*
X473102Y232777D01*
X467092Y238787D01*
X474162Y245857D01*
G37*
G36*
X577038Y233483D02*
X583048Y227473D01*
X575978Y220403D01*
X569968Y226413D01*
X577038Y233483D01*
G37*
G36*
X601787Y258232D02*
X607797Y252222D01*
X600727Y245152D01*
X594717Y251162D01*
X601787Y258232D01*
G37*
G36*
X589413Y221108D02*
X595423Y215098D01*
X588353Y208028D01*
X582343Y214038D01*
X589413Y221108D01*
G37*
G36*
X614162Y245857D02*
X620172Y239847D01*
X613102Y232777D01*
X607092Y238787D01*
X614162Y245857D01*
G37*
G36*
X717038Y233483D02*
X723048Y227473D01*
X715978Y220403D01*
X709968Y226413D01*
X717038Y233483D01*
G37*
G36*
X741787Y258232D02*
X747797Y252222D01*
X740727Y245152D01*
X734717Y251162D01*
X741787Y258232D01*
G37*
G36*
X729413Y221108D02*
X735423Y215098D01*
X728353Y208028D01*
X722343Y214038D01*
X729413Y221108D01*
G37*
G36*
X754162Y245857D02*
X760172Y239847D01*
X753102Y232777D01*
X747092Y238787D01*
X754162Y245857D01*
G37*
G36*
X857038Y233483D02*
X863048Y227473D01*
X855978Y220403D01*
X849968Y226413D01*
X857038Y233483D01*
G37*
G36*
X881787Y258232D02*
X887797Y252222D01*
X880727Y245152D01*
X874717Y251162D01*
X881787Y258232D01*
G37*
G36*
X869413Y221108D02*
X875423Y215098D01*
X868353Y208028D01*
X862343Y214038D01*
X869413Y221108D01*
G37*
G36*
X894162Y245857D02*
X900172Y239847D01*
X893102Y232777D01*
X887092Y238787D01*
X894162Y245857D01*
G37*
G36*
X997038Y233483D02*
X1003048Y227473D01*
X995978Y220403D01*
X989968Y226413D01*
X997038Y233483D01*
G37*
G36*
X1021787Y258232D02*
X1027797Y252222D01*
X1020727Y245152D01*
X1014717Y251162D01*
X1021787Y258232D01*
G37*
G36*
X1009413Y221108D02*
X1015423Y215098D01*
X1008353Y208028D01*
X1002343Y214038D01*
X1009413Y221108D01*
G37*
G36*
X1034162Y245857D02*
X1040172Y239847D01*
X1033102Y232777D01*
X1027092Y238787D01*
X1034162Y245857D01*
G37*
G36*
X1033102Y92777D02*
X1027092Y98787D01*
X1034162Y105857D01*
X1040172Y99847D01*
X1033102Y92777D01*
G37*
G36*
X1008353Y68028D02*
X1002343Y74038D01*
X1009413Y81108D01*
X1015423Y75098D01*
X1008353Y68028D01*
G37*
G36*
X1020727Y105152D02*
X1014717Y111162D01*
X1021787Y118232D01*
X1027797Y112222D01*
X1020727Y105152D01*
G37*
G36*
X995978Y80403D02*
X989968Y86413D01*
X997038Y93483D01*
X1003048Y87473D01*
X995978Y80403D01*
G37*
G36*
X893102Y92777D02*
X887092Y98787D01*
X894162Y105857D01*
X900172Y99847D01*
X893102Y92777D01*
G37*
G36*
X868353Y68028D02*
X862343Y74038D01*
X869413Y81108D01*
X875423Y75098D01*
X868353Y68028D01*
G37*
G36*
X880727Y105152D02*
X874717Y111162D01*
X881787Y118232D01*
X887797Y112222D01*
X880727Y105152D01*
G37*
G36*
X855978Y80403D02*
X849968Y86413D01*
X857038Y93483D01*
X863048Y87473D01*
X855978Y80403D01*
G37*
G36*
X753102Y92777D02*
X747092Y98787D01*
X754162Y105857D01*
X760172Y99847D01*
X753102Y92777D01*
G37*
G36*
X728353Y68028D02*
X722343Y74038D01*
X729413Y81108D01*
X735423Y75098D01*
X728353Y68028D01*
G37*
G36*
X740727Y105152D02*
X734717Y111162D01*
X741787Y118232D01*
X747797Y112222D01*
X740727Y105152D01*
G37*
G36*
X715978Y80403D02*
X709968Y86413D01*
X717038Y93483D01*
X723048Y87473D01*
X715978Y80403D01*
G37*
G36*
X717038Y1073483D02*
X723048Y1067473D01*
X715978Y1060403D01*
X709968Y1066413D01*
X717038Y1073483D01*
G37*
G36*
X741787Y1098232D02*
X747797Y1092222D01*
X740727Y1085152D01*
X734717Y1091162D01*
X741787Y1098232D01*
G37*
G36*
X729413Y1061108D02*
X735423Y1055098D01*
X728353Y1048028D01*
X722343Y1054038D01*
X729413Y1061108D01*
G37*
G36*
X754162Y1085857D02*
X760172Y1079847D01*
X753102Y1072777D01*
X747092Y1078787D01*
X754162Y1085857D01*
G37*
G36*
X613102Y92777D02*
X607092Y98787D01*
X614162Y105857D01*
X620172Y99847D01*
X613102Y92777D01*
G37*
G36*
X588353Y68028D02*
X582343Y74038D01*
X589413Y81108D01*
X595423Y75098D01*
X588353Y68028D01*
G37*
G36*
X600727Y105152D02*
X594717Y111162D01*
X601787Y118232D01*
X607797Y112222D01*
X600727Y105152D01*
G37*
G36*
X575978Y80403D02*
X569968Y86413D01*
X577038Y93483D01*
X583048Y87473D01*
X575978Y80403D01*
G37*
G36*
X473102Y92777D02*
X467092Y98787D01*
X474162Y105857D01*
X480172Y99847D01*
X473102Y92777D01*
G37*
G36*
X448353Y68028D02*
X442343Y74038D01*
X449413Y81108D01*
X455423Y75098D01*
X448353Y68028D01*
G37*
G36*
X460727Y105152D02*
X454717Y111162D01*
X461787Y118232D01*
X467797Y112222D01*
X460727Y105152D01*
G37*
G36*
X435978Y80403D02*
X429968Y86413D01*
X437038Y93483D01*
X443048Y87473D01*
X435978Y80403D01*
G37*
G36*
X333102Y92777D02*
X327092Y98787D01*
X334162Y105857D01*
X340172Y99847D01*
X333102Y92777D01*
G37*
G36*
X308353Y68028D02*
X302343Y74038D01*
X309413Y81108D01*
X315423Y75098D01*
X308353Y68028D01*
G37*
G36*
X320727Y105152D02*
X314717Y111162D01*
X321787Y118232D01*
X327797Y112222D01*
X320727Y105152D01*
G37*
G36*
X295978Y80403D02*
X289968Y86413D01*
X297038Y93483D01*
X303048Y87473D01*
X295978Y80403D01*
G37*
G36*
X193102Y92777D02*
X187092Y98787D01*
X194162Y105857D01*
X200172Y99847D01*
X193102Y92777D01*
G37*
G36*
X168353Y68028D02*
X162343Y74038D01*
X169413Y81108D01*
X175423Y75098D01*
X168353Y68028D01*
G37*
G36*
X180727Y105152D02*
X174717Y111162D01*
X181787Y118232D01*
X187797Y112222D01*
X180727Y105152D01*
G37*
G36*
X155978Y80403D02*
X149968Y86413D01*
X157038Y93483D01*
X163048Y87473D01*
X155978Y80403D01*
G37*
G36*
X53102Y92777D02*
X47092Y98787D01*
X54162Y105857D01*
X60172Y99847D01*
X53102Y92777D01*
G37*
G36*
X28353Y68028D02*
X22343Y74038D01*
X29413Y81108D01*
X35423Y75098D01*
X28353Y68028D01*
G37*
G36*
X40727Y105152D02*
X34717Y111162D01*
X41787Y118232D01*
X47797Y112222D01*
X40727Y105152D01*
G37*
G36*
X15978Y80403D02*
X9968Y86413D01*
X17038Y93483D01*
X23048Y87473D01*
X15978Y80403D01*
G37*
G36*
X1173102Y92777D02*
X1167092Y98787D01*
X1174162Y105857D01*
X1180172Y99847D01*
X1173102Y92777D01*
G37*
G36*
X1148353Y68028D02*
X1142343Y74038D01*
X1149413Y81108D01*
X1155423Y75098D01*
X1148353Y68028D01*
G37*
G36*
X1160727Y105152D02*
X1154717Y111162D01*
X1161787Y118232D01*
X1167797Y112222D01*
X1160727Y105152D01*
G37*
G36*
X1135978Y80403D02*
X1129968Y86413D01*
X1137038Y93483D01*
X1143048Y87473D01*
X1135978Y80403D01*
G37*
G36*
X1173102Y232777D02*
X1167092Y238787D01*
X1174162Y245857D01*
X1180172Y239847D01*
X1173102Y232777D01*
G37*
G36*
X1148353Y208028D02*
X1142343Y214038D01*
X1149413Y221108D01*
X1155423Y215098D01*
X1148353Y208028D01*
G37*
G36*
X1160727Y245152D02*
X1154717Y251162D01*
X1161787Y258232D01*
X1167797Y252222D01*
X1160727Y245152D01*
G37*
G36*
X1135978Y220403D02*
X1129968Y226413D01*
X1137038Y233483D01*
X1143048Y227473D01*
X1135978Y220403D01*
G37*
G36*
X1173102Y372777D02*
X1167092Y378787D01*
X1174162Y385857D01*
X1180172Y379847D01*
X1173102Y372777D01*
G37*
G36*
X1148353Y348028D02*
X1142343Y354038D01*
X1149413Y361108D01*
X1155423Y355098D01*
X1148353Y348028D01*
G37*
G36*
X1160727Y385152D02*
X1154717Y391162D01*
X1161787Y398232D01*
X1167797Y392222D01*
X1160727Y385152D01*
G37*
G36*
X1135978Y360403D02*
X1129968Y366413D01*
X1137038Y373483D01*
X1143048Y367473D01*
X1135978Y360403D01*
G37*
G36*
X1173102Y512777D02*
X1167092Y518787D01*
X1174162Y525857D01*
X1180172Y519847D01*
X1173102Y512777D01*
G37*
G36*
X1148353Y488028D02*
X1142343Y494038D01*
X1149413Y501108D01*
X1155423Y495098D01*
X1148353Y488028D01*
G37*
G36*
X1160727Y525152D02*
X1154717Y531162D01*
X1161787Y538232D01*
X1167797Y532222D01*
X1160727Y525152D01*
G37*
G36*
X1135978Y500403D02*
X1129968Y506413D01*
X1137038Y513483D01*
X1143048Y507473D01*
X1135978Y500403D01*
G37*
G36*
X1173102Y652777D02*
X1167092Y658787D01*
X1174162Y665857D01*
X1180172Y659847D01*
X1173102Y652777D01*
G37*
G36*
X1148353Y628028D02*
X1142343Y634038D01*
X1149413Y641108D01*
X1155423Y635098D01*
X1148353Y628028D01*
G37*
G36*
X1160727Y665152D02*
X1154717Y671162D01*
X1161787Y678232D01*
X1167797Y672222D01*
X1160727Y665152D01*
G37*
G36*
X1135978Y640403D02*
X1129968Y646413D01*
X1137038Y653483D01*
X1143048Y647473D01*
X1135978Y640403D01*
G37*
G36*
X857038Y1073483D02*
X863048Y1067473D01*
X855978Y1060403D01*
X849968Y1066413D01*
X857038Y1073483D01*
G37*
G36*
X881787Y1098232D02*
X887797Y1092222D01*
X880727Y1085152D01*
X874717Y1091162D01*
X881787Y1098232D01*
G37*
G36*
X869413Y1061108D02*
X875423Y1055098D01*
X868353Y1048028D01*
X862343Y1054038D01*
X869413Y1061108D01*
G37*
G36*
X894162Y1085857D02*
X900172Y1079847D01*
X893102Y1072777D01*
X887092Y1078787D01*
X894162Y1085857D01*
G37*
G36*
X1173102Y792777D02*
X1167092Y798787D01*
X1174162Y805857D01*
X1180172Y799847D01*
X1173102Y792777D01*
G37*
G36*
X1148353Y768028D02*
X1142343Y774038D01*
X1149413Y781108D01*
X1155423Y775098D01*
X1148353Y768028D01*
G37*
G36*
X1160727Y805152D02*
X1154717Y811162D01*
X1161787Y818232D01*
X1167797Y812222D01*
X1160727Y805152D01*
G37*
G36*
X1135978Y780403D02*
X1129968Y786413D01*
X1137038Y793483D01*
X1143048Y787473D01*
X1135978Y780403D01*
G37*
G36*
X1173102Y932777D02*
X1167092Y938787D01*
X1174162Y945857D01*
X1180172Y939847D01*
X1173102Y932777D01*
G37*
G36*
X1148353Y908028D02*
X1142343Y914038D01*
X1149413Y921108D01*
X1155423Y915098D01*
X1148353Y908028D01*
G37*
G36*
X1160727Y945152D02*
X1154717Y951162D01*
X1161787Y958232D01*
X1167797Y952222D01*
X1160727Y945152D01*
G37*
G36*
X1135978Y920403D02*
X1129968Y926413D01*
X1137038Y933483D01*
X1143048Y927473D01*
X1135978Y920403D01*
G37*
G36*
X1137038Y1073483D02*
X1143048Y1067473D01*
X1135978Y1060403D01*
X1129968Y1066413D01*
X1137038Y1073483D01*
G37*
G36*
X1161787Y1098232D02*
X1167797Y1092222D01*
X1160727Y1085152D01*
X1154717Y1091162D01*
X1161787Y1098232D01*
G37*
G36*
X1149413Y1061108D02*
X1155423Y1055098D01*
X1148353Y1048028D01*
X1142343Y1054038D01*
X1149413Y1061108D01*
G37*
G36*
X1174162Y1085857D02*
X1180172Y1079847D01*
X1173102Y1072777D01*
X1167092Y1078787D01*
X1174162Y1085857D01*
G37*
G36*
X997038Y1073483D02*
X1003048Y1067473D01*
X995978Y1060403D01*
X989968Y1066413D01*
X997038Y1073483D01*
G37*
G36*
X1021787Y1098232D02*
X1027797Y1092222D01*
X1020727Y1085152D01*
X1014717Y1091162D01*
X1021787Y1098232D01*
G37*
G36*
X1009413Y1061108D02*
X1015423Y1055098D01*
X1008353Y1048028D01*
X1002343Y1054038D01*
X1009413Y1061108D01*
G37*
G36*
X1034162Y1085857D02*
X1040172Y1079847D01*
X1033102Y1072777D01*
X1027092Y1078787D01*
X1034162Y1085857D01*
G37*
G36*
X1033102Y932777D02*
X1027092Y938787D01*
X1034162Y945857D01*
X1040172Y939847D01*
X1033102Y932777D01*
G37*
G36*
X1008353Y908028D02*
X1002343Y914038D01*
X1009413Y921108D01*
X1015423Y915098D01*
X1008353Y908028D01*
G37*
G36*
X1020727Y945152D02*
X1014717Y951162D01*
X1021787Y958232D01*
X1027797Y952222D01*
X1020727Y945152D01*
G37*
G36*
X995978Y920403D02*
X989968Y926413D01*
X997038Y933483D01*
X1003048Y927473D01*
X995978Y920403D01*
G37*
D12*
G36*
X98922Y1068708D02*
X82660Y1052446D01*
X71346Y1063760D01*
X87608Y1080022D01*
X98922Y1068708D01*
G37*
G36*
X54374Y1024160D02*
X38112Y1007898D01*
X26798Y1019212D01*
X43060Y1035474D01*
X54374Y1024160D01*
G37*
G36*
X238922Y928708D02*
X222660Y912446D01*
X211346Y923760D01*
X227608Y940022D01*
X238922Y928708D01*
G37*
G36*
X194374Y884160D02*
X178112Y867898D01*
X166798Y879212D01*
X183060Y895474D01*
X194374Y884160D01*
G37*
G36*
X378922Y928708D02*
X362660Y912446D01*
X351346Y923760D01*
X367608Y940022D01*
X378922Y928708D01*
G37*
G36*
X334374Y884160D02*
X318112Y867898D01*
X306798Y879212D01*
X323060Y895474D01*
X334374Y884160D01*
G37*
G36*
X518922Y928708D02*
X502660Y912446D01*
X491346Y923760D01*
X507608Y940022D01*
X518922Y928708D01*
G37*
G36*
X474374Y884160D02*
X458112Y867898D01*
X446798Y879212D01*
X463060Y895474D01*
X474374Y884160D01*
G37*
G36*
X658922Y928708D02*
X642660Y912446D01*
X631346Y923760D01*
X647608Y940022D01*
X658922Y928708D01*
G37*
G36*
X614374Y884160D02*
X598112Y867898D01*
X586798Y879212D01*
X603060Y895474D01*
X614374Y884160D01*
G37*
G36*
X798922Y928708D02*
X782660Y912446D01*
X771346Y923760D01*
X787608Y940022D01*
X798922Y928708D01*
G37*
G36*
X754374Y884160D02*
X738112Y867898D01*
X726798Y879212D01*
X743060Y895474D01*
X754374Y884160D01*
G37*
G36*
X938922Y928708D02*
X922660Y912446D01*
X911346Y923760D01*
X927608Y940022D01*
X938922Y928708D01*
G37*
G36*
X894374Y884160D02*
X878112Y867898D01*
X866798Y879212D01*
X883060Y895474D01*
X894374Y884160D01*
G37*
G36*
X1078922Y928708D02*
X1062660Y912446D01*
X1051346Y923760D01*
X1067608Y940022D01*
X1078922Y928708D01*
G37*
G36*
X1034374Y884160D02*
X1018112Y867898D01*
X1006798Y879212D01*
X1023060Y895474D01*
X1034374Y884160D01*
G37*
G36*
X98922Y788708D02*
X82660Y772446D01*
X71346Y783760D01*
X87608Y800022D01*
X98922Y788708D01*
G37*
G36*
X54374Y744160D02*
X38112Y727898D01*
X26798Y739212D01*
X43060Y755474D01*
X54374Y744160D01*
G37*
G36*
X238922Y788708D02*
X222660Y772446D01*
X211346Y783760D01*
X227608Y800022D01*
X238922Y788708D01*
G37*
G36*
X194374Y744160D02*
X178112Y727898D01*
X166798Y739212D01*
X183060Y755474D01*
X194374Y744160D01*
G37*
G36*
X378922Y788708D02*
X362660Y772446D01*
X351346Y783760D01*
X367608Y800022D01*
X378922Y788708D01*
G37*
G36*
X334374Y744160D02*
X318112Y727898D01*
X306798Y739212D01*
X323060Y755474D01*
X334374Y744160D01*
G37*
G36*
X238922Y1068708D02*
X222660Y1052446D01*
X211346Y1063760D01*
X227608Y1080022D01*
X238922Y1068708D01*
G37*
G36*
X194374Y1024160D02*
X178112Y1007898D01*
X166798Y1019212D01*
X183060Y1035474D01*
X194374Y1024160D01*
G37*
G36*
X518922Y788708D02*
X502660Y772446D01*
X491346Y783760D01*
X507608Y800022D01*
X518922Y788708D01*
G37*
G36*
X474374Y744160D02*
X458112Y727898D01*
X446798Y739212D01*
X463060Y755474D01*
X474374Y744160D01*
G37*
G36*
X658922Y788708D02*
X642660Y772446D01*
X631346Y783760D01*
X647608Y800022D01*
X658922Y788708D01*
G37*
G36*
X614374Y744160D02*
X598112Y727898D01*
X586798Y739212D01*
X603060Y755474D01*
X614374Y744160D01*
G37*
G36*
X798922Y788708D02*
X782660Y772446D01*
X771346Y783760D01*
X787608Y800022D01*
X798922Y788708D01*
G37*
G36*
X754374Y744160D02*
X738112Y727898D01*
X726798Y739212D01*
X743060Y755474D01*
X754374Y744160D01*
G37*
G36*
X938922Y788708D02*
X922660Y772446D01*
X911346Y783760D01*
X927608Y800022D01*
X938922Y788708D01*
G37*
G36*
X894374Y744160D02*
X878112Y727898D01*
X866798Y739212D01*
X883060Y755474D01*
X894374Y744160D01*
G37*
G36*
X1078922Y788708D02*
X1062660Y772446D01*
X1051346Y783760D01*
X1067608Y800022D01*
X1078922Y788708D01*
G37*
G36*
X1034374Y744160D02*
X1018112Y727898D01*
X1006798Y739212D01*
X1023060Y755474D01*
X1034374Y744160D01*
G37*
G36*
X98922Y648708D02*
X82660Y632446D01*
X71346Y643760D01*
X87608Y660022D01*
X98922Y648708D01*
G37*
G36*
X54374Y604160D02*
X38112Y587898D01*
X26798Y599212D01*
X43060Y615474D01*
X54374Y604160D01*
G37*
G36*
X238922Y648708D02*
X222660Y632446D01*
X211346Y643760D01*
X227608Y660022D01*
X238922Y648708D01*
G37*
G36*
X194374Y604160D02*
X178112Y587898D01*
X166798Y599212D01*
X183060Y615474D01*
X194374Y604160D01*
G37*
G36*
X378922Y648708D02*
X362660Y632446D01*
X351346Y643760D01*
X367608Y660022D01*
X378922Y648708D01*
G37*
G36*
X334374Y604160D02*
X318112Y587898D01*
X306798Y599212D01*
X323060Y615474D01*
X334374Y604160D01*
G37*
G36*
X518922Y648708D02*
X502660Y632446D01*
X491346Y643760D01*
X507608Y660022D01*
X518922Y648708D01*
G37*
G36*
X474374Y604160D02*
X458112Y587898D01*
X446798Y599212D01*
X463060Y615474D01*
X474374Y604160D01*
G37*
G36*
X658922Y648708D02*
X642660Y632446D01*
X631346Y643760D01*
X647608Y660022D01*
X658922Y648708D01*
G37*
G36*
X614374Y604160D02*
X598112Y587898D01*
X586798Y599212D01*
X603060Y615474D01*
X614374Y604160D01*
G37*
G36*
X378922Y1068708D02*
X362660Y1052446D01*
X351346Y1063760D01*
X367608Y1080022D01*
X378922Y1068708D01*
G37*
G36*
X334374Y1024160D02*
X318112Y1007898D01*
X306798Y1019212D01*
X323060Y1035474D01*
X334374Y1024160D01*
G37*
G36*
X798922Y648708D02*
X782660Y632446D01*
X771346Y643760D01*
X787608Y660022D01*
X798922Y648708D01*
G37*
G36*
X754374Y604160D02*
X738112Y587898D01*
X726798Y599212D01*
X743060Y615474D01*
X754374Y604160D01*
G37*
G36*
X938922Y648708D02*
X922660Y632446D01*
X911346Y643760D01*
X927608Y660022D01*
X938922Y648708D01*
G37*
G36*
X894374Y604160D02*
X878112Y587898D01*
X866798Y599212D01*
X883060Y615474D01*
X894374Y604160D01*
G37*
G36*
X1078922Y648708D02*
X1062660Y632446D01*
X1051346Y643760D01*
X1067608Y660022D01*
X1078922Y648708D01*
G37*
G36*
X1034374Y604160D02*
X1018112Y587898D01*
X1006798Y599212D01*
X1023060Y615474D01*
X1034374Y604160D01*
G37*
G36*
X98922Y508708D02*
X82660Y492446D01*
X71346Y503760D01*
X87608Y520022D01*
X98922Y508708D01*
G37*
G36*
X54374Y464160D02*
X38112Y447898D01*
X26798Y459212D01*
X43060Y475474D01*
X54374Y464160D01*
G37*
G36*
X238922Y508708D02*
X222660Y492446D01*
X211346Y503760D01*
X227608Y520022D01*
X238922Y508708D01*
G37*
G36*
X194374Y464160D02*
X178112Y447898D01*
X166798Y459212D01*
X183060Y475474D01*
X194374Y464160D01*
G37*
G36*
X378922Y508708D02*
X362660Y492446D01*
X351346Y503760D01*
X367608Y520022D01*
X378922Y508708D01*
G37*
G36*
X334374Y464160D02*
X318112Y447898D01*
X306798Y459212D01*
X323060Y475474D01*
X334374Y464160D01*
G37*
G36*
X518922Y508708D02*
X502660Y492446D01*
X491346Y503760D01*
X507608Y520022D01*
X518922Y508708D01*
G37*
G36*
X474374Y464160D02*
X458112Y447898D01*
X446798Y459212D01*
X463060Y475474D01*
X474374Y464160D01*
G37*
G36*
X658922Y508708D02*
X642660Y492446D01*
X631346Y503760D01*
X647608Y520022D01*
X658922Y508708D01*
G37*
G36*
X614374Y464160D02*
X598112Y447898D01*
X586798Y459212D01*
X603060Y475474D01*
X614374Y464160D01*
G37*
G36*
X798922Y508708D02*
X782660Y492446D01*
X771346Y503760D01*
X787608Y520022D01*
X798922Y508708D01*
G37*
G36*
X754374Y464160D02*
X738112Y447898D01*
X726798Y459212D01*
X743060Y475474D01*
X754374Y464160D01*
G37*
G36*
X938922Y508708D02*
X922660Y492446D01*
X911346Y503760D01*
X927608Y520022D01*
X938922Y508708D01*
G37*
G36*
X894374Y464160D02*
X878112Y447898D01*
X866798Y459212D01*
X883060Y475474D01*
X894374Y464160D01*
G37*
G36*
X518922Y1068708D02*
X502660Y1052446D01*
X491346Y1063760D01*
X507608Y1080022D01*
X518922Y1068708D01*
G37*
G36*
X474374Y1024160D02*
X458112Y1007898D01*
X446798Y1019212D01*
X463060Y1035474D01*
X474374Y1024160D01*
G37*
G36*
X1078922Y508708D02*
X1062660Y492446D01*
X1051346Y503760D01*
X1067608Y520022D01*
X1078922Y508708D01*
G37*
G36*
X1034374Y464160D02*
X1018112Y447898D01*
X1006798Y459212D01*
X1023060Y475474D01*
X1034374Y464160D01*
G37*
G36*
X98922Y368708D02*
X82660Y352446D01*
X71346Y363760D01*
X87608Y380022D01*
X98922Y368708D01*
G37*
G36*
X54374Y324160D02*
X38112Y307898D01*
X26798Y319212D01*
X43060Y335474D01*
X54374Y324160D01*
G37*
G36*
X238922Y368708D02*
X222660Y352446D01*
X211346Y363760D01*
X227608Y380022D01*
X238922Y368708D01*
G37*
G36*
X194374Y324160D02*
X178112Y307898D01*
X166798Y319212D01*
X183060Y335474D01*
X194374Y324160D01*
G37*
G36*
X378922Y368708D02*
X362660Y352446D01*
X351346Y363760D01*
X367608Y380022D01*
X378922Y368708D01*
G37*
G36*
X334374Y324160D02*
X318112Y307898D01*
X306798Y319212D01*
X323060Y335474D01*
X334374Y324160D01*
G37*
G36*
X518922Y368708D02*
X502660Y352446D01*
X491346Y363760D01*
X507608Y380022D01*
X518922Y368708D01*
G37*
G36*
X474374Y324160D02*
X458112Y307898D01*
X446798Y319212D01*
X463060Y335474D01*
X474374Y324160D01*
G37*
G36*
X658922Y368708D02*
X642660Y352446D01*
X631346Y363760D01*
X647608Y380022D01*
X658922Y368708D01*
G37*
G36*
X614374Y324160D02*
X598112Y307898D01*
X586798Y319212D01*
X603060Y335474D01*
X614374Y324160D01*
G37*
G36*
X798922Y368708D02*
X782660Y352446D01*
X771346Y363760D01*
X787608Y380022D01*
X798922Y368708D01*
G37*
G36*
X754374Y324160D02*
X738112Y307898D01*
X726798Y319212D01*
X743060Y335474D01*
X754374Y324160D01*
G37*
G36*
X938922Y368708D02*
X922660Y352446D01*
X911346Y363760D01*
X927608Y380022D01*
X938922Y368708D01*
G37*
G36*
X894374Y324160D02*
X878112Y307898D01*
X866798Y319212D01*
X883060Y335474D01*
X894374Y324160D01*
G37*
G36*
X1078922Y368708D02*
X1062660Y352446D01*
X1051346Y363760D01*
X1067608Y380022D01*
X1078922Y368708D01*
G37*
G36*
X1034374Y324160D02*
X1018112Y307898D01*
X1006798Y319212D01*
X1023060Y335474D01*
X1034374Y324160D01*
G37*
G36*
X98922Y228708D02*
X82660Y212446D01*
X71346Y223760D01*
X87608Y240022D01*
X98922Y228708D01*
G37*
G36*
X54374Y184160D02*
X38112Y167898D01*
X26798Y179212D01*
X43060Y195474D01*
X54374Y184160D01*
G37*
G36*
X658922Y1068708D02*
X642660Y1052446D01*
X631346Y1063760D01*
X647608Y1080022D01*
X658922Y1068708D01*
G37*
G36*
X614374Y1024160D02*
X598112Y1007898D01*
X586798Y1019212D01*
X603060Y1035474D01*
X614374Y1024160D01*
G37*
G36*
X238922Y228708D02*
X222660Y212446D01*
X211346Y223760D01*
X227608Y240022D01*
X238922Y228708D01*
G37*
G36*
X194374Y184160D02*
X178112Y167898D01*
X166798Y179212D01*
X183060Y195474D01*
X194374Y184160D01*
G37*
G36*
X378922Y228708D02*
X362660Y212446D01*
X351346Y223760D01*
X367608Y240022D01*
X378922Y228708D01*
G37*
G36*
X334374Y184160D02*
X318112Y167898D01*
X306798Y179212D01*
X323060Y195474D01*
X334374Y184160D01*
G37*
G36*
X518922Y228708D02*
X502660Y212446D01*
X491346Y223760D01*
X507608Y240022D01*
X518922Y228708D01*
G37*
G36*
X474374Y184160D02*
X458112Y167898D01*
X446798Y179212D01*
X463060Y195474D01*
X474374Y184160D01*
G37*
G36*
X658922Y228708D02*
X642660Y212446D01*
X631346Y223760D01*
X647608Y240022D01*
X658922Y228708D01*
G37*
G36*
X614374Y184160D02*
X598112Y167898D01*
X586798Y179212D01*
X603060Y195474D01*
X614374Y184160D01*
G37*
G36*
X798922Y228708D02*
X782660Y212446D01*
X771346Y223760D01*
X787608Y240022D01*
X798922Y228708D01*
G37*
G36*
X754374Y184160D02*
X738112Y167898D01*
X726798Y179212D01*
X743060Y195474D01*
X754374Y184160D01*
G37*
G36*
X938922Y228708D02*
X922660Y212446D01*
X911346Y223760D01*
X927608Y240022D01*
X938922Y228708D01*
G37*
G36*
X894374Y184160D02*
X878112Y167898D01*
X866798Y179212D01*
X883060Y195474D01*
X894374Y184160D01*
G37*
G36*
X1078922Y228708D02*
X1062660Y212446D01*
X1051346Y223760D01*
X1067608Y240022D01*
X1078922Y228708D01*
G37*
G36*
X1034374Y184160D02*
X1018112Y167898D01*
X1006798Y179212D01*
X1023060Y195474D01*
X1034374Y184160D01*
G37*
G36*
X98922Y88708D02*
X82660Y72446D01*
X71346Y83760D01*
X87608Y100022D01*
X98922Y88708D01*
G37*
G36*
X54374Y44160D02*
X38112Y27898D01*
X26798Y39212D01*
X43060Y55474D01*
X54374Y44160D01*
G37*
G36*
X238922Y88708D02*
X222660Y72446D01*
X211346Y83760D01*
X227608Y100022D01*
X238922Y88708D01*
G37*
G36*
X194374Y44160D02*
X178112Y27898D01*
X166798Y39212D01*
X183060Y55474D01*
X194374Y44160D01*
G37*
G36*
X378922Y88708D02*
X362660Y72446D01*
X351346Y83760D01*
X367608Y100022D01*
X378922Y88708D01*
G37*
G36*
X334374Y44160D02*
X318112Y27898D01*
X306798Y39212D01*
X323060Y55474D01*
X334374Y44160D01*
G37*
G36*
X798922Y1068708D02*
X782660Y1052446D01*
X771346Y1063760D01*
X787608Y1080022D01*
X798922Y1068708D01*
G37*
G36*
X754374Y1024160D02*
X738112Y1007898D01*
X726798Y1019212D01*
X743060Y1035474D01*
X754374Y1024160D01*
G37*
G36*
X518922Y88708D02*
X502660Y72446D01*
X491346Y83760D01*
X507608Y100022D01*
X518922Y88708D01*
G37*
G36*
X474374Y44160D02*
X458112Y27898D01*
X446798Y39212D01*
X463060Y55474D01*
X474374Y44160D01*
G37*
G36*
X658922Y88708D02*
X642660Y72446D01*
X631346Y83760D01*
X647608Y100022D01*
X658922Y88708D01*
G37*
G36*
X614374Y44160D02*
X598112Y27898D01*
X586798Y39212D01*
X603060Y55474D01*
X614374Y44160D01*
G37*
G36*
X798922Y88708D02*
X782660Y72446D01*
X771346Y83760D01*
X787608Y100022D01*
X798922Y88708D01*
G37*
G36*
X754374Y44160D02*
X738112Y27898D01*
X726798Y39212D01*
X743060Y55474D01*
X754374Y44160D01*
G37*
G36*
X938922Y88708D02*
X922660Y72446D01*
X911346Y83760D01*
X927608Y100022D01*
X938922Y88708D01*
G37*
G36*
X894374Y44160D02*
X878112Y27898D01*
X866798Y39212D01*
X883060Y55474D01*
X894374Y44160D01*
G37*
G36*
X1078922Y88708D02*
X1062660Y72446D01*
X1051346Y83760D01*
X1067608Y100022D01*
X1078922Y88708D01*
G37*
G36*
X1034374Y44160D02*
X1018112Y27898D01*
X1006798Y39212D01*
X1023060Y55474D01*
X1034374Y44160D01*
G37*
G36*
X1218922Y88708D02*
X1202660Y72446D01*
X1191346Y83760D01*
X1207608Y100022D01*
X1218922Y88708D01*
G37*
G36*
X1174374Y44160D02*
X1158112Y27898D01*
X1146798Y39212D01*
X1163060Y55474D01*
X1174374Y44160D01*
G37*
G36*
X1218922Y228708D02*
X1202660Y212446D01*
X1191346Y223760D01*
X1207608Y240022D01*
X1218922Y228708D01*
G37*
G36*
X1174374Y184160D02*
X1158112Y167898D01*
X1146798Y179212D01*
X1163060Y195474D01*
X1174374Y184160D01*
G37*
G36*
X1218922Y368708D02*
X1202660Y352446D01*
X1191346Y363760D01*
X1207608Y380022D01*
X1218922Y368708D01*
G37*
G36*
X1174374Y324160D02*
X1158112Y307898D01*
X1146798Y319212D01*
X1163060Y335474D01*
X1174374Y324160D01*
G37*
G36*
X1218922Y508708D02*
X1202660Y492446D01*
X1191346Y503760D01*
X1207608Y520022D01*
X1218922Y508708D01*
G37*
G36*
X1174374Y464160D02*
X1158112Y447898D01*
X1146798Y459212D01*
X1163060Y475474D01*
X1174374Y464160D01*
G37*
G36*
X1218922Y648708D02*
X1202660Y632446D01*
X1191346Y643760D01*
X1207608Y660022D01*
X1218922Y648708D01*
G37*
G36*
X1174374Y604160D02*
X1158112Y587898D01*
X1146798Y599212D01*
X1163060Y615474D01*
X1174374Y604160D01*
G37*
G36*
X938922Y1068708D02*
X922660Y1052446D01*
X911346Y1063760D01*
X927608Y1080022D01*
X938922Y1068708D01*
G37*
G36*
X894374Y1024160D02*
X878112Y1007898D01*
X866798Y1019212D01*
X883060Y1035474D01*
X894374Y1024160D01*
G37*
G36*
X1218922Y788708D02*
X1202660Y772446D01*
X1191346Y783760D01*
X1207608Y800022D01*
X1218922Y788708D01*
G37*
G36*
X1174374Y744160D02*
X1158112Y727898D01*
X1146798Y739212D01*
X1163060Y755474D01*
X1174374Y744160D01*
G37*
G36*
X1218922Y928708D02*
X1202660Y912446D01*
X1191346Y923760D01*
X1207608Y940022D01*
X1218922Y928708D01*
G37*
G36*
X1174374Y884160D02*
X1158112Y867898D01*
X1146798Y879212D01*
X1163060Y895474D01*
X1174374Y884160D01*
G37*
G36*
X1218922Y1068708D02*
X1202660Y1052446D01*
X1191346Y1063760D01*
X1207608Y1080022D01*
X1218922Y1068708D01*
G37*
G36*
X1174374Y1024160D02*
X1158112Y1007898D01*
X1146798Y1019212D01*
X1163060Y1035474D01*
X1174374Y1024160D01*
G37*
G36*
X1078922Y1068708D02*
X1062660Y1052446D01*
X1051346Y1063760D01*
X1067608Y1080022D01*
X1078922Y1068708D01*
G37*
G36*
X1034374Y1024160D02*
X1018112Y1007898D01*
X1006798Y1019212D01*
X1023060Y1035474D01*
X1034374Y1024160D01*
G37*
G36*
X98922Y928708D02*
X82660Y912446D01*
X71346Y923760D01*
X87608Y940022D01*
X98922Y928708D01*
G37*
G36*
X54374Y884160D02*
X38112Y867898D01*
X26798Y879212D01*
X43060Y895474D01*
X54374Y884160D01*
G37*
M02*
