G04 EAGLE Gerber RS-274X export*
G75*
%MOMM*%
%FSLAX34Y34*%
%LPD*%
%INSoldermask Bottom*%
%IPPOS*%
%AMOC8*
5,1,8,0,0,1.08239X$1,22.5*%
G01*
%ADD10R,1.503200X1.503200*%
%ADD11R,2.203200X1.503200*%
%ADD12R,1.303200X1.203200*%
%ADD13R,1.203200X1.303200*%
%ADD14C,1.853200*%
%ADD15R,1.403200X0.903200*%
%ADD16R,2.235200X0.863600*%
%ADD17R,0.903200X1.203200*%
%ADD18R,0.863600X2.235200*%
%ADD19R,1.703200X0.603200*%
%ADD20P,1.649562X8X22.500000*%
%ADD21R,1.003200X1.003200*%
%ADD22C,1.727200*%
%ADD23C,3.505200*%
%ADD24R,1.103200X0.553200*%
%ADD25C,1.511200*%
%ADD26C,1.511200*%
%ADD27P,2.254402X8X112.500000*%
%ADD28R,2.203200X2.203200*%
%ADD29R,2.006200X1.803200*%
%ADD30R,3.603200X6.243200*%
%ADD31R,0.903200X3.203200*%
%ADD32C,1.603200*%
%ADD33R,1.803200X2.006200*%


D10*
X202000Y251900D03*
X179000Y251900D03*
D11*
X190500Y306900D03*
D12*
X414900Y597500D03*
X397900Y597500D03*
X1286900Y532800D03*
X1303900Y532800D03*
D13*
X483200Y105800D03*
X483200Y122800D03*
D12*
X1210700Y901100D03*
X1227700Y901100D03*
X880500Y253400D03*
X897500Y253400D03*
D13*
X813400Y867800D03*
X813400Y884800D03*
X661000Y778900D03*
X661000Y795900D03*
X737200Y931300D03*
X737200Y948300D03*
X635600Y778900D03*
X635600Y795900D03*
X318100Y461400D03*
X318100Y478400D03*
X534000Y474100D03*
X534000Y491100D03*
D12*
X880500Y393100D03*
X897500Y393100D03*
X1083700Y393100D03*
X1100700Y393100D03*
X1083700Y253400D03*
X1100700Y253400D03*
X1286900Y253400D03*
X1303900Y253400D03*
X1286900Y393100D03*
X1303900Y393100D03*
X880500Y532800D03*
X897500Y532800D03*
X1083700Y532800D03*
X1100700Y532800D03*
D14*
X1392840Y433960D03*
X1392840Y518960D03*
X1392840Y548960D03*
X1392840Y293960D03*
X1392840Y378960D03*
X1392840Y408960D03*
D15*
X870500Y558200D03*
X907500Y558200D03*
D16*
X858266Y425450D03*
X919734Y425450D03*
X858266Y438150D03*
X858266Y450850D03*
X919734Y438150D03*
X919734Y450850D03*
X858266Y463550D03*
X919734Y463550D03*
X858266Y476250D03*
X919734Y476250D03*
X858266Y488950D03*
X858266Y501650D03*
X919734Y488950D03*
X919734Y501650D03*
X858266Y514350D03*
X919734Y514350D03*
D17*
X495300Y493600D03*
X485800Y471600D03*
X504800Y471600D03*
D18*
X603250Y83566D03*
X603250Y145034D03*
X590550Y83566D03*
X577850Y83566D03*
X590550Y145034D03*
X577850Y145034D03*
X565150Y83566D03*
X565150Y145034D03*
X552450Y83566D03*
X552450Y145034D03*
X539750Y83566D03*
X527050Y83566D03*
X539750Y145034D03*
X527050Y145034D03*
X514350Y83566D03*
X514350Y145034D03*
D16*
X858266Y285750D03*
X919734Y285750D03*
X858266Y298450D03*
X858266Y311150D03*
X919734Y298450D03*
X919734Y311150D03*
X858266Y323850D03*
X919734Y323850D03*
X858266Y336550D03*
X919734Y336550D03*
X858266Y349250D03*
X858266Y361950D03*
X919734Y349250D03*
X919734Y361950D03*
X858266Y374650D03*
X919734Y374650D03*
X1264666Y425450D03*
X1326134Y425450D03*
X1264666Y438150D03*
X1264666Y450850D03*
X1326134Y438150D03*
X1326134Y450850D03*
X1264666Y463550D03*
X1326134Y463550D03*
X1264666Y476250D03*
X1326134Y476250D03*
X1264666Y488950D03*
X1264666Y501650D03*
X1326134Y488950D03*
X1326134Y501650D03*
X1264666Y514350D03*
X1326134Y514350D03*
X1264666Y285750D03*
X1326134Y285750D03*
X1264666Y298450D03*
X1264666Y311150D03*
X1326134Y298450D03*
X1326134Y311150D03*
X1264666Y323850D03*
X1326134Y323850D03*
X1264666Y336550D03*
X1326134Y336550D03*
X1264666Y349250D03*
X1264666Y361950D03*
X1326134Y349250D03*
X1326134Y361950D03*
X1264666Y374650D03*
X1326134Y374650D03*
X1061466Y425450D03*
X1122934Y425450D03*
X1061466Y438150D03*
X1061466Y450850D03*
X1122934Y438150D03*
X1122934Y450850D03*
X1061466Y463550D03*
X1122934Y463550D03*
X1061466Y476250D03*
X1122934Y476250D03*
X1061466Y488950D03*
X1061466Y501650D03*
X1122934Y488950D03*
X1122934Y501650D03*
X1061466Y514350D03*
X1122934Y514350D03*
X1061466Y285750D03*
X1122934Y285750D03*
X1061466Y298450D03*
X1061466Y311150D03*
X1122934Y298450D03*
X1122934Y311150D03*
X1061466Y323850D03*
X1122934Y323850D03*
X1061466Y336550D03*
X1122934Y336550D03*
X1061466Y349250D03*
X1061466Y361950D03*
X1122934Y349250D03*
X1122934Y361950D03*
X1061466Y374650D03*
X1122934Y374650D03*
D19*
X662250Y821350D03*
X662250Y827850D03*
X662250Y834350D03*
X662250Y840850D03*
X662250Y847350D03*
X662250Y853850D03*
X662250Y860350D03*
X662250Y866850D03*
X662250Y873350D03*
X662250Y879850D03*
X662250Y886350D03*
X662250Y892850D03*
X662250Y899350D03*
X662250Y905850D03*
X734750Y905850D03*
X734750Y899350D03*
X734750Y892850D03*
X734750Y886350D03*
X734750Y879850D03*
X734750Y873350D03*
X734750Y866850D03*
X734750Y860350D03*
X734750Y853850D03*
X734750Y847350D03*
X734750Y840850D03*
X734750Y834350D03*
X734750Y827850D03*
X734750Y821350D03*
D17*
X241300Y506300D03*
X231800Y484300D03*
X250800Y484300D03*
D20*
X1465160Y1043960D03*
X1490560Y1043960D03*
X1465160Y903960D03*
X1490560Y903960D03*
X1465160Y763960D03*
X1490560Y763960D03*
X1465160Y623960D03*
X1490560Y623960D03*
X1465160Y483960D03*
X1490560Y483960D03*
X1465160Y343960D03*
X1490560Y343960D03*
X1465160Y203960D03*
X1490560Y203960D03*
X1465160Y63960D03*
X1490560Y63960D03*
D13*
X635600Y105800D03*
X635600Y122800D03*
X697900Y1037200D03*
X697900Y1020200D03*
X672500Y1037200D03*
X672500Y1020200D03*
X610200Y778900D03*
X610200Y795900D03*
D12*
X280000Y436000D03*
X280000Y453000D03*
X241900Y436000D03*
X241900Y453000D03*
X534000Y436000D03*
X534000Y453000D03*
D13*
X788000Y309000D03*
X788000Y326000D03*
D12*
X280000Y486800D03*
X280000Y503800D03*
D13*
X1485300Y592700D03*
X1485300Y575700D03*
X1486500Y732400D03*
X1486500Y715400D03*
X1486500Y872100D03*
X1486500Y855100D03*
X1486500Y1011800D03*
X1486500Y994800D03*
X1486500Y453000D03*
X1486500Y436000D03*
X1486500Y313300D03*
X1486500Y296300D03*
X1486500Y173600D03*
X1486500Y156600D03*
X1486500Y33900D03*
X1486500Y16900D03*
D14*
X1392840Y153960D03*
X1392840Y238960D03*
X1392840Y268960D03*
X1392840Y13960D03*
X1392840Y98960D03*
X1392840Y128960D03*
D21*
X678300Y990600D03*
X693300Y990600D03*
D22*
X1426230Y1017200D03*
X1281450Y1042600D03*
D23*
X1351300Y1083240D03*
X1351300Y951160D03*
D22*
X1281450Y991800D03*
X1426230Y1042600D03*
X1426230Y991800D03*
D10*
X125800Y251900D03*
X102800Y251900D03*
D11*
X114300Y306900D03*
D14*
X1562860Y1093960D03*
X1562860Y1008960D03*
X1562860Y978960D03*
X1672860Y953960D03*
X1672860Y868960D03*
X1672860Y838960D03*
X1672860Y813960D03*
X1672860Y728960D03*
X1672860Y698960D03*
X1672860Y673960D03*
X1672860Y588960D03*
X1672860Y558960D03*
X1672860Y533960D03*
X1672860Y448960D03*
X1672860Y418960D03*
X1672860Y393960D03*
X1672860Y308960D03*
X1672860Y278960D03*
X1672860Y253960D03*
X1672860Y168960D03*
X1672860Y138960D03*
X1672860Y13960D03*
X1672860Y98960D03*
X1672860Y128960D03*
X1562860Y953960D03*
X1562860Y868960D03*
X1562860Y838960D03*
X1562860Y813960D03*
X1562860Y728960D03*
X1562860Y698960D03*
X1562860Y673960D03*
X1562860Y588960D03*
X1562860Y558960D03*
X1562860Y533960D03*
X1562860Y448960D03*
X1562860Y418960D03*
X1562860Y393960D03*
X1562860Y308960D03*
X1562860Y278960D03*
X1562860Y253960D03*
X1562860Y168960D03*
X1562860Y138960D03*
X1562860Y13960D03*
X1562860Y98960D03*
X1562860Y128960D03*
X1672860Y1093960D03*
X1672860Y1008960D03*
X1672860Y978960D03*
D21*
X678300Y965200D03*
X693300Y965200D03*
D16*
X375666Y641350D03*
X437134Y641350D03*
X375666Y654050D03*
X375666Y666750D03*
X437134Y654050D03*
X437134Y666750D03*
X375666Y679450D03*
X437134Y679450D03*
D24*
X1063450Y561450D03*
X1063450Y567950D03*
X1063450Y574450D03*
X1063450Y580950D03*
X1063450Y587450D03*
X1063450Y593950D03*
X1063450Y600450D03*
X1063450Y606950D03*
X1120950Y606950D03*
X1120950Y600450D03*
X1120950Y593950D03*
X1120950Y587450D03*
X1120950Y580950D03*
X1120950Y574450D03*
X1120950Y567950D03*
X1120950Y561450D03*
D25*
X1273300Y870960D02*
X1273300Y884040D01*
X1298700Y884040D02*
X1298700Y870960D01*
X1324100Y870960D02*
X1324100Y884040D01*
X1349500Y884040D02*
X1349500Y870960D01*
X1374900Y870960D02*
X1374900Y884040D01*
X1400300Y884040D02*
X1400300Y870960D01*
X1406460Y852100D02*
X1419540Y852100D01*
X1419540Y826700D02*
X1406460Y826700D01*
X1406460Y801300D02*
X1419540Y801300D01*
X1419540Y775900D02*
X1406460Y775900D01*
X1406460Y750500D02*
X1419540Y750500D01*
X1419540Y725100D02*
X1406460Y725100D01*
X1406460Y699700D02*
X1419540Y699700D01*
X1419540Y674300D02*
X1406460Y674300D01*
X1406460Y648900D02*
X1419540Y648900D01*
X1419540Y623500D02*
X1406460Y623500D01*
X1406460Y598100D02*
X1419540Y598100D01*
X1419540Y572700D02*
X1406460Y572700D01*
X1267140Y852100D02*
X1254060Y852100D01*
X1254060Y826700D02*
X1267140Y826700D01*
X1267140Y801300D02*
X1254060Y801300D01*
X1254060Y775900D02*
X1267140Y775900D01*
X1267140Y674300D02*
X1254060Y674300D01*
X1254060Y699700D02*
X1267140Y699700D01*
X1267140Y725100D02*
X1254060Y725100D01*
X1254060Y750500D02*
X1267140Y750500D01*
X1267140Y648900D02*
X1254060Y648900D01*
X1254060Y623500D02*
X1267140Y623500D01*
X1267140Y598100D02*
X1254060Y598100D01*
X1254060Y572700D02*
X1267140Y572700D01*
X1298700Y579240D02*
X1298700Y566160D01*
X1324100Y566160D02*
X1324100Y579240D01*
X1349500Y579240D02*
X1349500Y566160D01*
D26*
X1298700Y763200D03*
X1298700Y737800D03*
D27*
X1282700Y63500D03*
X1308100Y63500D03*
X1282700Y88900D03*
X1308100Y88900D03*
X1282700Y114300D03*
X1308100Y114300D03*
X1282700Y139700D03*
X1308100Y139700D03*
X1282700Y165100D03*
X1308100Y165100D03*
D28*
X1154900Y57000D03*
X1154900Y207000D03*
X1054900Y207000D03*
X1054900Y57000D03*
X1002500Y57000D03*
X1002500Y207000D03*
X902500Y207000D03*
X902500Y57000D03*
D29*
X863000Y904720D03*
X863000Y876280D03*
D10*
X278200Y251900D03*
X255200Y251900D03*
D11*
X266700Y306900D03*
D10*
X354400Y251900D03*
X331400Y251900D03*
D11*
X342900Y306900D03*
D30*
X757500Y1010200D03*
X893500Y1010200D03*
D31*
X806750Y946000D03*
X819250Y946000D03*
X831750Y946000D03*
X844250Y946000D03*
D32*
X803000Y1016000D03*
X848000Y1016000D03*
D33*
X1233420Y215900D03*
X1204980Y215900D03*
M02*
