G04 EAGLE Gerber X2 export*
%TF.Part,Single*%
%TF.FileFunction,Soldermask,Top,1*%
%TF.FilePolarity,Negative*%
%TF.GenerationSoftware,Autodesk,EAGLE,9.1.3*%
%TF.CreationDate,2018-08-22T06:47:52Z*%
G75*
%MOMM*%
%FSLAX34Y34*%
%LPD*%
%AMOC8*
5,1,8,0,0,1.08239X$1,22.5*%
G01*
%ADD10C,1.727200*%
%ADD11R,1.053200X1.203200*%
%ADD12R,2.503200X1.803200*%
%ADD13C,1.511200*%
%ADD14C,1.511200*%
%ADD15C,1.603200*%
%ADD16P,2.254402X8X112.500000*%
%ADD17R,2.082800X2.082800*%
%ADD18P,3.700908X8X292.500000*%
%ADD19C,2.133600*%
%ADD20C,2.203200*%
%ADD21P,2.969212X8X22.500000*%
%ADD22P,2.584314X8X22.500000*%
%ADD23C,3.203200*%
%ADD24P,1.649562X8X22.500000*%
%ADD25C,1.879600*%
%ADD26C,0.959600*%
%ADD27C,2.743200*%


D10*
X1387600Y388180D02*
X1387600Y403420D01*
X1362200Y403420D02*
X1362200Y388180D01*
X1336800Y388180D02*
X1336800Y403420D01*
X1311400Y403420D02*
X1311400Y388180D01*
X1286000Y388180D02*
X1286000Y403420D01*
X1260600Y403420D02*
X1260600Y388180D01*
D11*
G36*
X17038Y1074920D02*
X24485Y1067473D01*
X15978Y1058966D01*
X8531Y1066413D01*
X17038Y1074920D01*
G37*
G36*
X41787Y1099669D02*
X49234Y1092222D01*
X40727Y1083715D01*
X33280Y1091162D01*
X41787Y1099669D01*
G37*
G36*
X29413Y1062545D02*
X36860Y1055098D01*
X28353Y1046591D01*
X20906Y1054038D01*
X29413Y1062545D01*
G37*
G36*
X54162Y1087294D02*
X61609Y1079847D01*
X53102Y1071340D01*
X45655Y1078787D01*
X54162Y1087294D01*
G37*
G36*
X193102Y931340D02*
X185655Y938787D01*
X194162Y947294D01*
X201609Y939847D01*
X193102Y931340D01*
G37*
G36*
X168353Y906591D02*
X160906Y914038D01*
X169413Y922545D01*
X176860Y915098D01*
X168353Y906591D01*
G37*
G36*
X180727Y943715D02*
X173280Y951162D01*
X181787Y959669D01*
X189234Y952222D01*
X180727Y943715D01*
G37*
G36*
X155978Y918966D02*
X148531Y926413D01*
X157038Y934920D01*
X164485Y927473D01*
X155978Y918966D01*
G37*
G36*
X333102Y931340D02*
X325655Y938787D01*
X334162Y947294D01*
X341609Y939847D01*
X333102Y931340D01*
G37*
G36*
X308353Y906591D02*
X300906Y914038D01*
X309413Y922545D01*
X316860Y915098D01*
X308353Y906591D01*
G37*
G36*
X320727Y943715D02*
X313280Y951162D01*
X321787Y959669D01*
X329234Y952222D01*
X320727Y943715D01*
G37*
G36*
X295978Y918966D02*
X288531Y926413D01*
X297038Y934920D01*
X304485Y927473D01*
X295978Y918966D01*
G37*
G36*
X473102Y931340D02*
X465655Y938787D01*
X474162Y947294D01*
X481609Y939847D01*
X473102Y931340D01*
G37*
G36*
X448353Y906591D02*
X440906Y914038D01*
X449413Y922545D01*
X456860Y915098D01*
X448353Y906591D01*
G37*
G36*
X460727Y943715D02*
X453280Y951162D01*
X461787Y959669D01*
X469234Y952222D01*
X460727Y943715D01*
G37*
G36*
X435978Y918966D02*
X428531Y926413D01*
X437038Y934920D01*
X444485Y927473D01*
X435978Y918966D01*
G37*
G36*
X613102Y931340D02*
X605655Y938787D01*
X614162Y947294D01*
X621609Y939847D01*
X613102Y931340D01*
G37*
G36*
X588353Y906591D02*
X580906Y914038D01*
X589413Y922545D01*
X596860Y915098D01*
X588353Y906591D01*
G37*
G36*
X600727Y943715D02*
X593280Y951162D01*
X601787Y959669D01*
X609234Y952222D01*
X600727Y943715D01*
G37*
G36*
X575978Y918966D02*
X568531Y926413D01*
X577038Y934920D01*
X584485Y927473D01*
X575978Y918966D01*
G37*
G36*
X753102Y931340D02*
X745655Y938787D01*
X754162Y947294D01*
X761609Y939847D01*
X753102Y931340D01*
G37*
G36*
X728353Y906591D02*
X720906Y914038D01*
X729413Y922545D01*
X736860Y915098D01*
X728353Y906591D01*
G37*
G36*
X740727Y943715D02*
X733280Y951162D01*
X741787Y959669D01*
X749234Y952222D01*
X740727Y943715D01*
G37*
G36*
X715978Y918966D02*
X708531Y926413D01*
X717038Y934920D01*
X724485Y927473D01*
X715978Y918966D01*
G37*
G36*
X893102Y931340D02*
X885655Y938787D01*
X894162Y947294D01*
X901609Y939847D01*
X893102Y931340D01*
G37*
G36*
X868353Y906591D02*
X860906Y914038D01*
X869413Y922545D01*
X876860Y915098D01*
X868353Y906591D01*
G37*
G36*
X880727Y943715D02*
X873280Y951162D01*
X881787Y959669D01*
X889234Y952222D01*
X880727Y943715D01*
G37*
G36*
X855978Y918966D02*
X848531Y926413D01*
X857038Y934920D01*
X864485Y927473D01*
X855978Y918966D01*
G37*
G36*
X1033102Y931340D02*
X1025655Y938787D01*
X1034162Y947294D01*
X1041609Y939847D01*
X1033102Y931340D01*
G37*
G36*
X1008353Y906591D02*
X1000906Y914038D01*
X1009413Y922545D01*
X1016860Y915098D01*
X1008353Y906591D01*
G37*
G36*
X1020727Y943715D02*
X1013280Y951162D01*
X1021787Y959669D01*
X1029234Y952222D01*
X1020727Y943715D01*
G37*
G36*
X995978Y918966D02*
X988531Y926413D01*
X997038Y934920D01*
X1004485Y927473D01*
X995978Y918966D01*
G37*
G36*
X17038Y794920D02*
X24485Y787473D01*
X15978Y778966D01*
X8531Y786413D01*
X17038Y794920D01*
G37*
G36*
X41787Y819669D02*
X49234Y812222D01*
X40727Y803715D01*
X33280Y811162D01*
X41787Y819669D01*
G37*
G36*
X29413Y782545D02*
X36860Y775098D01*
X28353Y766591D01*
X20906Y774038D01*
X29413Y782545D01*
G37*
G36*
X54162Y807294D02*
X61609Y799847D01*
X53102Y791340D01*
X45655Y798787D01*
X54162Y807294D01*
G37*
G36*
X157038Y794920D02*
X164485Y787473D01*
X155978Y778966D01*
X148531Y786413D01*
X157038Y794920D01*
G37*
G36*
X181787Y819669D02*
X189234Y812222D01*
X180727Y803715D01*
X173280Y811162D01*
X181787Y819669D01*
G37*
G36*
X169413Y782545D02*
X176860Y775098D01*
X168353Y766591D01*
X160906Y774038D01*
X169413Y782545D01*
G37*
G36*
X194162Y807294D02*
X201609Y799847D01*
X193102Y791340D01*
X185655Y798787D01*
X194162Y807294D01*
G37*
G36*
X297038Y794920D02*
X304485Y787473D01*
X295978Y778966D01*
X288531Y786413D01*
X297038Y794920D01*
G37*
G36*
X321787Y819669D02*
X329234Y812222D01*
X320727Y803715D01*
X313280Y811162D01*
X321787Y819669D01*
G37*
G36*
X309413Y782545D02*
X316860Y775098D01*
X308353Y766591D01*
X300906Y774038D01*
X309413Y782545D01*
G37*
G36*
X334162Y807294D02*
X341609Y799847D01*
X333102Y791340D01*
X325655Y798787D01*
X334162Y807294D01*
G37*
G36*
X157038Y1074920D02*
X164485Y1067473D01*
X155978Y1058966D01*
X148531Y1066413D01*
X157038Y1074920D01*
G37*
G36*
X181787Y1099669D02*
X189234Y1092222D01*
X180727Y1083715D01*
X173280Y1091162D01*
X181787Y1099669D01*
G37*
G36*
X169413Y1062545D02*
X176860Y1055098D01*
X168353Y1046591D01*
X160906Y1054038D01*
X169413Y1062545D01*
G37*
G36*
X194162Y1087294D02*
X201609Y1079847D01*
X193102Y1071340D01*
X185655Y1078787D01*
X194162Y1087294D01*
G37*
G36*
X437038Y794920D02*
X444485Y787473D01*
X435978Y778966D01*
X428531Y786413D01*
X437038Y794920D01*
G37*
G36*
X461787Y819669D02*
X469234Y812222D01*
X460727Y803715D01*
X453280Y811162D01*
X461787Y819669D01*
G37*
G36*
X449413Y782545D02*
X456860Y775098D01*
X448353Y766591D01*
X440906Y774038D01*
X449413Y782545D01*
G37*
G36*
X474162Y807294D02*
X481609Y799847D01*
X473102Y791340D01*
X465655Y798787D01*
X474162Y807294D01*
G37*
G36*
X577038Y794920D02*
X584485Y787473D01*
X575978Y778966D01*
X568531Y786413D01*
X577038Y794920D01*
G37*
G36*
X601787Y819669D02*
X609234Y812222D01*
X600727Y803715D01*
X593280Y811162D01*
X601787Y819669D01*
G37*
G36*
X589413Y782545D02*
X596860Y775098D01*
X588353Y766591D01*
X580906Y774038D01*
X589413Y782545D01*
G37*
G36*
X614162Y807294D02*
X621609Y799847D01*
X613102Y791340D01*
X605655Y798787D01*
X614162Y807294D01*
G37*
G36*
X717038Y794920D02*
X724485Y787473D01*
X715978Y778966D01*
X708531Y786413D01*
X717038Y794920D01*
G37*
G36*
X741787Y819669D02*
X749234Y812222D01*
X740727Y803715D01*
X733280Y811162D01*
X741787Y819669D01*
G37*
G36*
X729413Y782545D02*
X736860Y775098D01*
X728353Y766591D01*
X720906Y774038D01*
X729413Y782545D01*
G37*
G36*
X754162Y807294D02*
X761609Y799847D01*
X753102Y791340D01*
X745655Y798787D01*
X754162Y807294D01*
G37*
G36*
X857038Y794920D02*
X864485Y787473D01*
X855978Y778966D01*
X848531Y786413D01*
X857038Y794920D01*
G37*
G36*
X881787Y819669D02*
X889234Y812222D01*
X880727Y803715D01*
X873280Y811162D01*
X881787Y819669D01*
G37*
G36*
X869413Y782545D02*
X876860Y775098D01*
X868353Y766591D01*
X860906Y774038D01*
X869413Y782545D01*
G37*
G36*
X894162Y807294D02*
X901609Y799847D01*
X893102Y791340D01*
X885655Y798787D01*
X894162Y807294D01*
G37*
G36*
X997038Y794920D02*
X1004485Y787473D01*
X995978Y778966D01*
X988531Y786413D01*
X997038Y794920D01*
G37*
G36*
X1021787Y819669D02*
X1029234Y812222D01*
X1020727Y803715D01*
X1013280Y811162D01*
X1021787Y819669D01*
G37*
G36*
X1009413Y782545D02*
X1016860Y775098D01*
X1008353Y766591D01*
X1000906Y774038D01*
X1009413Y782545D01*
G37*
G36*
X1034162Y807294D02*
X1041609Y799847D01*
X1033102Y791340D01*
X1025655Y798787D01*
X1034162Y807294D01*
G37*
G36*
X53102Y651340D02*
X45655Y658787D01*
X54162Y667294D01*
X61609Y659847D01*
X53102Y651340D01*
G37*
G36*
X28353Y626591D02*
X20906Y634038D01*
X29413Y642545D01*
X36860Y635098D01*
X28353Y626591D01*
G37*
G36*
X40727Y663715D02*
X33280Y671162D01*
X41787Y679669D01*
X49234Y672222D01*
X40727Y663715D01*
G37*
G36*
X15978Y638966D02*
X8531Y646413D01*
X17038Y654920D01*
X24485Y647473D01*
X15978Y638966D01*
G37*
G36*
X193102Y651340D02*
X185655Y658787D01*
X194162Y667294D01*
X201609Y659847D01*
X193102Y651340D01*
G37*
G36*
X168353Y626591D02*
X160906Y634038D01*
X169413Y642545D01*
X176860Y635098D01*
X168353Y626591D01*
G37*
G36*
X180727Y663715D02*
X173280Y671162D01*
X181787Y679669D01*
X189234Y672222D01*
X180727Y663715D01*
G37*
G36*
X155978Y638966D02*
X148531Y646413D01*
X157038Y654920D01*
X164485Y647473D01*
X155978Y638966D01*
G37*
G36*
X333102Y651340D02*
X325655Y658787D01*
X334162Y667294D01*
X341609Y659847D01*
X333102Y651340D01*
G37*
G36*
X308353Y626591D02*
X300906Y634038D01*
X309413Y642545D01*
X316860Y635098D01*
X308353Y626591D01*
G37*
G36*
X320727Y663715D02*
X313280Y671162D01*
X321787Y679669D01*
X329234Y672222D01*
X320727Y663715D01*
G37*
G36*
X295978Y638966D02*
X288531Y646413D01*
X297038Y654920D01*
X304485Y647473D01*
X295978Y638966D01*
G37*
G36*
X473102Y651340D02*
X465655Y658787D01*
X474162Y667294D01*
X481609Y659847D01*
X473102Y651340D01*
G37*
G36*
X448353Y626591D02*
X440906Y634038D01*
X449413Y642545D01*
X456860Y635098D01*
X448353Y626591D01*
G37*
G36*
X460727Y663715D02*
X453280Y671162D01*
X461787Y679669D01*
X469234Y672222D01*
X460727Y663715D01*
G37*
G36*
X435978Y638966D02*
X428531Y646413D01*
X437038Y654920D01*
X444485Y647473D01*
X435978Y638966D01*
G37*
G36*
X613102Y651340D02*
X605655Y658787D01*
X614162Y667294D01*
X621609Y659847D01*
X613102Y651340D01*
G37*
G36*
X588353Y626591D02*
X580906Y634038D01*
X589413Y642545D01*
X596860Y635098D01*
X588353Y626591D01*
G37*
G36*
X600727Y663715D02*
X593280Y671162D01*
X601787Y679669D01*
X609234Y672222D01*
X600727Y663715D01*
G37*
G36*
X575978Y638966D02*
X568531Y646413D01*
X577038Y654920D01*
X584485Y647473D01*
X575978Y638966D01*
G37*
G36*
X297038Y1074920D02*
X304485Y1067473D01*
X295978Y1058966D01*
X288531Y1066413D01*
X297038Y1074920D01*
G37*
G36*
X321787Y1099669D02*
X329234Y1092222D01*
X320727Y1083715D01*
X313280Y1091162D01*
X321787Y1099669D01*
G37*
G36*
X309413Y1062545D02*
X316860Y1055098D01*
X308353Y1046591D01*
X300906Y1054038D01*
X309413Y1062545D01*
G37*
G36*
X334162Y1087294D02*
X341609Y1079847D01*
X333102Y1071340D01*
X325655Y1078787D01*
X334162Y1087294D01*
G37*
G36*
X753102Y651340D02*
X745655Y658787D01*
X754162Y667294D01*
X761609Y659847D01*
X753102Y651340D01*
G37*
G36*
X728353Y626591D02*
X720906Y634038D01*
X729413Y642545D01*
X736860Y635098D01*
X728353Y626591D01*
G37*
G36*
X740727Y663715D02*
X733280Y671162D01*
X741787Y679669D01*
X749234Y672222D01*
X740727Y663715D01*
G37*
G36*
X715978Y638966D02*
X708531Y646413D01*
X717038Y654920D01*
X724485Y647473D01*
X715978Y638966D01*
G37*
G36*
X893102Y651340D02*
X885655Y658787D01*
X894162Y667294D01*
X901609Y659847D01*
X893102Y651340D01*
G37*
G36*
X868353Y626591D02*
X860906Y634038D01*
X869413Y642545D01*
X876860Y635098D01*
X868353Y626591D01*
G37*
G36*
X880727Y663715D02*
X873280Y671162D01*
X881787Y679669D01*
X889234Y672222D01*
X880727Y663715D01*
G37*
G36*
X855978Y638966D02*
X848531Y646413D01*
X857038Y654920D01*
X864485Y647473D01*
X855978Y638966D01*
G37*
G36*
X1033102Y651340D02*
X1025655Y658787D01*
X1034162Y667294D01*
X1041609Y659847D01*
X1033102Y651340D01*
G37*
G36*
X1008353Y626591D02*
X1000906Y634038D01*
X1009413Y642545D01*
X1016860Y635098D01*
X1008353Y626591D01*
G37*
G36*
X1020727Y663715D02*
X1013280Y671162D01*
X1021787Y679669D01*
X1029234Y672222D01*
X1020727Y663715D01*
G37*
G36*
X995978Y638966D02*
X988531Y646413D01*
X997038Y654920D01*
X1004485Y647473D01*
X995978Y638966D01*
G37*
G36*
X17038Y514920D02*
X24485Y507473D01*
X15978Y498966D01*
X8531Y506413D01*
X17038Y514920D01*
G37*
G36*
X41787Y539669D02*
X49234Y532222D01*
X40727Y523715D01*
X33280Y531162D01*
X41787Y539669D01*
G37*
G36*
X29413Y502545D02*
X36860Y495098D01*
X28353Y486591D01*
X20906Y494038D01*
X29413Y502545D01*
G37*
G36*
X54162Y527294D02*
X61609Y519847D01*
X53102Y511340D01*
X45655Y518787D01*
X54162Y527294D01*
G37*
G36*
X157038Y514920D02*
X164485Y507473D01*
X155978Y498966D01*
X148531Y506413D01*
X157038Y514920D01*
G37*
G36*
X181787Y539669D02*
X189234Y532222D01*
X180727Y523715D01*
X173280Y531162D01*
X181787Y539669D01*
G37*
G36*
X169413Y502545D02*
X176860Y495098D01*
X168353Y486591D01*
X160906Y494038D01*
X169413Y502545D01*
G37*
G36*
X194162Y527294D02*
X201609Y519847D01*
X193102Y511340D01*
X185655Y518787D01*
X194162Y527294D01*
G37*
G36*
X297038Y514920D02*
X304485Y507473D01*
X295978Y498966D01*
X288531Y506413D01*
X297038Y514920D01*
G37*
G36*
X321787Y539669D02*
X329234Y532222D01*
X320727Y523715D01*
X313280Y531162D01*
X321787Y539669D01*
G37*
G36*
X309413Y502545D02*
X316860Y495098D01*
X308353Y486591D01*
X300906Y494038D01*
X309413Y502545D01*
G37*
G36*
X334162Y527294D02*
X341609Y519847D01*
X333102Y511340D01*
X325655Y518787D01*
X334162Y527294D01*
G37*
G36*
X437038Y514920D02*
X444485Y507473D01*
X435978Y498966D01*
X428531Y506413D01*
X437038Y514920D01*
G37*
G36*
X461787Y539669D02*
X469234Y532222D01*
X460727Y523715D01*
X453280Y531162D01*
X461787Y539669D01*
G37*
G36*
X449413Y502545D02*
X456860Y495098D01*
X448353Y486591D01*
X440906Y494038D01*
X449413Y502545D01*
G37*
G36*
X474162Y527294D02*
X481609Y519847D01*
X473102Y511340D01*
X465655Y518787D01*
X474162Y527294D01*
G37*
G36*
X577038Y514920D02*
X584485Y507473D01*
X575978Y498966D01*
X568531Y506413D01*
X577038Y514920D01*
G37*
G36*
X601787Y539669D02*
X609234Y532222D01*
X600727Y523715D01*
X593280Y531162D01*
X601787Y539669D01*
G37*
G36*
X589413Y502545D02*
X596860Y495098D01*
X588353Y486591D01*
X580906Y494038D01*
X589413Y502545D01*
G37*
G36*
X614162Y527294D02*
X621609Y519847D01*
X613102Y511340D01*
X605655Y518787D01*
X614162Y527294D01*
G37*
G36*
X717038Y514920D02*
X724485Y507473D01*
X715978Y498966D01*
X708531Y506413D01*
X717038Y514920D01*
G37*
G36*
X741787Y539669D02*
X749234Y532222D01*
X740727Y523715D01*
X733280Y531162D01*
X741787Y539669D01*
G37*
G36*
X729413Y502545D02*
X736860Y495098D01*
X728353Y486591D01*
X720906Y494038D01*
X729413Y502545D01*
G37*
G36*
X754162Y527294D02*
X761609Y519847D01*
X753102Y511340D01*
X745655Y518787D01*
X754162Y527294D01*
G37*
G36*
X857038Y514920D02*
X864485Y507473D01*
X855978Y498966D01*
X848531Y506413D01*
X857038Y514920D01*
G37*
G36*
X881787Y539669D02*
X889234Y532222D01*
X880727Y523715D01*
X873280Y531162D01*
X881787Y539669D01*
G37*
G36*
X869413Y502545D02*
X876860Y495098D01*
X868353Y486591D01*
X860906Y494038D01*
X869413Y502545D01*
G37*
G36*
X894162Y527294D02*
X901609Y519847D01*
X893102Y511340D01*
X885655Y518787D01*
X894162Y527294D01*
G37*
G36*
X437038Y1074920D02*
X444485Y1067473D01*
X435978Y1058966D01*
X428531Y1066413D01*
X437038Y1074920D01*
G37*
G36*
X461787Y1099669D02*
X469234Y1092222D01*
X460727Y1083715D01*
X453280Y1091162D01*
X461787Y1099669D01*
G37*
G36*
X449413Y1062545D02*
X456860Y1055098D01*
X448353Y1046591D01*
X440906Y1054038D01*
X449413Y1062545D01*
G37*
G36*
X474162Y1087294D02*
X481609Y1079847D01*
X473102Y1071340D01*
X465655Y1078787D01*
X474162Y1087294D01*
G37*
G36*
X997038Y514920D02*
X1004485Y507473D01*
X995978Y498966D01*
X988531Y506413D01*
X997038Y514920D01*
G37*
G36*
X1021787Y539669D02*
X1029234Y532222D01*
X1020727Y523715D01*
X1013280Y531162D01*
X1021787Y539669D01*
G37*
G36*
X1009413Y502545D02*
X1016860Y495098D01*
X1008353Y486591D01*
X1000906Y494038D01*
X1009413Y502545D01*
G37*
G36*
X1034162Y527294D02*
X1041609Y519847D01*
X1033102Y511340D01*
X1025655Y518787D01*
X1034162Y527294D01*
G37*
G36*
X53102Y371340D02*
X45655Y378787D01*
X54162Y387294D01*
X61609Y379847D01*
X53102Y371340D01*
G37*
G36*
X28353Y346591D02*
X20906Y354038D01*
X29413Y362545D01*
X36860Y355098D01*
X28353Y346591D01*
G37*
G36*
X40727Y383715D02*
X33280Y391162D01*
X41787Y399669D01*
X49234Y392222D01*
X40727Y383715D01*
G37*
G36*
X15978Y358966D02*
X8531Y366413D01*
X17038Y374920D01*
X24485Y367473D01*
X15978Y358966D01*
G37*
G36*
X157038Y374920D02*
X164485Y367473D01*
X155978Y358966D01*
X148531Y366413D01*
X157038Y374920D01*
G37*
G36*
X181787Y399669D02*
X189234Y392222D01*
X180727Y383715D01*
X173280Y391162D01*
X181787Y399669D01*
G37*
G36*
X169413Y362545D02*
X176860Y355098D01*
X168353Y346591D01*
X160906Y354038D01*
X169413Y362545D01*
G37*
G36*
X194162Y387294D02*
X201609Y379847D01*
X193102Y371340D01*
X185655Y378787D01*
X194162Y387294D01*
G37*
G36*
X333102Y371340D02*
X325655Y378787D01*
X334162Y387294D01*
X341609Y379847D01*
X333102Y371340D01*
G37*
G36*
X308353Y346591D02*
X300906Y354038D01*
X309413Y362545D01*
X316860Y355098D01*
X308353Y346591D01*
G37*
G36*
X320727Y383715D02*
X313280Y391162D01*
X321787Y399669D01*
X329234Y392222D01*
X320727Y383715D01*
G37*
G36*
X295978Y358966D02*
X288531Y366413D01*
X297038Y374920D01*
X304485Y367473D01*
X295978Y358966D01*
G37*
G36*
X473102Y371340D02*
X465655Y378787D01*
X474162Y387294D01*
X481609Y379847D01*
X473102Y371340D01*
G37*
G36*
X448353Y346591D02*
X440906Y354038D01*
X449413Y362545D01*
X456860Y355098D01*
X448353Y346591D01*
G37*
G36*
X460727Y383715D02*
X453280Y391162D01*
X461787Y399669D01*
X469234Y392222D01*
X460727Y383715D01*
G37*
G36*
X435978Y358966D02*
X428531Y366413D01*
X437038Y374920D01*
X444485Y367473D01*
X435978Y358966D01*
G37*
G36*
X613102Y371340D02*
X605655Y378787D01*
X614162Y387294D01*
X621609Y379847D01*
X613102Y371340D01*
G37*
G36*
X588353Y346591D02*
X580906Y354038D01*
X589413Y362545D01*
X596860Y355098D01*
X588353Y346591D01*
G37*
G36*
X600727Y383715D02*
X593280Y391162D01*
X601787Y399669D01*
X609234Y392222D01*
X600727Y383715D01*
G37*
G36*
X575978Y358966D02*
X568531Y366413D01*
X577038Y374920D01*
X584485Y367473D01*
X575978Y358966D01*
G37*
G36*
X753102Y371340D02*
X745655Y378787D01*
X754162Y387294D01*
X761609Y379847D01*
X753102Y371340D01*
G37*
G36*
X728353Y346591D02*
X720906Y354038D01*
X729413Y362545D01*
X736860Y355098D01*
X728353Y346591D01*
G37*
G36*
X740727Y383715D02*
X733280Y391162D01*
X741787Y399669D01*
X749234Y392222D01*
X740727Y383715D01*
G37*
G36*
X715978Y358966D02*
X708531Y366413D01*
X717038Y374920D01*
X724485Y367473D01*
X715978Y358966D01*
G37*
G36*
X893102Y371340D02*
X885655Y378787D01*
X894162Y387294D01*
X901609Y379847D01*
X893102Y371340D01*
G37*
G36*
X868353Y346591D02*
X860906Y354038D01*
X869413Y362545D01*
X876860Y355098D01*
X868353Y346591D01*
G37*
G36*
X880727Y383715D02*
X873280Y391162D01*
X881787Y399669D01*
X889234Y392222D01*
X880727Y383715D01*
G37*
G36*
X855978Y358966D02*
X848531Y366413D01*
X857038Y374920D01*
X864485Y367473D01*
X855978Y358966D01*
G37*
G36*
X1033102Y371340D02*
X1025655Y378787D01*
X1034162Y387294D01*
X1041609Y379847D01*
X1033102Y371340D01*
G37*
G36*
X1008353Y346591D02*
X1000906Y354038D01*
X1009413Y362545D01*
X1016860Y355098D01*
X1008353Y346591D01*
G37*
G36*
X1020727Y383715D02*
X1013280Y391162D01*
X1021787Y399669D01*
X1029234Y392222D01*
X1020727Y383715D01*
G37*
G36*
X995978Y358966D02*
X988531Y366413D01*
X997038Y374920D01*
X1004485Y367473D01*
X995978Y358966D01*
G37*
G36*
X17038Y234920D02*
X24485Y227473D01*
X15978Y218966D01*
X8531Y226413D01*
X17038Y234920D01*
G37*
G36*
X41787Y259669D02*
X49234Y252222D01*
X40727Y243715D01*
X33280Y251162D01*
X41787Y259669D01*
G37*
G36*
X29413Y222545D02*
X36860Y215098D01*
X28353Y206591D01*
X20906Y214038D01*
X29413Y222545D01*
G37*
G36*
X54162Y247294D02*
X61609Y239847D01*
X53102Y231340D01*
X45655Y238787D01*
X54162Y247294D01*
G37*
G36*
X577038Y1074920D02*
X584485Y1067473D01*
X575978Y1058966D01*
X568531Y1066413D01*
X577038Y1074920D01*
G37*
G36*
X601787Y1099669D02*
X609234Y1092222D01*
X600727Y1083715D01*
X593280Y1091162D01*
X601787Y1099669D01*
G37*
G36*
X589413Y1062545D02*
X596860Y1055098D01*
X588353Y1046591D01*
X580906Y1054038D01*
X589413Y1062545D01*
G37*
G36*
X614162Y1087294D02*
X621609Y1079847D01*
X613102Y1071340D01*
X605655Y1078787D01*
X614162Y1087294D01*
G37*
G36*
X157038Y234920D02*
X164485Y227473D01*
X155978Y218966D01*
X148531Y226413D01*
X157038Y234920D01*
G37*
G36*
X181787Y259669D02*
X189234Y252222D01*
X180727Y243715D01*
X173280Y251162D01*
X181787Y259669D01*
G37*
G36*
X169413Y222545D02*
X176860Y215098D01*
X168353Y206591D01*
X160906Y214038D01*
X169413Y222545D01*
G37*
G36*
X194162Y247294D02*
X201609Y239847D01*
X193102Y231340D01*
X185655Y238787D01*
X194162Y247294D01*
G37*
G36*
X297038Y234920D02*
X304485Y227473D01*
X295978Y218966D01*
X288531Y226413D01*
X297038Y234920D01*
G37*
G36*
X321787Y259669D02*
X329234Y252222D01*
X320727Y243715D01*
X313280Y251162D01*
X321787Y259669D01*
G37*
G36*
X309413Y222545D02*
X316860Y215098D01*
X308353Y206591D01*
X300906Y214038D01*
X309413Y222545D01*
G37*
G36*
X334162Y247294D02*
X341609Y239847D01*
X333102Y231340D01*
X325655Y238787D01*
X334162Y247294D01*
G37*
G36*
X437038Y234920D02*
X444485Y227473D01*
X435978Y218966D01*
X428531Y226413D01*
X437038Y234920D01*
G37*
G36*
X461787Y259669D02*
X469234Y252222D01*
X460727Y243715D01*
X453280Y251162D01*
X461787Y259669D01*
G37*
G36*
X449413Y222545D02*
X456860Y215098D01*
X448353Y206591D01*
X440906Y214038D01*
X449413Y222545D01*
G37*
G36*
X474162Y247294D02*
X481609Y239847D01*
X473102Y231340D01*
X465655Y238787D01*
X474162Y247294D01*
G37*
G36*
X577038Y234920D02*
X584485Y227473D01*
X575978Y218966D01*
X568531Y226413D01*
X577038Y234920D01*
G37*
G36*
X601787Y259669D02*
X609234Y252222D01*
X600727Y243715D01*
X593280Y251162D01*
X601787Y259669D01*
G37*
G36*
X589413Y222545D02*
X596860Y215098D01*
X588353Y206591D01*
X580906Y214038D01*
X589413Y222545D01*
G37*
G36*
X614162Y247294D02*
X621609Y239847D01*
X613102Y231340D01*
X605655Y238787D01*
X614162Y247294D01*
G37*
G36*
X717038Y234920D02*
X724485Y227473D01*
X715978Y218966D01*
X708531Y226413D01*
X717038Y234920D01*
G37*
G36*
X741787Y259669D02*
X749234Y252222D01*
X740727Y243715D01*
X733280Y251162D01*
X741787Y259669D01*
G37*
G36*
X729413Y222545D02*
X736860Y215098D01*
X728353Y206591D01*
X720906Y214038D01*
X729413Y222545D01*
G37*
G36*
X754162Y247294D02*
X761609Y239847D01*
X753102Y231340D01*
X745655Y238787D01*
X754162Y247294D01*
G37*
G36*
X857038Y234920D02*
X864485Y227473D01*
X855978Y218966D01*
X848531Y226413D01*
X857038Y234920D01*
G37*
G36*
X881787Y259669D02*
X889234Y252222D01*
X880727Y243715D01*
X873280Y251162D01*
X881787Y259669D01*
G37*
G36*
X869413Y222545D02*
X876860Y215098D01*
X868353Y206591D01*
X860906Y214038D01*
X869413Y222545D01*
G37*
G36*
X894162Y247294D02*
X901609Y239847D01*
X893102Y231340D01*
X885655Y238787D01*
X894162Y247294D01*
G37*
G36*
X997038Y234920D02*
X1004485Y227473D01*
X995978Y218966D01*
X988531Y226413D01*
X997038Y234920D01*
G37*
G36*
X1021787Y259669D02*
X1029234Y252222D01*
X1020727Y243715D01*
X1013280Y251162D01*
X1021787Y259669D01*
G37*
G36*
X1009413Y222545D02*
X1016860Y215098D01*
X1008353Y206591D01*
X1000906Y214038D01*
X1009413Y222545D01*
G37*
G36*
X1034162Y247294D02*
X1041609Y239847D01*
X1033102Y231340D01*
X1025655Y238787D01*
X1034162Y247294D01*
G37*
G36*
X53102Y91340D02*
X45655Y98787D01*
X54162Y107294D01*
X61609Y99847D01*
X53102Y91340D01*
G37*
G36*
X28353Y66591D02*
X20906Y74038D01*
X29413Y82545D01*
X36860Y75098D01*
X28353Y66591D01*
G37*
G36*
X40727Y103715D02*
X33280Y111162D01*
X41787Y119669D01*
X49234Y112222D01*
X40727Y103715D01*
G37*
G36*
X15978Y78966D02*
X8531Y86413D01*
X17038Y94920D01*
X24485Y87473D01*
X15978Y78966D01*
G37*
G36*
X193102Y91340D02*
X185655Y98787D01*
X194162Y107294D01*
X201609Y99847D01*
X193102Y91340D01*
G37*
G36*
X168353Y66591D02*
X160906Y74038D01*
X169413Y82545D01*
X176860Y75098D01*
X168353Y66591D01*
G37*
G36*
X180727Y103715D02*
X173280Y111162D01*
X181787Y119669D01*
X189234Y112222D01*
X180727Y103715D01*
G37*
G36*
X155978Y78966D02*
X148531Y86413D01*
X157038Y94920D01*
X164485Y87473D01*
X155978Y78966D01*
G37*
G36*
X333102Y91340D02*
X325655Y98787D01*
X334162Y107294D01*
X341609Y99847D01*
X333102Y91340D01*
G37*
G36*
X308353Y66591D02*
X300906Y74038D01*
X309413Y82545D01*
X316860Y75098D01*
X308353Y66591D01*
G37*
G36*
X320727Y103715D02*
X313280Y111162D01*
X321787Y119669D01*
X329234Y112222D01*
X320727Y103715D01*
G37*
G36*
X295978Y78966D02*
X288531Y86413D01*
X297038Y94920D01*
X304485Y87473D01*
X295978Y78966D01*
G37*
G36*
X717038Y1074920D02*
X724485Y1067473D01*
X715978Y1058966D01*
X708531Y1066413D01*
X717038Y1074920D01*
G37*
G36*
X741787Y1099669D02*
X749234Y1092222D01*
X740727Y1083715D01*
X733280Y1091162D01*
X741787Y1099669D01*
G37*
G36*
X729413Y1062545D02*
X736860Y1055098D01*
X728353Y1046591D01*
X720906Y1054038D01*
X729413Y1062545D01*
G37*
G36*
X754162Y1087294D02*
X761609Y1079847D01*
X753102Y1071340D01*
X745655Y1078787D01*
X754162Y1087294D01*
G37*
G36*
X473102Y91340D02*
X465655Y98787D01*
X474162Y107294D01*
X481609Y99847D01*
X473102Y91340D01*
G37*
G36*
X448353Y66591D02*
X440906Y74038D01*
X449413Y82545D01*
X456860Y75098D01*
X448353Y66591D01*
G37*
G36*
X460727Y103715D02*
X453280Y111162D01*
X461787Y119669D01*
X469234Y112222D01*
X460727Y103715D01*
G37*
G36*
X435978Y78966D02*
X428531Y86413D01*
X437038Y94920D01*
X444485Y87473D01*
X435978Y78966D01*
G37*
G36*
X613102Y91340D02*
X605655Y98787D01*
X614162Y107294D01*
X621609Y99847D01*
X613102Y91340D01*
G37*
G36*
X588353Y66591D02*
X580906Y74038D01*
X589413Y82545D01*
X596860Y75098D01*
X588353Y66591D01*
G37*
G36*
X600727Y103715D02*
X593280Y111162D01*
X601787Y119669D01*
X609234Y112222D01*
X600727Y103715D01*
G37*
G36*
X575978Y78966D02*
X568531Y86413D01*
X577038Y94920D01*
X584485Y87473D01*
X575978Y78966D01*
G37*
G36*
X753102Y91340D02*
X745655Y98787D01*
X754162Y107294D01*
X761609Y99847D01*
X753102Y91340D01*
G37*
G36*
X728353Y66591D02*
X720906Y74038D01*
X729413Y82545D01*
X736860Y75098D01*
X728353Y66591D01*
G37*
G36*
X740727Y103715D02*
X733280Y111162D01*
X741787Y119669D01*
X749234Y112222D01*
X740727Y103715D01*
G37*
G36*
X715978Y78966D02*
X708531Y86413D01*
X717038Y94920D01*
X724485Y87473D01*
X715978Y78966D01*
G37*
G36*
X893102Y91340D02*
X885655Y98787D01*
X894162Y107294D01*
X901609Y99847D01*
X893102Y91340D01*
G37*
G36*
X868353Y66591D02*
X860906Y74038D01*
X869413Y82545D01*
X876860Y75098D01*
X868353Y66591D01*
G37*
G36*
X880727Y103715D02*
X873280Y111162D01*
X881787Y119669D01*
X889234Y112222D01*
X880727Y103715D01*
G37*
G36*
X855978Y78966D02*
X848531Y86413D01*
X857038Y94920D01*
X864485Y87473D01*
X855978Y78966D01*
G37*
G36*
X1033102Y91340D02*
X1025655Y98787D01*
X1034162Y107294D01*
X1041609Y99847D01*
X1033102Y91340D01*
G37*
G36*
X1008353Y66591D02*
X1000906Y74038D01*
X1009413Y82545D01*
X1016860Y75098D01*
X1008353Y66591D01*
G37*
G36*
X1020727Y103715D02*
X1013280Y111162D01*
X1021787Y119669D01*
X1029234Y112222D01*
X1020727Y103715D01*
G37*
G36*
X995978Y78966D02*
X988531Y86413D01*
X997038Y94920D01*
X1004485Y87473D01*
X995978Y78966D01*
G37*
G36*
X857038Y1074920D02*
X864485Y1067473D01*
X855978Y1058966D01*
X848531Y1066413D01*
X857038Y1074920D01*
G37*
G36*
X881787Y1099669D02*
X889234Y1092222D01*
X880727Y1083715D01*
X873280Y1091162D01*
X881787Y1099669D01*
G37*
G36*
X869413Y1062545D02*
X876860Y1055098D01*
X868353Y1046591D01*
X860906Y1054038D01*
X869413Y1062545D01*
G37*
G36*
X894162Y1087294D02*
X901609Y1079847D01*
X893102Y1071340D01*
X885655Y1078787D01*
X894162Y1087294D01*
G37*
G36*
X997038Y1074920D02*
X1004485Y1067473D01*
X995978Y1058966D01*
X988531Y1066413D01*
X997038Y1074920D01*
G37*
G36*
X1021787Y1099669D02*
X1029234Y1092222D01*
X1020727Y1083715D01*
X1013280Y1091162D01*
X1021787Y1099669D01*
G37*
G36*
X1009413Y1062545D02*
X1016860Y1055098D01*
X1008353Y1046591D01*
X1000906Y1054038D01*
X1009413Y1062545D01*
G37*
G36*
X1034162Y1087294D02*
X1041609Y1079847D01*
X1033102Y1071340D01*
X1025655Y1078787D01*
X1034162Y1087294D01*
G37*
G36*
X53102Y931340D02*
X45655Y938787D01*
X54162Y947294D01*
X61609Y939847D01*
X53102Y931340D01*
G37*
G36*
X28353Y906591D02*
X20906Y914038D01*
X29413Y922545D01*
X36860Y915098D01*
X28353Y906591D01*
G37*
G36*
X40727Y943715D02*
X33280Y951162D01*
X41787Y959669D01*
X49234Y952222D01*
X40727Y943715D01*
G37*
G36*
X15978Y918966D02*
X8531Y926413D01*
X17038Y934920D01*
X24485Y927473D01*
X15978Y918966D01*
G37*
D12*
G36*
X25361Y1019212D02*
X43060Y1036911D01*
X55811Y1024160D01*
X38112Y1006461D01*
X25361Y1019212D01*
G37*
G36*
X69909Y1063760D02*
X87608Y1081459D01*
X100359Y1068708D01*
X82660Y1051009D01*
X69909Y1063760D01*
G37*
G36*
X165361Y879212D02*
X183060Y896911D01*
X195811Y884160D01*
X178112Y866461D01*
X165361Y879212D01*
G37*
G36*
X209909Y923760D02*
X227608Y941459D01*
X240359Y928708D01*
X222660Y911009D01*
X209909Y923760D01*
G37*
G36*
X305361Y879212D02*
X323060Y896911D01*
X335811Y884160D01*
X318112Y866461D01*
X305361Y879212D01*
G37*
G36*
X349909Y923760D02*
X367608Y941459D01*
X380359Y928708D01*
X362660Y911009D01*
X349909Y923760D01*
G37*
G36*
X445361Y879212D02*
X463060Y896911D01*
X475811Y884160D01*
X458112Y866461D01*
X445361Y879212D01*
G37*
G36*
X489909Y923760D02*
X507608Y941459D01*
X520359Y928708D01*
X502660Y911009D01*
X489909Y923760D01*
G37*
G36*
X585361Y879212D02*
X603060Y896911D01*
X615811Y884160D01*
X598112Y866461D01*
X585361Y879212D01*
G37*
G36*
X629909Y923760D02*
X647608Y941459D01*
X660359Y928708D01*
X642660Y911009D01*
X629909Y923760D01*
G37*
G36*
X725361Y879212D02*
X743060Y896911D01*
X755811Y884160D01*
X738112Y866461D01*
X725361Y879212D01*
G37*
G36*
X769909Y923760D02*
X787608Y941459D01*
X800359Y928708D01*
X782660Y911009D01*
X769909Y923760D01*
G37*
G36*
X865361Y879212D02*
X883060Y896911D01*
X895811Y884160D01*
X878112Y866461D01*
X865361Y879212D01*
G37*
G36*
X909909Y923760D02*
X927608Y941459D01*
X940359Y928708D01*
X922660Y911009D01*
X909909Y923760D01*
G37*
G36*
X1005361Y879212D02*
X1023060Y896911D01*
X1035811Y884160D01*
X1018112Y866461D01*
X1005361Y879212D01*
G37*
G36*
X1049909Y923760D02*
X1067608Y941459D01*
X1080359Y928708D01*
X1062660Y911009D01*
X1049909Y923760D01*
G37*
G36*
X25361Y739212D02*
X43060Y756911D01*
X55811Y744160D01*
X38112Y726461D01*
X25361Y739212D01*
G37*
G36*
X69909Y783760D02*
X87608Y801459D01*
X100359Y788708D01*
X82660Y771009D01*
X69909Y783760D01*
G37*
G36*
X165361Y739212D02*
X183060Y756911D01*
X195811Y744160D01*
X178112Y726461D01*
X165361Y739212D01*
G37*
G36*
X209909Y783760D02*
X227608Y801459D01*
X240359Y788708D01*
X222660Y771009D01*
X209909Y783760D01*
G37*
G36*
X305361Y739212D02*
X323060Y756911D01*
X335811Y744160D01*
X318112Y726461D01*
X305361Y739212D01*
G37*
G36*
X349909Y783760D02*
X367608Y801459D01*
X380359Y788708D01*
X362660Y771009D01*
X349909Y783760D01*
G37*
G36*
X165361Y1019212D02*
X183060Y1036911D01*
X195811Y1024160D01*
X178112Y1006461D01*
X165361Y1019212D01*
G37*
G36*
X209909Y1063760D02*
X227608Y1081459D01*
X240359Y1068708D01*
X222660Y1051009D01*
X209909Y1063760D01*
G37*
G36*
X445361Y739212D02*
X463060Y756911D01*
X475811Y744160D01*
X458112Y726461D01*
X445361Y739212D01*
G37*
G36*
X489909Y783760D02*
X507608Y801459D01*
X520359Y788708D01*
X502660Y771009D01*
X489909Y783760D01*
G37*
G36*
X585361Y739212D02*
X603060Y756911D01*
X615811Y744160D01*
X598112Y726461D01*
X585361Y739212D01*
G37*
G36*
X629909Y783760D02*
X647608Y801459D01*
X660359Y788708D01*
X642660Y771009D01*
X629909Y783760D01*
G37*
G36*
X725361Y739212D02*
X743060Y756911D01*
X755811Y744160D01*
X738112Y726461D01*
X725361Y739212D01*
G37*
G36*
X769909Y783760D02*
X787608Y801459D01*
X800359Y788708D01*
X782660Y771009D01*
X769909Y783760D01*
G37*
G36*
X865361Y739212D02*
X883060Y756911D01*
X895811Y744160D01*
X878112Y726461D01*
X865361Y739212D01*
G37*
G36*
X909909Y783760D02*
X927608Y801459D01*
X940359Y788708D01*
X922660Y771009D01*
X909909Y783760D01*
G37*
G36*
X1005361Y739212D02*
X1023060Y756911D01*
X1035811Y744160D01*
X1018112Y726461D01*
X1005361Y739212D01*
G37*
G36*
X1049909Y783760D02*
X1067608Y801459D01*
X1080359Y788708D01*
X1062660Y771009D01*
X1049909Y783760D01*
G37*
G36*
X25361Y599212D02*
X43060Y616911D01*
X55811Y604160D01*
X38112Y586461D01*
X25361Y599212D01*
G37*
G36*
X69909Y643760D02*
X87608Y661459D01*
X100359Y648708D01*
X82660Y631009D01*
X69909Y643760D01*
G37*
G36*
X165361Y599212D02*
X183060Y616911D01*
X195811Y604160D01*
X178112Y586461D01*
X165361Y599212D01*
G37*
G36*
X209909Y643760D02*
X227608Y661459D01*
X240359Y648708D01*
X222660Y631009D01*
X209909Y643760D01*
G37*
G36*
X305361Y599212D02*
X323060Y616911D01*
X335811Y604160D01*
X318112Y586461D01*
X305361Y599212D01*
G37*
G36*
X349909Y643760D02*
X367608Y661459D01*
X380359Y648708D01*
X362660Y631009D01*
X349909Y643760D01*
G37*
G36*
X445361Y599212D02*
X463060Y616911D01*
X475811Y604160D01*
X458112Y586461D01*
X445361Y599212D01*
G37*
G36*
X489909Y643760D02*
X507608Y661459D01*
X520359Y648708D01*
X502660Y631009D01*
X489909Y643760D01*
G37*
G36*
X585361Y599212D02*
X603060Y616911D01*
X615811Y604160D01*
X598112Y586461D01*
X585361Y599212D01*
G37*
G36*
X629909Y643760D02*
X647608Y661459D01*
X660359Y648708D01*
X642660Y631009D01*
X629909Y643760D01*
G37*
G36*
X305361Y1019212D02*
X323060Y1036911D01*
X335811Y1024160D01*
X318112Y1006461D01*
X305361Y1019212D01*
G37*
G36*
X349909Y1063760D02*
X367608Y1081459D01*
X380359Y1068708D01*
X362660Y1051009D01*
X349909Y1063760D01*
G37*
G36*
X725361Y599212D02*
X743060Y616911D01*
X755811Y604160D01*
X738112Y586461D01*
X725361Y599212D01*
G37*
G36*
X769909Y643760D02*
X787608Y661459D01*
X800359Y648708D01*
X782660Y631009D01*
X769909Y643760D01*
G37*
G36*
X865361Y599212D02*
X883060Y616911D01*
X895811Y604160D01*
X878112Y586461D01*
X865361Y599212D01*
G37*
G36*
X909909Y643760D02*
X927608Y661459D01*
X940359Y648708D01*
X922660Y631009D01*
X909909Y643760D01*
G37*
G36*
X1005361Y599212D02*
X1023060Y616911D01*
X1035811Y604160D01*
X1018112Y586461D01*
X1005361Y599212D01*
G37*
G36*
X1049909Y643760D02*
X1067608Y661459D01*
X1080359Y648708D01*
X1062660Y631009D01*
X1049909Y643760D01*
G37*
G36*
X25361Y459212D02*
X43060Y476911D01*
X55811Y464160D01*
X38112Y446461D01*
X25361Y459212D01*
G37*
G36*
X69909Y503760D02*
X87608Y521459D01*
X100359Y508708D01*
X82660Y491009D01*
X69909Y503760D01*
G37*
G36*
X165361Y459212D02*
X183060Y476911D01*
X195811Y464160D01*
X178112Y446461D01*
X165361Y459212D01*
G37*
G36*
X209909Y503760D02*
X227608Y521459D01*
X240359Y508708D01*
X222660Y491009D01*
X209909Y503760D01*
G37*
G36*
X305361Y459212D02*
X323060Y476911D01*
X335811Y464160D01*
X318112Y446461D01*
X305361Y459212D01*
G37*
G36*
X349909Y503760D02*
X367608Y521459D01*
X380359Y508708D01*
X362660Y491009D01*
X349909Y503760D01*
G37*
G36*
X445361Y459212D02*
X463060Y476911D01*
X475811Y464160D01*
X458112Y446461D01*
X445361Y459212D01*
G37*
G36*
X489909Y503760D02*
X507608Y521459D01*
X520359Y508708D01*
X502660Y491009D01*
X489909Y503760D01*
G37*
G36*
X585361Y459212D02*
X603060Y476911D01*
X615811Y464160D01*
X598112Y446461D01*
X585361Y459212D01*
G37*
G36*
X629909Y503760D02*
X647608Y521459D01*
X660359Y508708D01*
X642660Y491009D01*
X629909Y503760D01*
G37*
G36*
X725361Y459212D02*
X743060Y476911D01*
X755811Y464160D01*
X738112Y446461D01*
X725361Y459212D01*
G37*
G36*
X769909Y503760D02*
X787608Y521459D01*
X800359Y508708D01*
X782660Y491009D01*
X769909Y503760D01*
G37*
G36*
X865361Y459212D02*
X883060Y476911D01*
X895811Y464160D01*
X878112Y446461D01*
X865361Y459212D01*
G37*
G36*
X909909Y503760D02*
X927608Y521459D01*
X940359Y508708D01*
X922660Y491009D01*
X909909Y503760D01*
G37*
G36*
X445361Y1019212D02*
X463060Y1036911D01*
X475811Y1024160D01*
X458112Y1006461D01*
X445361Y1019212D01*
G37*
G36*
X489909Y1063760D02*
X507608Y1081459D01*
X520359Y1068708D01*
X502660Y1051009D01*
X489909Y1063760D01*
G37*
G36*
X1005361Y459212D02*
X1023060Y476911D01*
X1035811Y464160D01*
X1018112Y446461D01*
X1005361Y459212D01*
G37*
G36*
X1049909Y503760D02*
X1067608Y521459D01*
X1080359Y508708D01*
X1062660Y491009D01*
X1049909Y503760D01*
G37*
G36*
X25361Y319212D02*
X43060Y336911D01*
X55811Y324160D01*
X38112Y306461D01*
X25361Y319212D01*
G37*
G36*
X69909Y363760D02*
X87608Y381459D01*
X100359Y368708D01*
X82660Y351009D01*
X69909Y363760D01*
G37*
G36*
X165361Y319212D02*
X183060Y336911D01*
X195811Y324160D01*
X178112Y306461D01*
X165361Y319212D01*
G37*
G36*
X209909Y363760D02*
X227608Y381459D01*
X240359Y368708D01*
X222660Y351009D01*
X209909Y363760D01*
G37*
G36*
X305361Y319212D02*
X323060Y336911D01*
X335811Y324160D01*
X318112Y306461D01*
X305361Y319212D01*
G37*
G36*
X349909Y363760D02*
X367608Y381459D01*
X380359Y368708D01*
X362660Y351009D01*
X349909Y363760D01*
G37*
G36*
X445361Y319212D02*
X463060Y336911D01*
X475811Y324160D01*
X458112Y306461D01*
X445361Y319212D01*
G37*
G36*
X489909Y363760D02*
X507608Y381459D01*
X520359Y368708D01*
X502660Y351009D01*
X489909Y363760D01*
G37*
G36*
X585361Y319212D02*
X603060Y336911D01*
X615811Y324160D01*
X598112Y306461D01*
X585361Y319212D01*
G37*
G36*
X629909Y363760D02*
X647608Y381459D01*
X660359Y368708D01*
X642660Y351009D01*
X629909Y363760D01*
G37*
G36*
X725361Y319212D02*
X743060Y336911D01*
X755811Y324160D01*
X738112Y306461D01*
X725361Y319212D01*
G37*
G36*
X769909Y363760D02*
X787608Y381459D01*
X800359Y368708D01*
X782660Y351009D01*
X769909Y363760D01*
G37*
G36*
X865361Y319212D02*
X883060Y336911D01*
X895811Y324160D01*
X878112Y306461D01*
X865361Y319212D01*
G37*
G36*
X909909Y363760D02*
X927608Y381459D01*
X940359Y368708D01*
X922660Y351009D01*
X909909Y363760D01*
G37*
G36*
X1005361Y319212D02*
X1023060Y336911D01*
X1035811Y324160D01*
X1018112Y306461D01*
X1005361Y319212D01*
G37*
G36*
X1049909Y363760D02*
X1067608Y381459D01*
X1080359Y368708D01*
X1062660Y351009D01*
X1049909Y363760D01*
G37*
G36*
X25361Y179212D02*
X43060Y196911D01*
X55811Y184160D01*
X38112Y166461D01*
X25361Y179212D01*
G37*
G36*
X69909Y223760D02*
X87608Y241459D01*
X100359Y228708D01*
X82660Y211009D01*
X69909Y223760D01*
G37*
G36*
X585361Y1019212D02*
X603060Y1036911D01*
X615811Y1024160D01*
X598112Y1006461D01*
X585361Y1019212D01*
G37*
G36*
X629909Y1063760D02*
X647608Y1081459D01*
X660359Y1068708D01*
X642660Y1051009D01*
X629909Y1063760D01*
G37*
G36*
X165361Y179212D02*
X183060Y196911D01*
X195811Y184160D01*
X178112Y166461D01*
X165361Y179212D01*
G37*
G36*
X209909Y223760D02*
X227608Y241459D01*
X240359Y228708D01*
X222660Y211009D01*
X209909Y223760D01*
G37*
G36*
X305361Y179212D02*
X323060Y196911D01*
X335811Y184160D01*
X318112Y166461D01*
X305361Y179212D01*
G37*
G36*
X349909Y223760D02*
X367608Y241459D01*
X380359Y228708D01*
X362660Y211009D01*
X349909Y223760D01*
G37*
G36*
X445361Y179212D02*
X463060Y196911D01*
X475811Y184160D01*
X458112Y166461D01*
X445361Y179212D01*
G37*
G36*
X489909Y223760D02*
X507608Y241459D01*
X520359Y228708D01*
X502660Y211009D01*
X489909Y223760D01*
G37*
G36*
X585361Y179212D02*
X603060Y196911D01*
X615811Y184160D01*
X598112Y166461D01*
X585361Y179212D01*
G37*
G36*
X629909Y223760D02*
X647608Y241459D01*
X660359Y228708D01*
X642660Y211009D01*
X629909Y223760D01*
G37*
G36*
X725361Y179212D02*
X743060Y196911D01*
X755811Y184160D01*
X738112Y166461D01*
X725361Y179212D01*
G37*
G36*
X769909Y223760D02*
X787608Y241459D01*
X800359Y228708D01*
X782660Y211009D01*
X769909Y223760D01*
G37*
G36*
X865361Y179212D02*
X883060Y196911D01*
X895811Y184160D01*
X878112Y166461D01*
X865361Y179212D01*
G37*
G36*
X909909Y223760D02*
X927608Y241459D01*
X940359Y228708D01*
X922660Y211009D01*
X909909Y223760D01*
G37*
G36*
X1005361Y179212D02*
X1023060Y196911D01*
X1035811Y184160D01*
X1018112Y166461D01*
X1005361Y179212D01*
G37*
G36*
X1049909Y223760D02*
X1067608Y241459D01*
X1080359Y228708D01*
X1062660Y211009D01*
X1049909Y223760D01*
G37*
G36*
X25361Y39212D02*
X43060Y56911D01*
X55811Y44160D01*
X38112Y26461D01*
X25361Y39212D01*
G37*
G36*
X69909Y83760D02*
X87608Y101459D01*
X100359Y88708D01*
X82660Y71009D01*
X69909Y83760D01*
G37*
G36*
X165361Y39212D02*
X183060Y56911D01*
X195811Y44160D01*
X178112Y26461D01*
X165361Y39212D01*
G37*
G36*
X209909Y83760D02*
X227608Y101459D01*
X240359Y88708D01*
X222660Y71009D01*
X209909Y83760D01*
G37*
G36*
X305361Y39212D02*
X323060Y56911D01*
X335811Y44160D01*
X318112Y26461D01*
X305361Y39212D01*
G37*
G36*
X349909Y83760D02*
X367608Y101459D01*
X380359Y88708D01*
X362660Y71009D01*
X349909Y83760D01*
G37*
G36*
X725361Y1019212D02*
X743060Y1036911D01*
X755811Y1024160D01*
X738112Y1006461D01*
X725361Y1019212D01*
G37*
G36*
X769909Y1063760D02*
X787608Y1081459D01*
X800359Y1068708D01*
X782660Y1051009D01*
X769909Y1063760D01*
G37*
G36*
X445361Y39212D02*
X463060Y56911D01*
X475811Y44160D01*
X458112Y26461D01*
X445361Y39212D01*
G37*
G36*
X489909Y83760D02*
X507608Y101459D01*
X520359Y88708D01*
X502660Y71009D01*
X489909Y83760D01*
G37*
G36*
X585361Y39212D02*
X603060Y56911D01*
X615811Y44160D01*
X598112Y26461D01*
X585361Y39212D01*
G37*
G36*
X629909Y83760D02*
X647608Y101459D01*
X660359Y88708D01*
X642660Y71009D01*
X629909Y83760D01*
G37*
G36*
X725361Y39212D02*
X743060Y56911D01*
X755811Y44160D01*
X738112Y26461D01*
X725361Y39212D01*
G37*
G36*
X769909Y83760D02*
X787608Y101459D01*
X800359Y88708D01*
X782660Y71009D01*
X769909Y83760D01*
G37*
G36*
X865361Y39212D02*
X883060Y56911D01*
X895811Y44160D01*
X878112Y26461D01*
X865361Y39212D01*
G37*
G36*
X909909Y83760D02*
X927608Y101459D01*
X940359Y88708D01*
X922660Y71009D01*
X909909Y83760D01*
G37*
G36*
X1005361Y39212D02*
X1023060Y56911D01*
X1035811Y44160D01*
X1018112Y26461D01*
X1005361Y39212D01*
G37*
G36*
X1049909Y83760D02*
X1067608Y101459D01*
X1080359Y88708D01*
X1062660Y71009D01*
X1049909Y83760D01*
G37*
G36*
X865361Y1019212D02*
X883060Y1036911D01*
X895811Y1024160D01*
X878112Y1006461D01*
X865361Y1019212D01*
G37*
G36*
X909909Y1063760D02*
X927608Y1081459D01*
X940359Y1068708D01*
X922660Y1051009D01*
X909909Y1063760D01*
G37*
G36*
X1005361Y1019212D02*
X1023060Y1036911D01*
X1035811Y1024160D01*
X1018112Y1006461D01*
X1005361Y1019212D01*
G37*
G36*
X1049909Y1063760D02*
X1067608Y1081459D01*
X1080359Y1068708D01*
X1062660Y1051009D01*
X1049909Y1063760D01*
G37*
G36*
X25361Y879212D02*
X43060Y896911D01*
X55811Y884160D01*
X38112Y866461D01*
X25361Y879212D01*
G37*
G36*
X69909Y923760D02*
X87608Y941459D01*
X100359Y928708D01*
X82660Y911009D01*
X69909Y923760D01*
G37*
D13*
X1384900Y336740D02*
X1384900Y323660D01*
X1359500Y323660D02*
X1359500Y336740D01*
X1334100Y336740D02*
X1334100Y323660D01*
X1308700Y323660D02*
X1308700Y336740D01*
X1283300Y336740D02*
X1283300Y323660D01*
X1257900Y323660D02*
X1257900Y336740D01*
X1391060Y304800D02*
X1404140Y304800D01*
X1404140Y279400D02*
X1391060Y279400D01*
X1391060Y254000D02*
X1404140Y254000D01*
X1404140Y228600D02*
X1391060Y228600D01*
X1391060Y203200D02*
X1404140Y203200D01*
X1404140Y177800D02*
X1391060Y177800D01*
X1391060Y152400D02*
X1404140Y152400D01*
X1404140Y127000D02*
X1391060Y127000D01*
X1391060Y101600D02*
X1404140Y101600D01*
X1404140Y76200D02*
X1391060Y76200D01*
X1391060Y50800D02*
X1404140Y50800D01*
X1404140Y25400D02*
X1391060Y25400D01*
X1251740Y304800D02*
X1238660Y304800D01*
X1238660Y279400D02*
X1251740Y279400D01*
X1251740Y254000D02*
X1238660Y254000D01*
X1238660Y228600D02*
X1251740Y228600D01*
X1251740Y203200D02*
X1238660Y203200D01*
X1238660Y177800D02*
X1251740Y177800D01*
X1251740Y152400D02*
X1238660Y152400D01*
X1238660Y127000D02*
X1251740Y127000D01*
X1251740Y101600D02*
X1238660Y101600D01*
X1238660Y76200D02*
X1251740Y76200D01*
X1251740Y50800D02*
X1238660Y50800D01*
X1238660Y25400D02*
X1251740Y25400D01*
X1283300Y31940D02*
X1283300Y18860D01*
X1308700Y18860D02*
X1308700Y31940D01*
X1334100Y31940D02*
X1334100Y18860D01*
D14*
X1283300Y215900D03*
X1283300Y190500D03*
D15*
X496400Y1011800D03*
X541400Y1011800D03*
D16*
X1257300Y459200D03*
X1282700Y459200D03*
X1257300Y484600D03*
X1282700Y484600D03*
X1257300Y510000D03*
X1282700Y510000D03*
X1257300Y535400D03*
X1282700Y535400D03*
X1257300Y560800D03*
X1282700Y560800D03*
D17*
X1337860Y590960D03*
X1362860Y590960D03*
X1387860Y590960D03*
D18*
X1318860Y523960D03*
X1406860Y523960D03*
D17*
X1337860Y740960D03*
X1362860Y740960D03*
X1387860Y740960D03*
D18*
X1318860Y673960D03*
X1406860Y673960D03*
D19*
X1702860Y169035D03*
X1702860Y251585D03*
X1702860Y143635D03*
D20*
X1702860Y203960D03*
D19*
X1702860Y98885D03*
X1702860Y16335D03*
X1702860Y124285D03*
D20*
X1702860Y63960D03*
D21*
X1702860Y450160D03*
X1702860Y533160D03*
D22*
X1702860Y418960D03*
D23*
X1702860Y483960D03*
D21*
X1702860Y310160D03*
X1702860Y393160D03*
D22*
X1702860Y278960D03*
D23*
X1702860Y343960D03*
D21*
X1702860Y730160D03*
X1702860Y813160D03*
D22*
X1702860Y698960D03*
D23*
X1702860Y763960D03*
D21*
X1702860Y590160D03*
X1702860Y673160D03*
D22*
X1702860Y558960D03*
D23*
X1702860Y623960D03*
D21*
X1702860Y1010160D03*
X1702860Y1093160D03*
D22*
X1702860Y978960D03*
D23*
X1702860Y1043960D03*
D21*
X1702860Y870160D03*
X1702860Y953160D03*
D22*
X1702860Y838960D03*
D23*
X1702860Y903960D03*
D12*
G36*
X1145361Y1019212D02*
X1163060Y1036911D01*
X1175811Y1024160D01*
X1158112Y1006461D01*
X1145361Y1019212D01*
G37*
G36*
X1189909Y1063760D02*
X1207608Y1081459D01*
X1220359Y1068708D01*
X1202660Y1051009D01*
X1189909Y1063760D01*
G37*
G36*
X1145361Y879212D02*
X1163060Y896911D01*
X1175811Y884160D01*
X1158112Y866461D01*
X1145361Y879212D01*
G37*
G36*
X1189909Y923760D02*
X1207608Y941459D01*
X1220359Y928708D01*
X1202660Y911009D01*
X1189909Y923760D01*
G37*
G36*
X1145361Y739212D02*
X1163060Y756911D01*
X1175811Y744160D01*
X1158112Y726461D01*
X1145361Y739212D01*
G37*
G36*
X1189909Y783760D02*
X1207608Y801459D01*
X1220359Y788708D01*
X1202660Y771009D01*
X1189909Y783760D01*
G37*
G36*
X1145361Y599212D02*
X1163060Y616911D01*
X1175811Y604160D01*
X1158112Y586461D01*
X1145361Y599212D01*
G37*
G36*
X1189909Y643760D02*
X1207608Y661459D01*
X1220359Y648708D01*
X1202660Y631009D01*
X1189909Y643760D01*
G37*
G36*
X1145361Y459212D02*
X1163060Y476911D01*
X1175811Y464160D01*
X1158112Y446461D01*
X1145361Y459212D01*
G37*
G36*
X1189909Y503760D02*
X1207608Y521459D01*
X1220359Y508708D01*
X1202660Y491009D01*
X1189909Y503760D01*
G37*
G36*
X1145361Y319212D02*
X1163060Y336911D01*
X1175811Y324160D01*
X1158112Y306461D01*
X1145361Y319212D01*
G37*
G36*
X1189909Y363760D02*
X1207608Y381459D01*
X1220359Y368708D01*
X1202660Y351009D01*
X1189909Y363760D01*
G37*
G36*
X1145361Y179212D02*
X1163060Y196911D01*
X1175811Y184160D01*
X1158112Y166461D01*
X1145361Y179212D01*
G37*
G36*
X1189909Y223760D02*
X1207608Y241459D01*
X1220359Y228708D01*
X1202660Y211009D01*
X1189909Y223760D01*
G37*
G36*
X1145361Y39212D02*
X1163060Y56911D01*
X1175811Y44160D01*
X1158112Y26461D01*
X1145361Y39212D01*
G37*
G36*
X1189909Y83760D02*
X1207608Y101459D01*
X1220359Y88708D01*
X1202660Y71009D01*
X1189909Y83760D01*
G37*
D11*
G36*
X1137038Y1074920D02*
X1144485Y1067473D01*
X1135978Y1058966D01*
X1128531Y1066413D01*
X1137038Y1074920D01*
G37*
G36*
X1161787Y1099669D02*
X1169234Y1092222D01*
X1160727Y1083715D01*
X1153280Y1091162D01*
X1161787Y1099669D01*
G37*
G36*
X1149413Y1062545D02*
X1156860Y1055098D01*
X1148353Y1046591D01*
X1140906Y1054038D01*
X1149413Y1062545D01*
G37*
G36*
X1174162Y1087294D02*
X1181609Y1079847D01*
X1173102Y1071340D01*
X1165655Y1078787D01*
X1174162Y1087294D01*
G37*
G36*
X1137038Y934920D02*
X1144485Y927473D01*
X1135978Y918966D01*
X1128531Y926413D01*
X1137038Y934920D01*
G37*
G36*
X1161787Y959669D02*
X1169234Y952222D01*
X1160727Y943715D01*
X1153280Y951162D01*
X1161787Y959669D01*
G37*
G36*
X1149413Y922545D02*
X1156860Y915098D01*
X1148353Y906591D01*
X1140906Y914038D01*
X1149413Y922545D01*
G37*
G36*
X1174162Y947294D02*
X1181609Y939847D01*
X1173102Y931340D01*
X1165655Y938787D01*
X1174162Y947294D01*
G37*
G36*
X1137038Y794920D02*
X1144485Y787473D01*
X1135978Y778966D01*
X1128531Y786413D01*
X1137038Y794920D01*
G37*
G36*
X1161787Y819669D02*
X1169234Y812222D01*
X1160727Y803715D01*
X1153280Y811162D01*
X1161787Y819669D01*
G37*
G36*
X1149413Y782545D02*
X1156860Y775098D01*
X1148353Y766591D01*
X1140906Y774038D01*
X1149413Y782545D01*
G37*
G36*
X1174162Y807294D02*
X1181609Y799847D01*
X1173102Y791340D01*
X1165655Y798787D01*
X1174162Y807294D01*
G37*
G36*
X1137038Y654920D02*
X1144485Y647473D01*
X1135978Y638966D01*
X1128531Y646413D01*
X1137038Y654920D01*
G37*
G36*
X1161787Y679669D02*
X1169234Y672222D01*
X1160727Y663715D01*
X1153280Y671162D01*
X1161787Y679669D01*
G37*
G36*
X1149413Y642545D02*
X1156860Y635098D01*
X1148353Y626591D01*
X1140906Y634038D01*
X1149413Y642545D01*
G37*
G36*
X1174162Y667294D02*
X1181609Y659847D01*
X1173102Y651340D01*
X1165655Y658787D01*
X1174162Y667294D01*
G37*
G36*
X1137038Y514920D02*
X1144485Y507473D01*
X1135978Y498966D01*
X1128531Y506413D01*
X1137038Y514920D01*
G37*
G36*
X1161787Y539669D02*
X1169234Y532222D01*
X1160727Y523715D01*
X1153280Y531162D01*
X1161787Y539669D01*
G37*
G36*
X1149413Y502545D02*
X1156860Y495098D01*
X1148353Y486591D01*
X1140906Y494038D01*
X1149413Y502545D01*
G37*
G36*
X1174162Y527294D02*
X1181609Y519847D01*
X1173102Y511340D01*
X1165655Y518787D01*
X1174162Y527294D01*
G37*
G36*
X1137038Y374920D02*
X1144485Y367473D01*
X1135978Y358966D01*
X1128531Y366413D01*
X1137038Y374920D01*
G37*
G36*
X1161787Y399669D02*
X1169234Y392222D01*
X1160727Y383715D01*
X1153280Y391162D01*
X1161787Y399669D01*
G37*
G36*
X1149413Y362545D02*
X1156860Y355098D01*
X1148353Y346591D01*
X1140906Y354038D01*
X1149413Y362545D01*
G37*
G36*
X1174162Y387294D02*
X1181609Y379847D01*
X1173102Y371340D01*
X1165655Y378787D01*
X1174162Y387294D01*
G37*
G36*
X1137038Y234920D02*
X1144485Y227473D01*
X1135978Y218966D01*
X1128531Y226413D01*
X1137038Y234920D01*
G37*
G36*
X1161787Y259669D02*
X1169234Y252222D01*
X1160727Y243715D01*
X1153280Y251162D01*
X1161787Y259669D01*
G37*
G36*
X1149413Y222545D02*
X1156860Y215098D01*
X1148353Y206591D01*
X1140906Y214038D01*
X1149413Y222545D01*
G37*
G36*
X1174162Y247294D02*
X1181609Y239847D01*
X1173102Y231340D01*
X1165655Y238787D01*
X1174162Y247294D01*
G37*
G36*
X1137038Y94920D02*
X1144485Y87473D01*
X1135978Y78966D01*
X1128531Y86413D01*
X1137038Y94920D01*
G37*
G36*
X1161787Y119669D02*
X1169234Y112222D01*
X1160727Y103715D01*
X1153280Y111162D01*
X1161787Y119669D01*
G37*
G36*
X1149413Y82545D02*
X1156860Y75098D01*
X1148353Y66591D01*
X1140906Y74038D01*
X1149413Y82545D01*
G37*
G36*
X1174162Y107294D02*
X1181609Y99847D01*
X1173102Y91340D01*
X1165655Y98787D01*
X1174162Y107294D01*
G37*
D24*
X1605160Y623960D03*
X1630560Y623960D03*
X1605160Y763960D03*
X1630560Y763960D03*
X1605160Y903960D03*
X1630560Y903960D03*
X1605160Y1043960D03*
X1630560Y1043960D03*
X1605160Y483960D03*
X1630560Y483960D03*
X1605160Y343960D03*
X1630560Y343960D03*
X1605160Y203960D03*
X1630560Y203960D03*
X1605160Y63960D03*
X1630560Y63960D03*
D19*
X1532840Y98885D03*
X1532840Y16335D03*
X1532840Y124285D03*
D20*
X1532840Y63960D03*
D19*
X1532840Y169035D03*
X1532840Y251585D03*
X1532840Y143635D03*
D20*
X1532840Y203960D03*
D21*
X1532840Y310160D03*
X1532840Y393160D03*
D22*
X1532840Y278960D03*
D23*
X1532840Y343960D03*
D21*
X1532840Y589860D03*
X1532840Y672860D03*
D22*
X1532840Y558660D03*
D23*
X1532840Y623660D03*
D21*
X1532840Y450460D03*
X1532840Y533460D03*
D22*
X1532840Y419260D03*
D23*
X1532840Y484260D03*
D24*
X1520140Y723960D03*
X1545540Y723960D03*
D25*
X1407860Y898960D03*
X1432860Y898960D03*
X1457860Y898960D03*
X1407860Y1043960D03*
X1457860Y1043960D03*
D10*
X132588Y949960D02*
X117348Y949960D01*
X117348Y975360D02*
X132588Y975360D01*
X132588Y1000760D02*
X117348Y1000760D01*
X117348Y1026160D02*
X132588Y1026160D01*
X1555242Y949960D02*
X1570482Y949960D01*
X1570482Y975360D02*
X1555242Y975360D01*
X1555242Y1000760D02*
X1570482Y1000760D01*
X1570482Y1026160D02*
X1555242Y1026160D01*
D26*
X1343152Y906272D03*
X1422400Y853440D03*
X737616Y414528D03*
X822960Y499872D03*
X965200Y542544D03*
X953008Y558800D03*
X1272032Y703072D03*
X1089152Y701040D03*
X1089152Y583184D03*
X1276350Y609600D03*
X1581150Y584200D03*
X1479550Y704850D03*
X1473200Y520700D03*
X959358Y194818D03*
X989838Y195580D03*
X685800Y290830D03*
X608330Y79248D03*
X1429004Y47244D03*
X1329690Y105410D03*
X1271524Y69342D03*
X1216406Y256794D03*
X916178Y457708D03*
X837692Y475234D03*
X851154Y615950D03*
X964184Y665480D03*
X962914Y848614D03*
X1444498Y672338D03*
X1434846Y883920D03*
X477774Y194564D03*
X1514856Y573278D03*
X1605026Y584454D03*
X1604772Y441706D03*
X1218438Y978408D03*
X1278636Y978408D03*
X1012444Y988568D03*
X941324Y909320D03*
X845566Y885444D03*
X872744Y994156D03*
X814832Y1012444D03*
X932942Y964438D03*
X731520Y992378D03*
X656844Y1011428D03*
X516636Y985266D03*
X375158Y987298D03*
X313436Y989076D03*
X262128Y988060D03*
X169672Y993648D03*
X115824Y1054100D03*
X255524Y717804D03*
X407670Y714502D03*
X482854Y720090D03*
X669290Y730250D03*
X821944Y729234D03*
X666496Y521208D03*
X670814Y446024D03*
X673354Y388366D03*
X665480Y359156D03*
X808990Y392430D03*
X537210Y375158D03*
X531876Y427990D03*
X388112Y415290D03*
X399542Y459994D03*
X269240Y437134D03*
X119634Y407162D03*
X28194Y97790D03*
X32004Y152654D03*
X104394Y159766D03*
X252476Y138684D03*
X255778Y192532D03*
X100838Y215392D03*
X343154Y126746D03*
X670052Y141478D03*
X665226Y190246D03*
X825246Y192278D03*
X824484Y104902D03*
X1411224Y573024D03*
X1382268Y848614D03*
X1055116Y309880D03*
X1084834Y277622D03*
X1098804Y226822D03*
X1059942Y124460D03*
X1154430Y292608D03*
X1017270Y514350D03*
X1270508Y821690D03*
X1194562Y746252D03*
X1214120Y748538D03*
X1141730Y413512D03*
X1031748Y683260D03*
X872490Y435864D03*
X754634Y491490D03*
X565658Y757936D03*
X483108Y762762D03*
X623824Y763016D03*
X761746Y763778D03*
X202692Y763524D03*
X17018Y701548D03*
X26924Y568198D03*
X342392Y484632D03*
X540512Y62738D03*
X684784Y66294D03*
X913892Y123190D03*
X1435100Y189230D03*
X1563116Y190754D03*
X1556004Y445770D03*
X1553718Y598678D03*
X1582928Y725678D03*
X1324610Y828294D03*
X1365250Y778256D03*
X1071626Y617474D03*
X981964Y446786D03*
X964184Y739394D03*
X1193038Y455422D03*
X440690Y118618D03*
X439928Y148844D03*
X491998Y289052D03*
X483616Y544068D03*
X1315974Y1048258D03*
X820166Y953262D03*
X685800Y941070D03*
X556768Y955802D03*
X406146Y942086D03*
X263398Y937768D03*
X104140Y991616D03*
X115316Y653542D03*
X263398Y660400D03*
X402844Y662178D03*
X567944Y671576D03*
X673862Y669798D03*
X784860Y679450D03*
X1140460Y750570D03*
X1273556Y767080D03*
X1410970Y777240D03*
X1355344Y631698D03*
X1142492Y616204D03*
X1216152Y200914D03*
X671830Y233934D03*
X547370Y303276D03*
X397256Y514604D03*
X117094Y513334D03*
X754634Y446532D03*
X1078230Y426974D03*
X1074166Y322580D03*
X1112012Y243586D03*
X1231646Y340106D03*
X1133602Y343408D03*
X1202944Y310388D03*
X1155700Y373126D03*
X1184148Y286004D03*
X1109218Y567690D03*
X1121156Y631698D03*
X1138936Y679450D03*
X1150112Y659130D03*
X1137158Y828802D03*
X1173734Y992378D03*
X1487424Y792988D03*
X1390396Y885698D03*
X762254Y710946D03*
X550926Y579882D03*
X28194Y338074D03*
X869442Y104902D03*
X432054Y189484D03*
X779018Y470662D03*
X1306830Y549656D03*
X528574Y505968D03*
X544322Y475996D03*
X539750Y532892D03*
X607568Y491744D03*
X195580Y204216D03*
X1581912Y919226D03*
X1370076Y157226D03*
X567436Y874014D03*
X566166Y818896D03*
X1317752Y774954D03*
X680720Y530860D03*
X101600Y38100D03*
X850900Y330200D03*
X806450Y431800D03*
X1448816Y861568D03*
X1568704Y861568D03*
X477520Y117856D03*
X593344Y117856D03*
X1066800Y184912D03*
X1119632Y384048D03*
X953008Y619760D03*
X1089152Y560832D03*
X1119632Y461264D03*
X1357376Y843280D03*
X1272032Y713232D03*
X1038352Y636016D03*
X1434592Y239776D03*
X617728Y508000D03*
X539750Y486918D03*
X1174496Y268224D03*
X1170432Y209296D03*
X1148080Y449072D03*
X1109472Y591312D03*
X1135888Y660400D03*
X1150112Y845312D03*
X1150112Y762762D03*
X1160272Y965200D03*
X1156208Y898144D03*
X1298448Y942848D03*
X1148080Y528320D03*
X1170432Y418592D03*
X471424Y58928D03*
X469392Y69088D03*
X178816Y965200D03*
X178816Y900176D03*
X180848Y217424D03*
X180848Y302768D03*
X180848Y410464D03*
X180848Y544576D03*
X176784Y56896D03*
X420624Y132080D03*
X321056Y75184D03*
X369824Y123952D03*
X321056Y264160D03*
X321056Y776224D03*
X321056Y861568D03*
X321056Y965200D03*
X319024Y619760D03*
X459232Y965200D03*
X459232Y900176D03*
X510032Y152400D03*
X489712Y62992D03*
X459232Y264160D03*
X459232Y211328D03*
X459232Y404368D03*
X457200Y514096D03*
X599440Y629920D03*
X587248Y729488D03*
X599440Y965200D03*
X493776Y195072D03*
X481584Y42672D03*
X599440Y404368D03*
X595376Y337312D03*
X621792Y526288D03*
X739648Y965200D03*
X739648Y900176D03*
X540512Y213360D03*
X564896Y213360D03*
X727456Y197104D03*
X741680Y65024D03*
X741680Y156464D03*
X739648Y264160D03*
X737616Y404368D03*
X739648Y619760D03*
X881888Y965200D03*
X881888Y902208D03*
X894080Y615696D03*
X867664Y30480D03*
X879856Y123952D03*
X879856Y65024D03*
X881888Y404368D03*
X881888Y351536D03*
X532384Y164592D03*
X609600Y164592D03*
X926592Y164592D03*
X859536Y65024D03*
X1032256Y731520D03*
X1097280Y731520D03*
X1022096Y965200D03*
X1030224Y477520D03*
X1052576Y477520D03*
X1036828Y347980D03*
X936752Y583184D03*
X883920Y621792D03*
X786384Y1048512D03*
X1032256Y1064768D03*
X936752Y595376D03*
X877824Y629920D03*
X794512Y916432D03*
X1064768Y950976D03*
X908304Y768096D03*
X1040384Y784352D03*
X912368Y633984D03*
X1018032Y642112D03*
X938784Y520192D03*
X1050544Y495808D03*
X963168Y495808D03*
X774192Y516128D03*
X579120Y447040D03*
X617728Y469392D03*
X953008Y394208D03*
X1052576Y379984D03*
X1005840Y607568D03*
X1022096Y544576D03*
X1099312Y377952D03*
X983488Y227584D03*
X1052576Y233680D03*
X800608Y221488D03*
X904240Y221488D03*
X570992Y205232D03*
X997712Y581152D03*
X997712Y548640D03*
X1109472Y363728D03*
X1046480Y97536D03*
X1003808Y97536D03*
X1239520Y833120D03*
X1282192Y845312D03*
X1231392Y579120D03*
X1353312Y896112D03*
X1335024Y877824D03*
X1233424Y508000D03*
X1060704Y465328D03*
X1105408Y510032D03*
X1306576Y885952D03*
X1263904Y591312D03*
X1298448Y898144D03*
X1420368Y906272D03*
X814832Y672592D03*
X916432Y692912D03*
X1054608Y692912D03*
X1081024Y692912D03*
X1304544Y304800D03*
X1272032Y597408D03*
X1131375Y203411D03*
X930656Y292608D03*
X1028700Y292354D03*
X1152906Y340868D03*
X606806Y840740D03*
X486664Y840994D03*
X468376Y840740D03*
X261874Y882904D03*
X227584Y978154D03*
X240030Y1014222D03*
X661924Y489712D03*
X687832Y498094D03*
X687832Y522478D03*
X690626Y548894D03*
X607314Y852678D03*
X485648Y852678D03*
X468376Y852678D03*
X270510Y891032D03*
X581152Y554736D03*
X516128Y619760D03*
X1735328Y28448D03*
X1647952Y87376D03*
X1733296Y396240D03*
X1658112Y375920D03*
X1534160Y749808D03*
X1560576Y792480D03*
X1556512Y713232D03*
X1473200Y762000D03*
X1548384Y800608D03*
X1375664Y810768D03*
X1249680Y575056D03*
X1249680Y776224D03*
X1249680Y833120D03*
X1207008Y540512D03*
X1204976Y528320D03*
X1204976Y566928D03*
X1139952Y475488D03*
X1135888Y455168D03*
X1166368Y440944D03*
X1217168Y434848D03*
X1139952Y465328D03*
X1182624Y398272D03*
X1196848Y237744D03*
X1158240Y546608D03*
X1170432Y501904D03*
X1174496Y473456D03*
X1166368Y402336D03*
X1176528Y225552D03*
X1550416Y699008D03*
X1564640Y308864D03*
X1465072Y843280D03*
X1534160Y770128D03*
X1578864Y640080D03*
X1314704Y845312D03*
X1343152Y896112D03*
X1465072Y853440D03*
X1543304Y236728D03*
X1429258Y107696D03*
X1495552Y631190D03*
X1488186Y735584D03*
X1512824Y759714D03*
X1495552Y779780D03*
D27*
X1092200Y133350D03*
D26*
X1191824Y158524D03*
X1187450Y101600D03*
D27*
X1123950Y165100D03*
D26*
X1198400Y165100D03*
X1198400Y107950D03*
D27*
X1149350Y133350D03*
X1104900Y88900D03*
D26*
X213360Y950976D03*
X666750Y953008D03*
X418592Y672592D03*
X749300Y209550D03*
X213360Y493776D03*
X774700Y577850D03*
X901700Y266700D03*
X965200Y317500D03*
X825500Y431800D03*
X850900Y457200D03*
X939800Y444500D03*
X965200Y444500D03*
X971550Y393700D03*
X946150Y374650D03*
X450850Y711200D03*
X565150Y711200D03*
X584200Y711200D03*
X704850Y717550D03*
M02*
